<?xml version="1.0" encoding="UTF-8"?>
<svg id="Lager_1" xmlns="http://www.w3.org/2000/svg" version="1.1" viewBox="0 0 265.45 136.48">
  <!-- Generator: Adobe Illustrator 29.3.1, SVG Export Plug-In . SVG Version: 2.1.0 Build 151)  -->
  <defs>
    <style>
      .st0 {
        fill: #fff;
      }
    </style>
  </defs>
  <g>
    <path class="st0" d="M10.61,114.42c1.3,0,2.2-.93,2.2-2.1v-16.84c0-1.63-.83-2.5-2.1-2.83v-.73c1.26,0,2.5.13,3.76.13s2.53-.13,3.79-.13v.73c-1.36.37-1.8,1.16-1.8,2.93,0,1-.1,3.13-.1,6.12v11.52c.73.13,1.36.2,3.53.2,5.73,0,6.76-1.03,7.59-3.16l1.2.6-1.43,4.69c-1.07-.4-2.13-.53-3.2-.53h-10.92c-.83,0-1.7.13-2.53.13v-.73Z"/>
    <path class="st0" d="M31.7,96.55c.96,0,1.92.11,2.9.11s1.94-.11,2.9-.11v.59c-1.2.16-1.49.96-1.49,2.66,0,2.53-.03,5.06-.03,7.59,0,3.57,1.65,6.1,5.62,6.1,2.16,0,4.9-1.25,4.9-4.26v-3.14c0-3.14-.24-6.28-.24-7.62,0-.75-.72-1.25-1.36-1.33v-.59c.96,0,1.92.11,2.88.11s1.94-.11,2.9-.11v.59c-.88.03-1.25,1.07-1.25,1.97,0,1.01-.08,3.78-.08,7.3v5.8c0,1.49.29,2.26,1.46,2.34v.59c-.75,0-1.52-.11-2.26-.11s-1.49.11-2.24.11c.05-.91.13-1.73.19-2.53-1.94,1.81-3.59,2.85-6.31,2.85-3.94,0-7.06-2.26-7.06-6.26v-4.45c0-2.08-.13-3.91-.13-5.56,0-1.04-.19-1.89-1.3-2.05v-.59Z"/>
    <path class="st0" d="M56.67,114.54c1.04-.27,1.65-1.07,1.65-2.56l.08-15.76h1.12l13.02,14.32v-9.16c0-3.3-.72-4.07-2-4.26v-.59c.88,0,1.76.11,2.64.11s1.78-.11,2.66-.11v.59c-1.17.21-1.76,1.14-1.76,3.3l-.08,15.02h-.91l-13.23-14.4.11,10.14c.03,2.08.67,3.04,1.94,3.35v.59c-.88,0-1.76-.11-2.64-.11s-1.73.11-2.61.11v-.59Z"/>
    <path class="st0" d="M81.27,114.54c1.09-.27,1.38-.75,1.38-1.89v-7.75c0-2.34-.27-4.42-.27-5.72,0-1.12-.4-1.89-1.38-2.16v-.48c1.25,0,2.48.11,3.73.11s2.48-.11,3.73-.11c7.27,0,11.69,3.2,11.69,9.19s-3.46,9.4-10.94,9.4c-1.33,0-2.66-.11-3.97-.11s-2.64.11-3.97.11v-.59ZM85.51,113.85c1.25.16,2.29.21,3.3.21,5.09,0,7.64-3.12,7.64-8.23,0-4.82-3.35-8.23-8.07-8.23-.85,0-1.68.05-2.74.11-.03,2.34-.13,4.47-.13,6.71v9.43Z"/>
    <path class="st0" d="M24.86,130.98c.49-.13.78-.5.78-1.2l.04-7.41h.53l6.12,6.73v-4.3c0-1.55-.34-1.91-.94-2v-.28c.41,0,.83.05,1.24.05s.84-.05,1.25-.05v.28c-.55.1-.83.54-.83,1.55l-.04,7.06h-.43l-6.22-6.77.05,4.77c.01.98.31,1.43.91,1.58v.28c-.41,0-.83-.05-1.24-.05s-.81.05-1.23.05v-.28Z"/>
    <path class="st0" d="M39.23,122.79c-.46.07-.51.4-.51.84,0,1.21-.05,2.69-.05,4.02v2.43c0,.41.14.89.61.9v.28c-.43,0-.86-.05-1.29-.05s-.86.05-1.29.05v-.28c.4-.01.63-.36.63-.9v-1.8c0-1.5-.11-3.7-.11-4.49,0-.51-.05-.93-.56-.99v-.28c.43,0,.85.05,1.29.05s.86-.05,1.29-.05v.28Z"/>
    <path class="st0" d="M45.47,131.4l-3.45-7.6c-.14-.31-.41-.83-.9-1.01v-.28c.48,0,.95.05,1.43.05s.94-.05,1.41-.05v.28c-.24.05-.46.16-.46.45,0,.11.04.33.23.78l2.29,5.47,1.95-5.11c.14-.35.18-.64.18-.83,0-.49-.16-.69-.65-.76v-.28c.43,0,.85.05,1.28.05s.85-.05,1.28-.05v.28c-.51.07-.8.5-1.05,1.13l-2.97,7.48h-.55Z"/>
    <path class="st0" d="M51.75,130.93c.49-.05.73-.35.73-.76v-2.11c0-1.7-.1-3.49-.1-4.6,0-.31-.24-.53-.63-.6v-.28h4.94c.34,0,.76-.13.99-.2,0,.33-.05.63-.05.94s.05.61.05.93h-.48c-.21-.6-.51-1.06-1.2-1.06h-2.19v3.33h1.89c.73,0,.96-.06,1.26-.68h.4c0,.36-.05.73-.05,1.09s.05.74.05,1.1h-.43c-.28-.86-.51-.91-1.24-.91h-1.89v3.5h2.13c.93,0,1.26-.15,1.83-.94l.39.2-.44,1.54c-.39-.15-.78-.2-1.18-.2h-4.79v-.28Z"/>
    <path class="st0" d="M60.85,130.98c.43-.1.63-.3.63-.73v-3.22c0-1.08-.06-2.15-.06-3.22,0-.59-.06-.9-.7-1.03v-.28c.4,0,.81.05,1.21.05.38,0,.75-.05,1.69-.05,2.25,0,3.35,1.13,3.35,2.48,0,1.26-1.15,2.08-2.26,2.35l2.53,2.93c.19.23.61.64.95.7v.28c-.41,0-.84-.05-1.25-.05s-.83.05-1.24.05v-.28c.09-.01.13-.06.14-.15,0-.11-.04-.23-.19-.4l-2.08-2.43c-.19-.21-.45-.54-.75-.54v2.48c0,.53.06.9.7,1.04v.28c-.45,0-.89-.05-1.34-.05s-.88.05-1.33.05v-.28ZM62.82,127.07c.19.01.34.04.49.04,1.15,0,2.14-.78,2.14-1.96s-.53-2.18-1.89-2.18c-.33,0-.68.04-.68.35l-.06,3.75Z"/>
    <path class="st0" d="M70.02,129.55h.48c.34.95,1.11,1.33,2.05,1.33.85,0,1.63-.69,1.63-1.56,0-2.64-4.27-1.01-4.27-4.4,0-1.61,1.41-2.54,2.89-2.54.81,0,1.81.3,2.23.58l.13,1.34h-.45c-.2-.83-1.08-1.39-1.89-1.39-.94,0-1.69.63-1.69,1.59,0,2.2,4.27.93,4.27,4.19,0,1.66-1.34,2.73-2.93,2.73-.84,0-1.69-.1-2.44-.49v-1.36Z"/>
    <path class="st0" d="M80.89,122.79c-.46.07-.51.4-.51.84,0,1.21-.05,2.69-.05,4.02v2.43c0,.41.14.89.61.9v.28c-.43,0-.86-.05-1.29-.05s-.86.05-1.29.05v-.28c.4-.01.63-.36.63-.9v-1.8c0-1.5-.11-3.7-.11-4.49,0-.51-.05-.93-.56-.99v-.28c.43,0,.85.05,1.29.05s.86-.05,1.29-.05v.28Z"/>
    <path class="st0" d="M90.85,124.13h-.48c-.13-.74-.5-.96-1.21-.96h-1.58c0,1.08-.06,2.45-.06,3.95v2.67c0,.78.24,1.01.79,1.19v.28c-.49,0-.96-.05-1.44-.05s-.95.05-1.44.05v-.28c.58-.19.75-.46.75-1.19v-1.96c0-1.8-.1-3.58-.13-4.65h-1.69c-.71,0-1.09.23-1.21.96h-.48v-1.76c.48.13.96.2,1.45.2h5.53c.35,0,.9-.07,1.19-.2v1.76Z"/>
    <path class="st0" d="M94.29,130.98c.6-.1.78-.39.78-1v-2.4l-2.34-3.89c-.24-.39-.36-.65-.75-.89v-.28c.43,0,.86.05,1.29.05s.86-.05,1.29-.05v.28c-.24.05-.4.17-.4.44,0,.13.08.49.25.79l1.59,2.8,1.56-2.69c.24-.41.28-.71.28-.94,0-.28-.28-.39-.53-.4v-.28c.38,0,.75.05,1.14.05s.75-.05,1.13-.05v.28c-.41.15-.64.5-.98,1.04l-2.19,3.57v2.58c0,.61.18.9.73,1v.28c-.48,0-.95-.05-1.41-.05s-.95.05-1.43.05v-.28Z"/>
    <g>
      <path class="st0" d="M48.79,72.66v3.04c0,.15.69.42.69.42h-2.18s.65-.26.65-.4v-2.57l-.68.11v-.12s1.52-.49,1.52-.49Z"/>
      <path class="st0" d="M62.79,72.73c-.98.22-1.48.84-1.62,1.5.24-.13.46-.19.72-.19.71,0,1.19.41,1.19,1.02,0,.67-.57,1.14-1.39,1.14-.9,0-1.51-.57-1.51-1.41,0-1.06,1.03-2.12,2.59-2.12l.02.07ZM61.66,74.29c-.25,0-.43.1-.55.18-.01.07-.04.24-.04.52,0,.38.05,1.01.58,1.01s.53-.49.53-.87c0-.34-.02-.83-.52-.83Z"/>
      <path class="st0" d="M58.2,72.73c-.98.22-1.48.84-1.62,1.5.24-.13.46-.19.72-.19.71,0,1.19.41,1.19,1.02,0,.67-.57,1.14-1.39,1.14-.9,0-1.51-.57-1.51-1.41,0-1.06,1.03-2.12,2.6-2.12l.02.07ZM57.07,74.29c-.25,0-.43.1-.55.18-.01.07-.04.24-.04.52,0,.38.05,1.01.58,1.01s.53-.49.53-.87c0-.34-.02-.83-.52-.83Z"/>
      <path class="st0" d="M53.57,72.73c-.98.22-1.48.84-1.62,1.5.24-.13.46-.19.72-.19.71,0,1.19.41,1.19,1.02,0,.67-.57,1.14-1.39,1.14-.9,0-1.51-.57-1.51-1.41,0-1.06,1.03-2.12,2.6-2.12l.02.07ZM52.45,74.29c-.25,0-.43.1-.55.18-.01.07-.04.24-.04.52,0,.38.05,1.01.58,1.01s.53-.49.53-.87c0-.34-.02-.83-.52-.83Z"/>
      <path class="st0" d="M23.46,43.54c.33.1.78.34,1.09.54-.05.1-.08.22-.1.36-.05.3.01.63-.06,1.1-.21,1.29-1.27,2.14-2.41,1.96-1.16-.19-1.89-1.4-1.67-2.75.11-.65.44-1.04.46-1.17,0-.05-.02-.29-.02-.29l1.11.12s-1.12.73-1.22,1.34c-.15.9.43,1.63,1.42,1.8,1.01.17,1.91-.4,2.05-1.3.09-.58-.65-1.72-.65-1.72Z"/>
      <path class="st0" d="M33.83,27.09l-2.37,2.46s.16-.73-.07-.95l-1.84-1.77c-.27-.26-.94-.04-.94-.04l1.5-1.56s-.17.75.05.95l1.89,1.82c.17.16.26.15.43-.03l.56-.58c.3-.31.31-1.42.31-1.42l.48,1.1Z"/>
      <path class="st0" d="M31.9,23.51l1.58-1.27s-.21.68,0,.94l1.59,1.96c.2.24.91.18.91.18l-1.58,1.27s.17-.67,0-.88l-1.6-1.98c-.21-.26-.89-.22-.89-.22Z"/>
      <path class="st0" d="M37.2,23.52c.2.33.94.32.94.32l-1.32.81s.24-.6.11-.83l-1.53-2.5c-.17,0-.64-.07-.64-.07l1.12-.69,3.64.96-1.01-1.64c-.24-.39-.98-.32-.98-.32l1.4-.86s-.33.59-.2.8l1.78,2.91-.3.18-4.27-1.13,1.26,2.06Z"/>
      <path class="st0" d="M60.37,18.09s.62,1.11,1.11,1.21c.41.09.78-.11.85-.46.2-.93-1.81-1.32-1.55-2.56.13-.6.74-.91,1.48-.75.48.1.82.34.91.36.04,0,.08,0,.15-.04l.13.03-.1,1.04s-.61-1-1.09-1.1c-.35-.07-.65.06-.7.3-.12.57.89.9,1.44,1.75.2.31.24.6.18.9-.14.65-.83,1.04-1.57.88-.5-.11-.91-.4-1.02-.43-.06-.01-.11,0-.15.07l-.16-.03.08-1.17Z"/>
      <path class="st0" d="M65.51,16.51l1.92.65s-.69.18-.79.5l-.81,2.39c-.1.3.33.87.33.87l-1.92-.65s.66-.21.75-.48l.82-2.42c.11-.31-.29-.87-.29-.87Z"/>
      <path class="st0" d="M71.33,21.94l-.43.85c-.5-.02-1.18-.14-1.67-.39-1.44-.73-1.73-1.88-1.18-2.97.53-1.04,1.77-1.38,2.99-.76.59.3.94.73,1.13.82.09.04.14.04.21.01l.14.07-.53,1.04-.23-.11c.14-.66-.12-1.22-.71-1.52-.81-.41-1.69-.05-2.15.87-.47.93-.24,1.92.56,2.32.22.11.48.17.68.16l.4-.79c.14-.28-.41-.93-.41-.93l1.89.95s-.56.11-.69.37Z"/>
      <path class="st0" d="M74.28,20.67l1.66,1.16s-.71-.01-.9.26l-1.44,2.07c-.18.26.08.92.08.92l-1.66-1.16s.69-.02.85-.25l1.46-2.09c.19-.27-.04-.91-.04-.91Z"/>
      <path class="st0" d="M80.23,31.78l-2.15-2.66s.71.25.95.05l1.98-1.6c.29-.24.16-.93.16-.93l1.36,1.68s-.72-.26-.95-.07l-2.04,1.65c-.18.15-.18.24-.03.43l.51.63c.27.33,1.37.49,1.37.49l-1.16.33Z"/>
      <path class="st0" d="M77.39,28.35l-2.51-2.32s.74.14.95-.09l1.73-1.87c.25-.28.02-.94.02-.94l1.59,1.47s-.75-.15-.95.07l-1.78,1.93c-.16.17-.15.26.04.43l.6.55c.31.29,1.42.28,1.42.28l-1.09.5Z"/>
      <path class="st0" d="M83.58,30.98c.29-.42.31-1.01.31-1.01l1.13,1.9s-.74-.41-.97-.06l-1.26,1.87,2.42-.2c.23-.03.27-.85.27-.85l.83,1.39s-.65-.27-1.19-.19l-3.73.31,2.19-3.16Z"/>
      <path class="st0" d="M86.31,36.14h0s-2.18.62-2.18.62c-.4.12-.65.79-.65.79l-.48-1.33s.54.35,1.05.2l2.22-.65c.31-.09.55-.65.55-.65l.45,1.27-2.1,2.07,2.92.22.46,1.29s-.42-.37-.85-.19l-2.16.94c-.49.21-.64.82-.64.82l-.68-1.89s.44.48.83.34c.1-.03.19-.07.28-.11l2.08-.9h0s-3.52-.27-3.52-.27l-.05-.14,2.48-2.43Z"/>
      <path class="st0" d="M86.72,50.38c-.39-.02-.79.6-.79.6l.06-1.54s.37.54.63.55l2.92.12c.1-.14.41-.49.41-.49l-.05,1.31-2.82,2.49,1.92.08c.46.02.82-.64.82-.64l-.07,1.64s-.31-.6-.55-.61l-3.41-.14v-.35s3.33-2.92,3.33-2.92l-2.41-.1Z"/>
      <path class="st0" d="M89.47,55.79l-.4,1.99s-.27-.66-.6-.72l-2.48-.49c-.31-.06-.82.44-.82.44l.4-1.99s.29.62.57.68l2.5.5c.33.06.82-.4.82-.4Z"/>
      <path class="st0" d="M85.35,66.54l.64-1.24-1.28-.65-.47.92c-.16.31.07.86.07.86l-1.13-.58s.56-.09.79-.53l.43-.83-1.02-.52c-.24-.13-.32-.11-.4.06l-.49.95c-.19.37.13,1.16.13,1.16l-.86-.52,1.75-3.42s0,.86.28,1l2.26,1.16c.31.16.92-.23.92-.23l-1.6,3.13-.85-.36s.69-.08.82-.35Z"/>
      <path class="st0" d="M78.77,71.58s-1.27-.08-1.62.28c-.3.3-.33.71-.08.97.68.67,2.09-.81,2.99.08.44.43.36,1.11-.17,1.65-.35.35-.73.5-.8.57-.03.03-.14.24-.14.24l-.82-.64s1.17.03,1.52-.32c.25-.25.3-.58.13-.75-.42-.41-1.24.26-2.25.27-.37,0-.64-.12-.85-.33-.47-.47-.42-1.26.11-1.8.36-.36.83-.55.91-.63.04-.04.05-.09.02-.17l.12-.12.94.7Z"/>
      <path class="st0" d="M77.43,76.68l-1.6,1.25s.22-.68.02-.94l-1.56-1.99c-.19-.25-.91-.2-.91-.2l1.6-1.25s-.19.66-.01.88l1.57,2.01c.2.26.88.23.88.23Z"/>
      <path class="st0" d="M59.97,84.52l-2.02.21s.55-.45.52-.78l-.26-2.51c-.03-.31-.66-.65-.66-.65l2.02-.21s-.51.46-.48.74l.26,2.54c.03.33.63.67.63.67Z"/>
      <path class="st0" d="M55.96,81.98s-.82-.97-1.33-.97c-.42,0-.74.26-.75.61-.01.95,2.03.95,2.02,2.21,0,.61-.55,1.03-1.31,1.02-.49,0-.87-.18-.97-.18-.04,0-.28.07-.28.07l-.11-1.03s.79.86,1.28.87c.36,0,.63-.18.63-.43,0-.59-1.05-.71-1.75-1.43-.26-.26-.36-.54-.35-.85,0-.66.61-1.18,1.37-1.17.51,0,.97.22,1.09.22.06,0,.3-.1.3-.1l.14,1.16Z"/>
      <path class="st0" d="M44.88,80.54l.25-.92c.5-.08,1.18-.09,1.71.05,1.56.42,2.07,1.5,1.75,2.68-.31,1.13-1.46,1.7-2.77,1.34-.63-.17-1.07-.52-1.28-.58-.09-.03-.36-.01-.36-.01l.31-1.13s.61,1.24,1.25,1.41c.87.24,1.66-.29,1.94-1.28.28-1.01-.15-1.93-1.01-2.17-.23-.06-.51-.07-.7-.02l-.23.85c-.14.55.59.83.59.83l-2.04-.56s.53-.22.61-.5Z"/>
      <path class="st0" d="M32.31,72.13l-.78.82,1.52,1.45.79-.83c.23-.24.08-.93.08-.93l1.48,1.41s-.69-.11-.91.12l-1.75,1.84c-.22.23-.07.92-.07.92l-1.48-1.41s.67.15.92-.11l.69-.72-1.52-1.45-.68.71c-.25.26-.1.92-.1.92l-1.48-1.41s.68.14.92-.11l1.74-1.83c.23-.24.07-.94.07-.94l1.48,1.41s-.68-.11-.92.14Z"/>
      <path class="st0" d="M21.36,56.34h0s2.27-.15,2.27-.15c.42-.03.8-.63.8-.63l.19,1.4s-.46-.45-.99-.42l-2.31.16c-.32.02-.67.52-.67.52l-.18-1.33,2.49-1.58-2.81-.83-.18-1.36s.34.45.79.36l2.31-.46c.53-.1.8-.67.8-.67l.26,1.99s-.33-.56-.74-.51c-.1.01-.2.03-.3.05l-2.22.44h0s3.39,1,3.39,1l.02.15-2.93,1.86Z"/>
      <path class="st0" d="M88.85,44.92c.44-.25.72-.78.72-.78l.2,2.2s-.49-.69-.85-.47l-1.73,1,2.1.96c.22.07.56-.6.56-.6l.14,1.61s-.47-.52-.99-.69l-3.27-1.44,3.12-1.79Z"/>
      <path class="st0" d="M87.87,59.29c.5-.07.96-.45.96-.45l-.65,2.11s-.19-.82-.61-.76l-1.98.27,1.58,1.68c.18.15.75-.34.75-.34l-.48,1.55s-.24-.66-.66-1.01l-2.48-2.57,3.57-.47Z"/>
      <path class="st0" d="M22.84,61.83c-.37.35-.51.92-.51.92l-.72-2.09s.64.55.94.26l1.44-1.38-2.27-.43c-.23-.01-.4.72-.4.72l-.53-1.53s.58.39,1.12.43l3.52.62-2.61,2.48Z"/>
      <path class="st0" d="M36.9,75.85c.19-.27-.17-1-.17-1l1.89,1.31s-.8-.08-1,.19l-1.76,2.57.62.43c.4.28,1.21-.08,1.21-.08l-.65.79-3.33-2.31.47-.92s-.05.88.35,1.16l.62.43,1.76-2.57Z"/>
      <path class="st0" d="M62.04,80.76c-.08-.32-.85-.55-.85-.55l2.24-.52s-.6.54-.52.87l.7,2.94.73-.17c.48-.11.75-.95.75-.95l.14,1.01-3.95.92-.37-.96s.62.63,1.1.52l.73-.17-.7-2.94Z"/>
      <path class="st0" d="M70.82,77.32c-.17-.29-.98-.27-.98-.27l1.98-1.16s-.42.69-.25.98l1.58,2.69.65-.38c.42-.25.44-1.13.44-1.13l.43.93-3.5,2.04-.63-.81s.78.42,1.2.17l.65-.38-1.58-2.69Z"/>
      <path class="st0" d="M86.66,43.02c0-.35.29-.62.63-.62.35,0,.62.29.62.63,0,.35-.29.62-.63.62-.35,0-.62-.29-.62-.63Z"/>
      <path class="st0" d="M50.19,82.4c0-.35.29-.62.63-.62.35,0,.62.29.62.63,0,.35-.29.62-.63.62-.35,0-.62-.29-.62-.63Z"/>
      <path class="st0" d="M21.42,49.7c0-.35.29-.62.63-.62.35,0,.62.29.62.63,0,.35-.29.62-.63.62-.35,0-.62-.29-.62-.63Z"/>
      <path class="st0" d="M27.03,31.79c-.78-.57-.97-1.36-.5-2.02.57-.78,1.64-.63,2.47-.03.71.52,1.09,1.3.57,2.02-.53.73-1.56.74-2.54.03ZM26.72,32.74c.87.63,2.13.49,2.99-.7.9-1.23.59-2.54-.33-3.2-.96-.7-2.2-.43-2.98.65-.84,1.15-.7,2.51.32,3.25Z"/>
      <path class="st0" d="M43.34,19.54l-1.26.4.06-1.85,1.2,1.46ZM44.14,19.03l1.12-.42c.46-.17,1.09.02,1.09.02l-.88-1.01s-.06.55-.39.68l-1.17.48-1.03-1.26,1.7-.57c.27-.1.96.15.96.15l-.73-.69-3.61,1.24s.46.12.38.74l-.05,2.72c-.05.48-.34.96-.34.96l1.37-.51s-.6-.25-.56-.55l.07-.78,1.51-.46.85,1.04,3.34-1.28-.71-.78s.25.57-.14.72l-1.78.69-.98-1.13Z"/>
      <path class="st0" d="M26.2,36.67c.29.14.94-.33.94-.33l-.94,2.02s-.04-.74-.37-.9l-2.28-1.06c-.28-.13-.94.27-.94.27.12-.3.21-.52.3-.77.13-.33.3-.76.4-.97.4-.85.72-1.26,1.14-1.42.28-.1.54-.09.79.03.44.2.64.68.53,1.29.5-.23,1.05-.22,1.65-.44.35-.13.92-.5.92-.5-.05.13-.08.19-.16.36-.33.72-.57.96-.97,1.11-.42.15-1.19.21-1.68.43l-.21.46.88.41ZM25.08,36.15l.1-.23c.33-.7.3-1.2-.32-1.49-.61-.29-1.05.08-1.31.64l-.14.3,1.66.77Z"/>
      <path class="st0" d="M23.87,41.57l.54.45c.24.19.78-.4.78-.4l-.5,1.67s-.16-.65-.49-.92l-3.05-2.58h0l4.01-.62c.4-.06.87-.43.87-.43l-.61,2.05s-.15-.77-.45-.72l-.71.12-.41,1.38ZM22.58,40.47l1.09.89.33-1.11-1.42.22Z"/>
      <path class="st0" d="M26.85,64.56c.29-.15.3-.95.3-.95l1.05,1.97s-.61-.42-.94-.24l-2.22,1.18c-.27.14-.35.91-.35.91-.17-.27-.29-.48-.43-.7-.19-.3-.42-.7-.53-.9-.44-.83-.57-1.33-.44-1.77.09-.28.26-.48.5-.61.43-.23.93-.1,1.35.35.11-.54.45-.97.64-1.58.11-.35.16-1.04.16-1.04.07.12.1.18.19.35.37.7.42,1.04.3,1.44-.13.43-.55,1.07-.67,1.6l.24.44.86-.45ZM25.78,65.1l-.12-.22c-.36-.68-.78-.96-1.38-.64-.6.32-.57.89-.28,1.43l.16.29,1.62-.86Z"/>
      <path class="st0" d="M26.55,70.48c-.79-1.07-.68-2.33.27-3.04.91-.68,2.25-.58,3.15.65.87,1.18.63,2.42-.23,3.06-1.01.75-2.35.47-3.2-.67ZM29.67,68.14c-.53-.71-1.39-.59-2.1-.07-.82.61-1.29,1.59-.71,2.37.48.65,1.3.7,2.07.13.98-.72,1.27-1.71.74-2.43Z"/>
      <path class="st0" d="M40.18,81.66c-1.21-.56-1.71-1.72-1.21-2.8.48-1.03,1.7-1.58,3.08-.94,1.33.62,1.71,1.83,1.26,2.8-.53,1.15-1.84,1.54-3.13.94ZM41.8,78.11c-.8-.37-1.5.15-1.87.94-.43.93-.37,2.01.51,2.42.73.34,1.48,0,1.88-.88.51-1.1.3-2.11-.52-2.49Z"/>
      <path class="st0" d="M80.83,68.2c-.26-.2-.99.13-.99.13l1.34-1.79s-.12.73.18.95l2.02,1.51c.24.18.97-.08.97-.08-.18.27-.31.47-.45.69-.19.3-.45.68-.59.86-.56.75-.96,1.09-1.41,1.15-.29.04-.55-.03-.77-.19-.39-.29-.48-.8-.26-1.37-.53.13-1.07,0-1.7.09-.37.05-1,.3-1,.3.08-.12.12-.17.23-.32.47-.63.76-.82,1.18-.88.45-.06,1.2.04,1.73-.07l.3-.4-.78-.58ZM81.8,68.96l-.15.2c-.46.62-.54,1.12,0,1.53.54.41,1.04.14,1.42-.36l.2-.27-1.47-1.1Z"/>
      <path class="st0" d="M68.04,79.33l.02-.7c0-.31-.8-.36-.8-.36l1.62-.64s-.41.53-.42.95l-.15,3.99h0l-2.97-2.77c-.3-.28-.88-.42-.88-.42l1.99-.79s-.51.59-.28.8l.53.48,1.34-.53ZM67.97,81.02l.03-1.41-1.08.43,1.05.98Z"/>
      <path class="st0" d="M55.4,24.03c-.17-.46-.63-.81-.63-.81l2.14.15s-.73.37-.58.74l.69,1.81,1.24-1.87c.1-.2-.49-.63-.49-.63l1.57.11s-.57.37-.81.85l-1.88,2.92-1.24-3.27Z"/>
      <path class="st0" d="M37.79,30.59c-.44-.22-1.01-.17-1.01-.17l1.69-1.33s-.3.76.07.94l1.73.88-.34-2.21c-.06-.22-.79-.14-.79-.14l1.23-.97s-.17.66-.03,1.17l.57,3.43-3.12-1.59Z"/>
      <path class="st0" d="M70.84,29.41c.15-.47,0-1.03,0-1.03l1.59,1.44s-.8-.17-.92.22l-.6,1.96,2.14-.81c.21-.1,0-.8,0-.8l1.16,1.06s-.68-.06-1.16.16l-3.29,1.12,1.05-3.33Z"/>
      <path class="st0" d="M44.56,29c.14.29.92.35.92.35l-2.02.95s.46-.63.32-.93l-1.3-2.74-.66.31c-.43.2-.52,1.05-.52,1.05l-.34-.93,3.56-1.67.54.84s-.71-.47-1.15-.27l-.66.31,1.3,2.74Z"/>
      <path class="st0" d="M60.74,24.7h-.01s-.77,2.07-.77,2.07c-.14.38.24.96.24.96l-1.32-.4s.59-.22.76-.71l.78-2.11c.11-.3-.19-.8-.19-.8l1.25.38.4,2.84,1.86-2.15,1.27.38s-.53.12-.63.55l-.52,2.23c-.12.51.27.98.27.98l-1.87-.56s.63-.06.74-.45c.03-.09.05-.19.07-.28l.5-2.15h-.01s-2.23,2.59-2.23,2.59l-.14-.04-.47-3.34Z"/>
      <path class="st0" d="M76,34.12l-.83-1.07-1.1.86.62.79c.21.27.79.29.79.29l-.97.76s.15-.53-.14-.91l-.56-.72-.88.69c-.21.16-.22.24-.11.38l.64.82c.25.32,1.08.36,1.08.36l-.81.54-2.29-2.94s.76.34,1,.16l1.95-1.52c.26-.21.18-.9.18-.9l2.1,2.69-.67.6s.21-.64.03-.87Z"/>
      <path class="st0" d="M51.82,26.68c.03.31.74.62.74.62l-2.16.22s.6-.4.56-.76l-.25-2.43c-.03-.3-.7-.64-.7-.64.31-.05.54-.09.79-.13.34-.06.78-.13,1.01-.15.91-.09,1.41-.03,1.75.25.22.18.34.41.37.67.05.47-.25.87-.81,1.09.44.3.71.76,1.19,1.15.28.23.88.52.88.52-.13.02-.2.03-.38.05-.76.08-1.09,0-1.41-.26-.34-.28-.76-.89-1.19-1.18l-.49.05.1.94ZM51.71,25.49l.24-.02c.75-.08,1.15-.35,1.08-1.01-.07-.65-.59-.83-1.19-.77l-.32.03.18,1.77Z"/>
      <path class="st0" d="M32.06,36.21c.18-.28.39-.6.53-.84.16-.26.29-.46.46-.71.71-1.01,1.18-1.4,1.81-1.51.46-.08.93.02,1.36.32.46.32.72.81.8,1.27.08.44.04,1.04-.69,2.08l-1.14,1.61s.07-.66-.22-.86l-1.95-1.38c-.36-.25-.97.02-.97.02ZM35.45,36.85c.34.24.42.22.7-.17.8-1.14.23-1.98-.37-2.41-.42-.3-.9-.42-1.29-.35-.42.07-.78.33-1.14.85-.1.14-.17.25-.25.41l2.36,1.67Z"/>
      <path class="st0" d="M32.5,41.48l.48.49c.21.21.79-.31.79-.31l-.65,1.57s-.09-.64-.38-.93l-2.69-2.8h0l3.94-.2c.39-.02.89-.33.89-.33l-.79,1.92s-.07-.76-.37-.74l-.69.04-.53,1.3ZM31.37,40.29l.96.97.43-1.04-1.39.07Z"/>
      <g>
        <path class="st0" d="M68.45,26.71c1.14.62,1.55,1.77,1,2.79-.53.97-1.74,1.42-3.04.71-1.25-.68-1.54-1.88-1.04-2.79.59-1.08,1.88-1.37,3.09-.71ZM66.66,30.05c.76.41,1.46-.05,1.87-.8.48-.87.49-1.93-.34-2.38-.69-.38-1.43-.09-1.88.73-.57,1.04-.42,2.03.34,2.45Z"/>
        <path class="st0" d="M68.56,33.07c-1.3-1.07-.86-.91-1.22-2.04-.36-1.13-.11-2.73-.37-2.91-.25-.18.57-.24.84,2.17s.74,2.77.74,2.77Z"/>
      </g>
      <path class="st0" d="M36.16,81.93c-10.97-6.48-18.35-18.43-18.35-32.07,0-20.52,16.69-37.22,37.22-37.22s37.22,16.69,37.22,37.22-16.69,37.22-37.22,37.22c-6.79,0-13.16-1.83-18.65-5.02l-.6-.33-.43.61.61.4c5.61,3.26,12.12,5.14,19.07,5.14,20.96,0,38.02-17.05,38.02-38.02S75.99,11.84,55.03,11.84,17.01,28.89,17.01,49.86c0,13.93,7.53,26.13,18.73,32.75l.46.23.36-.65-.41-.27Z"/>
      <path class="st0" d="M40.13,74.03c-8.08-5-13.5-13.99-13.5-24.17,0-13.19,9.09-24.34,21.3-27.5l.22-.65c-12.67,3.1-22.1,14.54-22.1,28.15,0,10.41,5.51,19.55,13.77,24.66l.44.24.26-.46-.4-.27Z"/>
      <path class="st0" d="M40.09,74.68c4.36,2.64,9.48,4.15,14.94,4.15,15.98,0,28.98-13,28.98-28.98s-13-28.98-28.98-28.98c-1.85,0-3.66.17-5.42.51l-.09.61c1.78-.35,3.63-.54,5.52-.54,15.64,0,28.4,12.76,28.4,28.4s-12.76,28.36-28.4,28.36c-5.37,0-10.39-1.5-14.67-4.1l-.44-.25-.44.39.61.43Z"/>
      <g>
        <path class="st0" d="M54.74,18.67c-.26-.01-.52-.09-.76-.22-.23-.13-.41-.31-.55-.51"/>
        <path class="st0" d="M55.16,16.35l.97-.94c.2.16.37.37.48.63.11.24.15.49.14.74l-1.35.11,1.21.64c-.09.24-.24.47-.45.65-.2.18-.42.3-.66.37l-.54-1.25-.24,1.37c-.26-.01-.52-.09-.76-.22-.23-.13-.41-.31-.55-.51l1.03-.92-1.31.21c-.07-.25-.08-.52-.02-.79.05-.26.17-.49.32-.68l1.13.68-.59-1.13c.22-.14.47-.24.75-.27.26-.03.52,0,.75.09l-.31,1.23Z"/>
      </g>
      <g>
        <g>
          <path class="st0" d="M66.43,43.36,68.98,42c-.25,0-.59-.23-.69-.53-.1-.31.18-.5.18-.5,0,.01.02.02.03.03.02.02.03.04.03.04h0c.06.03.14,0,.22,0,.18,0,.21-.07.2-.24s-.15-.31-.31-.26c-.15.04-.39.08-.51-.01-.05-.03-.06-.18-.02-.3.01-.07.08-.22.08-.26,0-.11-.14-.19-.26-.18-.12,0-.23.1-.23.21,0,.16.11.22.17.3.1.12.07.21.03.27-.03.04-.33.15-.33.15h0s-.05,0-.07,0c-.18,0-.3.09-.29.25,0,.16.1.27.28.27.11,0,.21-.06.26-.15,0,0,.26.2.22.45-.03.25-.05.45-.52.6-.38.12-.62-.11-.62-.11,0,0-.11.33-.46.29-.53-.06-.62-.7-.62-.7,0,0,.22,0,.33-.28.09-.24-.07-.39-.33-.42-.16-.02-.36.22-.57.13-.22-.09.11-.52-.17-.68-.26-.15-.41.19-.41.19,0,0,.4.42.93,1.17.42.61,1.01,1.33,1.01,1.33l-.3.2s-.41-.63-1.05-1.5c-.55-.74-.98-1.2-.98-1.2,0,0-.02-.06.14-.22.19-.2.49-.48.85-.31.36.16.18.72.18.72,0,0,.19-.21.51-.17.35.05.65.37.6.67-.08.43-.34.54-.34.54,0,0-.04.17.29.13.2-.02.33-.32.33-.32.01,0,.5.44.76.1.02-.03.04-.07.06-.11-.04,0-.08.02-.13.02-.33,0-.6-.27-.61-.6,0-.34.26-.61.59-.62.12,0,.04,0,.2.02h0c-.13-.07-.3-.21-.3-.46,0-.28.3-.57.57-.57s.63.25.63.53c0,.18-.1.32-.17.4h0c.07-.08.19-.12.36-.13.33,0,.6.27.61.6,0,.34-.26.61-.59.62-.03,0-.05,0-.08,0,0,0,0,.01.01.01.12.1.26.14.39.17.4.07.45-.24.45-.24,0,0,.2.18.39.12.31-.1.25-.3.25-.3,0,0-.29.04-.54-.32-.17-.25-.16-.54.14-.72.27-.17.64-.07.64-.07,0,0-.34-.4-.08-.69.26-.29.63-.16.89-.06.2.08.33.15.33.15,0,0-.27.46-.47,1.36-.26,1.17-.41,1.8-.41,1.8l-.32-.09s.18-1.01.36-1.76c.2-.83.4-1.11.4-1.11,0,0-.32-.28-.5-.04-.19.26.25.47.09.64-.16.17-.45,0-.58.08-.22.14-.2.23-.07.41.13.19.4.11.4.11,0,0,.21.64-.25.91-.3.18-.58-.05-.58-.05,0,0-.09.29-.64.28Z"/>
          <path class="st0" d="M66.18,43.12c-.04-.32.94-.69,2.19-.83,1.25-.14,2.29,0,2.32.33.04.32-.94.69-2.19.83-1.25.14-2.29,0-2.32-.33ZM68.27,43.14c.76-.08,1.26-.22,1.23-.42-.02-.13-.64-.17-1.4-.09-.76.08-1.36.25-1.34.38.02.13.76.21,1.51.13Z"/>
        </g>
        <g>
          <path class="st0" d="M74.19,42.24,76.74,40.88c-.25,0-.59-.23-.69-.53-.1-.31.18-.5.18-.5,0,.01.02.02.03.03.02.02.03.04.03.04h0c.06.03.14,0,.22,0,.18,0,.21-.07.2-.24,0-.16-.15-.31-.31-.26-.15.04-.39.08-.51-.01-.05-.03-.06-.18-.02-.3.01-.07.08-.22.08-.26,0-.11-.14-.19-.26-.18-.12,0-.23.1-.23.21,0,.16.11.22.17.3.1.12.07.21.03.27-.03.04-.33.15-.33.15h0s-.05,0-.07,0c-.18,0-.3.09-.29.25s.1.27.28.27c.11,0,.21-.06.26-.15,0,0,.26.2.22.45-.03.25-.05.45-.52.6-.38.12-.62-.11-.62-.11,0,0-.11.33-.46.29-.53-.06-.62-.7-.62-.7,0,0,.22,0,.33-.28.09-.24-.07-.39-.33-.42-.16-.02-.35.22-.57.13-.22-.09.11-.52-.17-.68-.26-.15-.41.19-.41.19,0,0,.4.42.93,1.17.42.61,1.01,1.33,1.01,1.33l-.3.2s-.41-.63-1.05-1.5c-.55-.74-.98-1.2-.98-1.2,0,0-.02-.06.14-.22.19-.2.49-.48.85-.31.36.16.18.72.18.72,0,0,.19-.21.51-.17.35.05.65.37.6.67-.08.43-.34.54-.34.54,0,0-.04.17.29.13.2-.02.33-.32.33-.32.01,0,.5.44.76.1.02-.03.04-.07.06-.11-.04,0-.08.02-.13.02-.33,0-.6-.27-.61-.6,0-.34.26-.61.59-.62.12,0,.04,0,.2.02h0c-.13-.07-.3-.21-.3-.46,0-.28.3-.57.57-.57.28,0,.63.25.63.53,0,.18-.1.32-.17.4h0c.07-.08.19-.12.36-.13.33,0,.6.27.61.6,0,.34-.26.61-.59.62-.03,0-.05,0-.08,0,0,0,0,.01.01.01.12.1.26.14.39.17.4.07.45-.24.45-.24,0,0,.2.18.39.12.31-.1.25-.3.25-.3,0,0-.29.04-.54-.32-.17-.25-.16-.54.14-.72.27-.17.64-.07.64-.07,0,0-.34-.4-.08-.69.26-.29.63-.16.89-.06.2.08.33.15.33.15,0,0-.27.46-.47,1.36-.26,1.17-.41,1.8-.41,1.8l-.32-.09s.18-1.01.36-1.76c.2-.83.4-1.11.4-1.11,0,0-.32-.28-.5-.04-.19.26.25.47.09.64-.16.17-.45,0-.58.08-.22.14-.2.23-.07.41.13.19.4.11.4.11,0,0,.21.64-.25.91-.3.18-.58-.05-.58-.05,0,0-.09.29-.64.28Z"/>
          <path class="st0" d="M73.94,42c-.04-.32.94-.69,2.19-.83,1.25-.14,2.29,0,2.32.33.04.32-.94.69-2.19.83-1.25.14-2.29,0-2.32-.33ZM76.03,42.02c.76-.08,1.26-.22,1.23-.42-.02-.13-.64-.17-1.4-.09-.76.08-1.36.25-1.34.38.02.13.76.21,1.51.13Z"/>
        </g>
        <g>
          <path class="st0" d="M70.98,47.53,73.53,46.18c-.25,0-.59-.23-.69-.53-.1-.31.18-.5.18-.5,0,.01.02.02.03.03.02.02.03.04.03.04h0c.06.03.14,0,.22,0,.18,0,.21-.08.2-.24,0-.16-.15-.31-.31-.26-.15.04-.39.08-.51-.01-.05-.03-.06-.18-.02-.3.01-.07.08-.22.08-.26,0-.11-.14-.19-.26-.18-.12,0-.23.1-.23.21,0,.16.11.22.17.3.1.12.07.21.03.27-.03.04-.33.15-.33.15h0s-.05,0-.07,0c-.18,0-.3.09-.29.25,0,.16.1.27.28.27.11,0,.21-.06.26-.15,0,0,.26.2.22.45-.03.25-.05.45-.52.6-.38.12-.62-.11-.62-.11,0,0-.11.33-.46.29-.53-.06-.62-.7-.62-.7,0,0,.22,0,.33-.28.09-.24-.07-.39-.33-.42-.16-.02-.35.22-.57.13-.22-.09.11-.52-.17-.68-.26-.15-.41.19-.41.19,0,0,.4.42.93,1.17.42.61,1.01,1.33,1.01,1.33l-.3.2s-.41-.63-1.05-1.5c-.55-.74-.98-1.2-.98-1.2,0,0-.02-.06.14-.22.19-.2.49-.48.85-.31.36.16.18.72.18.72,0,0,.19-.21.51-.17.35.05.65.37.6.67-.08.43-.34.54-.34.54,0,0-.04.17.29.13.2-.02.33-.32.33-.32.01,0,.5.44.76.1.02-.03.04-.07.06-.11-.04,0-.08.02-.13.02-.33,0-.6-.27-.61-.6,0-.34.26-.61.59-.62.12,0,.04,0,.2.02h0c-.13-.07-.3-.21-.3-.46,0-.28.3-.57.57-.57.28,0,.63.25.63.53,0,.18-.1.32-.17.4h0c.07-.08.19-.12.36-.13.33,0,.6.27.61.6,0,.34-.26.61-.59.62-.03,0-.05,0-.08,0,0,0,0,.01.01.01.12.1.26.14.39.17.4.07.45-.24.45-.24,0,0,.2.18.39.12.31-.1.25-.3.25-.3,0,0-.29.04-.54-.32-.17-.25-.16-.54.14-.72.27-.17.64-.07.64-.07,0,0-.34-.4-.08-.69.26-.29.63-.16.89-.06.2.08.33.15.33.15,0,0-.27.46-.47,1.36-.26,1.17-.41,1.8-.41,1.8l-.32-.09s.18-1.01.36-1.76c.2-.83.4-1.11.4-1.11,0,0-.32-.28-.5-.04-.19.26.25.47.09.64-.16.17-.45,0-.58.08-.22.14-.2.23-.07.41.13.19.4.11.4.11,0,0,.21.64-.25.91-.3.18-.58-.05-.58-.05,0,0-.09.29-.64.28Z"/>
          <path class="st0" d="M70.73,47.3c-.04-.32.94-.69,2.19-.83,1.25-.14,2.29,0,2.32.33.04.32-.94.69-2.19.83-1.25.14-2.29,0-2.32-.33ZM72.82,47.32c.76-.08,1.26-.22,1.23-.42-.02-.13-.64-.17-1.4-.09-.76.08-1.36.25-1.34.38.02.13.76.21,1.51.13Z"/>
        </g>
      </g>
      <path class="st0" d="M57.59,39.38c-1.01,1.12-.35,2.73-.58,4.15-.4,1.16-1.62,1.89-1.98,3.07-.09.68-.17,1.64.31,2.14.03-.09-.06-.14-.08-.21-.2-1.39.24-2.39,1.45-3.57,1.85-2.09-.31-3.77,1.44-5.35l-.56-.23Z"/>
      <path class="st0" d="M61.9,52.55c.84-.02,1.4-.13,2.23-.35.82-.25,1.47-.48,2.23-.74,1.63-.5,2.54-.89,4.25-.92h.21c.48,0,.92.08,1.35.22.22.07.5.27.73.4,1.09.94,1.16,1.47,2.53,2.32.62.23,1.2.89,1.69,1.02-.2-.19-.42-.29-.85-.74-.65-.57-1.75-2.01-2.95-2.91-.66-.38-1.36-.61-2.13-.68-1.5-.25-3.22.18-4.5.7-1.37.45-1.85.54-3.31.77-.53.11-.92.05-1.38-.07-.18-1.48-.71-1.19-.52-2.93.57-2.08.35-3.87-.36-5.5.16-.58.21-1.42-.27-1.89-.41-.4-1.5-.5-1.72.23.12.57.87.22,1.24.48.43.11.4.64.33.92-.1.85-1.08,1.28-1.72,1.44.25.49,1.23.17,1.54-.12.36.78.55.88.69,1.85.08,1.68-.4,1.61-1.04,2.69-.29.58-.27,1.32.18,2.48-.12-1.76.11-1.86.6-2.65,0,0-.18.72-.16,1.41.02.82.45,1.05.48,1.79-.14.65-.15.87-.57,1.39-.77,1.01-2.13.9-2.67,3.48,1-1.48,1.23-1.86,2.16-2.39,1.25-.53,1.44-.94,1.72-1.69Z"/>
      <path class="st0" d="M52.43,44.02c.46.33.56.73.95,1.09-.18-.05-1.28-.86-1.87-.63-.84.08-1.96.83-2.7.05-.5-.21-.84-1.07-.93-1.59.47.79,1.3,1.6,2.37,1.39.56-.12.87-.2,1.35-.17.25,0,.63.03.94.3-.36-.36-.81-.62-1.36-.62-1.24.03-2.53.58-3.3-.9.72.56,2.19.61,3.42.59.41.05.84.18,1.12.48ZM50.52,41.92c-.08.2-.31.46-.16.65l.35-.44c-.07-.07-.15-.12-.18-.21ZM51.31,42.42c.13.14.19.3.23.46.16.03.21-.24.33-.26l-.56-.2ZM51.54,43.38c-.12-.36-.22-.71-.6-.79-.38-.21-.73.76-.86-.01-.16-.44.36-.78-.13-1.15-.4-.62.19-.76.02-1.42-.03-.48-.11-1.11.56-1.15,1.02-.24,2.05-.25,3.02.05.28-.25.36-.38.4-.54,0,0,.45-.05.75.07.3.12.64.31.64.31-.29.04-.79.09-.76.49.19.47.64-.19,1.85.59.09.1.27.17.31.47-.57-.26-.87-.17-1.34-.38-.38-.12-.49-.13-.87-.07-.14.03-.74.45-.72.15,0,0,0-.15-.08-.47-.09-.29-.22-.26-.48-.35-1.23-.31-1.86-.21-2.55-.09-.26.07-.39.45-.27.75.23.47.32.39.57.38.21-.12.33-.43.69-.46.27.02.48,0,.56.29v.16c-.09-.21-.38-.12-.52-.05-.07.07-.12.13-.07.21.09.16.2.08.35.12-.13.22-.72.29-1.11.24-.14-.02-.15.19-.22.23-.14.18-.05.35,0,.55.59.71,1.59.77,2.36,1.27.2.1.36.45.42.61-.36-.17-.45.39-.45.5l.16-.1c.12-.04.43-.2.45-.22.2.19.13.5.19.75.08-.22.03-.45.16-.71.26.91.79,2.54-.55,4.63-.69,1.41-.6,1.7-.53,3.6-.93-1.97-.23-2.96-.03-4.18.01-.11.01-.27-.13-.37.05.52-.07.86-.46,1.4-.64.79-.74,1.85-.38,2.62.3.88.55,1.23.44,2.14-.14.88-.37,1.41-.05,2.57h0c-.71-1.4-.49-1.86-.45-2.68.03-.68-.12-1.36-.53-1.89l.24.21c-.24,1.62-2.45,1.78-1.63,3.96.28.49.91,1.45.95,1.91-.47-.79-1.04-.85-1.44-1.7-1.06-.2-1.91.57-2.94.89-.59.17-1.2.45-2.2-.42,1.87.69,3.17-.54,4.36-1,.68-.3.4-.79.49-1.21.22-1.28,1.43-1.23,1.79-2.46.03-1.04-.13-1.67.19-2.35.32-.69.81-.5.88-1.37.3-1.01-1.2-1.11-.91-2.36.18.23.51.39.8.53.51.25,1.08.67,1.44,1.07-.04-.2-.43-.81-.63-.97l-.51-.39c.05-.2.29-.31.48-.45-.06.58.65.84.93,1.2.19-.79-.03-1.65-.22-2.36,0,0-.27-.04-.43.19-.23-.54-.07-.82,0-1.22,0-.21-.18-.08-.29-.06-.19.11-.27.17-.27.17l-.28-.48c-.23.1-.49.37-.55.6"/>
      <path class="st0" d="M60.14,42.52c.06.25-.06.52-.2.74-.09.15-.25.17-.37.23.01-.22.47-.46.2-.74l-.49-.38c.19-.2.75-.22.87.16Z"/>
      <path class="st0" d="M52.04,45.67c-.13.02-.23.02-.35-.07-.45-.2.05-.39.08-.62.17.16.14.48.27.69Z"/>
      <path class="st0" d="M53.9,50.72c.02.91-.06,1.56-.24,2.1-.19.56-.23.7-.66,1.39.35-.85.47-1.48.59-2.46.09-.86.06-2.12.41-2.82l.3-.84c-.36,1.42-.36,2.05-.39,2.64Z"/>
      <path class="st0" d="M42.8,60.26c.22-.28.36-.21.49-.25.16.16.11.34.35.46.35.17.85-.18,1.09-.34,0,0,.68.44,1.06.44s.53-.39.88-.39.56.44.56.44c0,0,.35-.03,2.22-.33,1.85-.3,1.41.9,1.41.9,0,0,.7.15,1.46-.67.56-.61,1.14-1.44,1.3-2.25.16-.81.19-3.87.19-3.87,0,0-.51,1.37-.58,2.16-.07.79-.21,1.74-.9,2.74-.15.22-.74.47-.74.47.06.01-.2-.46-.42-.63-.32-.25-.6-.28-.6-.28,0,0-1.37.93-1.88.9-.51-.04.04-.9.04-.9,0,0-1.55.58-2.34.81-.79.23-.94-.17-.94-.17-.39.14-1.21.49-1.69.32-.44-.25-.65-.49-.84-.22l-.45.49c-.44-1,.73-1.37,1.06-1.72l-.74-.08c-.31-.11-.45-.43-.39-.67-.41.01-.8.22-1.12.27.06-.83,1.07-.47,1.47-1,.1-.14.39-.27.7-.09,0,0-.92-.58-.85-.84.24-.88,1.73.45,2.07.64-.11-.17-.24-.25-.37-.46-.62-1.35-2.23-1.11-2.8.03.08.13.59-.29.65.07.11.18.24.36.29.42-.34.19-.68.22-.93.33-.96.34-.99,1.62-.99,1.62,0,0,.97-.18,1.29-.31.04-.01.09-.03.13-.05.15.5.61.16.07,1.11-.29.5.25,1.44.25,1.44,0,0,.33-.15.54-.51Z"/>
      <path class="st0" d="M55.72,53.12c-.24.38-1.1,1.96-1.19,3.38-.29-1.28.03-2.32,1.04-4.05,1.45-2.14.69-4.22.78-4.87,1.13,3.9-.2,4.81-.63,5.54Z"/>
      <path class="st0" d="M51.07,55.34c.05.29.21.72.5,1.29.21.36.47,1.03.21,2.35-.29-1.82-.47-1.85-.78-2.51-.26-.5-.48-1.31-.32-2,.03-.21.33-.75.5-.87-.22.39-.27,1.22-.11,1.74Z"/>
      <path class="st0" d="M55.09,57.78c-.5.74-.88,1.21-1.17,1.46.26-2.07,1.56-2.37,2.11-4.91,0,.96-.43,2.82-.94,3.44Z"/>
      <path class="st0" d="M63.77,60.67c.27.07.55.15.75.25-.33-.12-1.02-.23-1.25-.25-.17.02-.29,0-.41-.01-.95-.06-2.03-.33-2.76-.06-1.2.5-2.5,1.48-2.74,2.16-.63,1.34-2.22.23-3.27,1.5-.28-.3.12-.77.72-1.14.44-.23,1.54.1,1.96-.4.25-.26-.33-.89-1.05-.59-.95.37-.95.85-1.5,1.16.04-.66.67-1.53,1.57-1.61.48-.12.94.15,1.47.05.56-.37.88-.56,1.68-.96.49-.26.88-.33,1.48-.42,1.18-.12,2.23.2,3.35.33Z"/>
      <path class="st0" d="M52.46,45.88s-.11-.01-.36-.09c-.28-.09-.6-.24-.65-.25-.14-.04-.21-.07-.21-.07,0,0,.06-.09.15-.09.09,0,.44.08.74.22.3.14.46.27.46.27l-.12.02Z"/>
      <path class="st0" d="M60.53,40.45s-.04.12.05.35c.09.23.16.4.16.4,0,0-1.13.04-1.04-.12.09-.16.18-.3.12-.4-.05-.11-.19-.3-.19-.3l.9.07Z"/>
      <path class="st0" d="M53.97,43.61c-.13-.37-.23-.58-.98-.98-.76-.4-1.37-.53-1.64-.63-.26-.11-.69-.23-.63-.19.05.04,1.51.86,1.79.98.28.12.69.28.83.42.14.14.18.14.25.33.07.19,0,.44.12.69.12.25.23.25.23.25,0,0,.19-.4.04-.86Z"/>
      <path class="st0" d="M51.97,40.94c.42,0,.64.03.96.14.32.11.43.61.65.89,0,0-.78-.84-1.4-.81-.11,0-.41-.22-.21-.22Z"/>
      <path class="st0" d="M51.58,41.39c.23-.06.39.01.6.08.2.07.3.24.49.5l-.18-.09s.04,0-.23-.14c-.3-.16-.4-.14-.51-.2-.12-.06-.27-.13-.16-.15Z"/>
      <path class="st0" d="M58.51,40.41s-.5.45-.55,1.24c-.05.79.13,1.74.26,2.64.13.9.03,1.56-.34,2.19-.28.48-.53,1.16-.5,1.87.03.87.69,1.72.69,1.72,0,0-.56-1.1-.35-2.13s.82-1.64.9-2.37c.08-.74-.03-1.46-.23-2.33-.29-1.27-.29-2.08.13-2.82Z"/>
      <path class="st0" d="M57.57,53.25s.56-.9.58-1.71c.02-.81-.51-1.62-.67-2.46-.16-.84-.19-.98-.02-1.6.18-.62.7-.93.7-.93,0,0-.42.81-.44,1.32-.02.51-.07.82.25,1.78.32.96.65,1.9.42,2.58-.23.69-.54,1.05-.77,1.35-.23.3-.37.32-.05-.33Z"/>
      <path class="st0" d="M56.04,59.4c-.12.09-.26.18-.43.29-.14.09-.37.13-.37.13,0,0,.21-.24.7-.94.79-1.18.75-2.41,1.02-3.64.22-.9.95-1.95,1.21-2.43.26-.47.1-2,.1-2-.05,2.58-1.42,2.48-1.77,4.52-.1,1.14-.49,2.34-1.41,3.47-.7.96-1.96,1.98-3.21,2.47,1.44.28,2.43-.12,3.69-.18.3,0,.88.02,1.27.11h0c.26.12.35-.19,1.13-.6.56-.28.98-.47,1.48-.62.68-.17,1.23-.31,1.73-.23-.1-.06,2.05-.09,1.74-.29-.12-.48-.88-.05-.65-.33-.77.37-.91.1-1.83.28,0,0-.74.09-1.32.08,0,0-.38-.01-.65-.13-.51-.23-.46-.7-.46-.7,0-.26,0-.43.04-.77.04-.33-.07-.91-.07-.91,0,0-.78,1.75-1.93,2.44Z"/>
      <path class="st0" d="M73.25,53.89s-1.11-1.29-2.29-1.58c-1.19-.29-3.4.05-4.75.74-1.34.69-1.87,1.66-2.58,2.93,0,0-.32.45-.49.97-.23.69-.25.98.15,1.17.2.1,1.16-.37,1.16-.37-.22-.31-1.01-.15-1.01-.15,0,0,.38-.51.77-.72.4-.21.92-.11.92-.11l-.45-.32s-.03-.32.42-1.32c.45-1,.9-1.79,2.64-2.24,1.74-.45,2.61-.55,3.67-.05,1.05.5,1.85,1.05,1.85,1.05Z"/>
      <path class="st0" d="M72.15,60.62s-.56-.35-1.23-.62c-.59-.23-1.39-.48-1.39-.48,0,0,1.9-.33,2.95-.57.66-.15.97-.24,1.37-.44.42-.21.58-.42.58-.42,0,0,.24-.11.58-1.02.27-.73-.11-2.02.05-2.23.32-.42,2.38.12,3.27,1.51.66,1.03.08,2.72.08,2.72,0,0,.59-.23.66-1.77.08-1.79-1.97-2.8-1.97-2.8,0,0,1.24.25,2.02,1.55.77,1.3.3,2.9-.79,4.31-1.09,1.41-3.53,1.37-4.52,1.16,0,0,.49.56.6,1,.23.95-.09,1.49-.46,1.71-.32.18-2.09.3-2.65.32-.56.02-.79,0-1.62.07-.83.07-1.72-.11-2.11-.11-.21,0-.39.07-.91.19-.82.19-.81-.02-.81-.02,0,0,.14-.4-.91-.25-.73.11-1.3.11-1.3.11,0,0-.58.35-1.62.16-1.04-.19-1.13-.84-1.13-.84,0,0,.79.37,1.63.35.84-.02,1.27-.49,1.27-.49,0,0,.22.34,1.07.05.47-.16.69-.33.69-.33,0,0,1.66.1,1.83.12.58.07,1.85.18,1.85.18,0,0,.14,0,1.2.07.72.05,1.28.1,1.32-.09.04-.17-.53-.39-.53-.39,0,0,1,.13,1.49.15.36.01.67-.05.86-.18.19-.12.23-.7.02-.93-.27-.3-.18-.27-.55-.45-.9-.42-.76-.61-.76-.61,0,0-.25-.34.32-.08.29.13-.05-.37-.05-.37,0,0-.13-.13-.39-.24ZM75.96,55.68s.12,1.88-.42,2.76c-.54.88-1.86,1.95-1.86,1.95,1.44.56,4.04-.21,4.47-1.65.4-1.38-.22-2.58-.84-2.95-.72-.44-1.34-.11-1.34-.11Z"/>
      <path class="st0" d="M68.18,59.06s.16.08.47.16c.23.06,1.27.45,1.27.45,0,0,.42.05.65-.19.34-.36-.91.03-.85-.37.02-.12-.22-.28-.22-.28,0,0-.37-.08-.66-.05-.58.05-.66.29-.66.29Z"/>
      <path class="st0" d="M59.26,59.51s1.02-.04,2.04-.32c1.02-.28,1.21-.53,1.66-.66.34-.1,1.02-.06,1.02-.06,0,0-.19.07-.24.35-.05.28.05.49.05.49,0,0,.37-.14.65-.09.28.05.36.23.36.23,0,0-.29.46.1.58.39.12.87.12,1.67.4.8.27,1.28.35,1.9.47.62.12,1.29.34,1.29.34,0,0,.1.09-.13.21-.23.12.61.37.61.37,0,0,.08.05-.5,0-.49-.04-.56-.02-1.18-.14-.95-.19-1.25-.19-1.25-.19,0,0-.39-.07-.88-.09-.26,0-1.14-.05-2.06-.16-.91-.11-1.62-.26-2.13-.46-.51-.19-1.13,0-1.13,0,0,0-.23-.25-.7-.05-.47.19-.68.69-.68.69,0,0,.24-.13.48-.13s.4.07.4.07c0,0,.14.26-.09.47-.23.21-.63.39-.63.39,0,0-.02-.12-.98-.12s-1.07-.14-1.41.33c-.33.47-.18-.77-.18-.77,0,0,.23-.37,1.53-.98,1.3-.62,2.34-.54,2.83-.56.49-.02,1.13.04,1.76.14.4.07,1.41.42,1.41.42,0,0-.47-.41-1.37-.74-.77-.28-2.85-.26-3.87-.04-1.02.23-1.41.02-1.3-.14.11-.16.93-.26.93-.26Z"/>
      <path class="st0" d="M59.79,61.41s.46-.18.77-.05c.12.05.18.07.26.18.09.11.3.28.3.28,0,0-1.11.09-.88.62.23.53.83.44.83.44,0,0-.32.14-.4.47-.09.33.23.51.23.51l.9.35-.54.19s-.37-.16-.46.07c-.09.23-.12.46-.12.46,0,0-.37-.37-.42-.87-.05-.49.32-.86.32-.86,0,0-.28-.24-.51.02-.23.26-.28.55-.28.55,0,0-.39-.36-.46-.85-.07-.49.32-.84.32-.84l.16-.67Z"/>
      <path class="st0" d="M51.67,49.44c-.29,1.93-.98,2.8-1.16,3.45,0,0-.16-.36-.55-.62-.37-.24-1,.14-1,.14,0,0-.58-.76-1.9-1.31-1.08-.45-.95.48-.95.48,0,0-.88-.97-1.23-1.35-.46-.5-.93-.29-1.35-.16-.42.13-1.66-.05-1.66-.05,0,0-.95-.08-.95-.98,0-.63.69-.87.69-.87,0,0-.58-.34-.53-1,.05-.66.76-.63.76-.63,0,0-.53-.42-.5-.76.03-.34.58-.9.98-.95.4-.05,1.8.71,2.45.87.59.15.32.91,1.38,1.34.45.18,1.23.37,2.21.37s1.32.37,2.43.63c1.11.26,1.21-.18,1.21-.18,0,0-.21.89-.32,1.58ZM42.84,45.14c-.36-.15-.61-.09-.91.15-.1.2-.1.61.14.69.75.13.64-.48,1.4-.4-.22-.1-.44-.26-.62-.45ZM42.07,48.29c-.28.07-.7.44-.64.88h0c.14.38.23.48.69.54.22-.05.4-.09.41-.25h0s-.11-.1-.02-.18c.28-.25.54-.19.79-.19-.37-.37-.55-.36-.72-.47-.46-.41-.15-.62.05-.79.14-.08.62-.03.86.07l-.79-.93c-.36-.22-.95-.31-1.12.2-.03.13-.06.5.1.59.26.28.4.35.39.55ZM50.86,50.91s-.16-.69.09-1.3c.25-.61.76-1.05.76-1.05-.55.31-.8.02-2.2-.39-1.4-.41-2.13-.28-2.68-.32-.55-.04-1.85-.8-2.04-.98-.2-.17-.16-.33-.29-.73-.09-.28-.47-.4-.74-.35-.26.05-.35.25-.35.25,0,0-.14.04-.42.09-.28.05-.44.4-.44.4,0,0,.25-.11.47-.09.22.03.4.21.4.21.02.62-.05.63.2,1.05.33.56,1.03,1.18,1.03,1.18.69.46,1.62.84,1.78.91.11.05.67.32,1.16.49.55.19,1,.79,1,.79,0,0,0-.61.84-.33.65.21,1.44.18,1.44.18Z"/>
      <path class="st0" d="M59.57,44.33s.2,1.05.01,1.53c-.36.91-.87,1.11-1.03,1.97-.18,1.03.14,2.22.32,2.81.18.6.37,1.31.16,1.81-.21.49-.62,1.01-.9,1.6-.28.6-.46,1.38-.46,1.38,0,0,.43-.95.71-1.38.35-.53.88-1.16,1.07-1.71.46-1.32-.23-2.16-.37-2.92-.17-.94.07-1.72.58-2.36.49-.62.62-1.09.72-1.69.13-.72.12-1.34.12-1.34l-.94.28Z"/>
      <path class="st0" d="M38.01,71.45s21.06-.53,26.44-1.02c1.45-.13,4.01-.21,5.6-.37,1.59-.16,3.95-.26,3.95-.26,0,0-.73.34-2.53.5-2.05.18-5.88.64-7.65.64-2.16,0-9.35.52-11.51.63-8.86.43-14.3-.12-14.3-.12Z"/>
      <path class="st0" d="M50.33,19.99l-5.41,24.07s-.03.3.13.37c.16.07.27.09.45.2.2.12.36.28.36.28,0,0-.41-.01-.88-.17-.45-.15-.53-.44-.53-.44l5.49-24.24c.18-1.04.55-3.22.6-3.76.05-.55-.07-.42-.28-.16-.21.26-.88,1.93-1.2,3.36,0,0-5.27,22.12-5.38,22.73-.11.62-.04.91-.33,1.39-.3.51-.57.6-.92.57-.26-.03-.63-.04-.7.17-.05.14.18.24.47.28.3.04.68.03,1.02-.07.38-.11.54-.16.54-.16,0,0,.1.21.2.3.18.17.36.32.57.41.19.08.72.23,1.05.22.33-.02.4.18.46.32.05.14.32.29.67.12.23-.11.26-.55.04-.75-.27-.24-.65.03-.72-.1-.07-.12.27-.48.79-.3.43.16.69.55.5,1.12-.2.59-.85.58-1.2.53-.35-.05-.55-.32-.67-.35-.12-.04-.39-.05-.39-.05,0,0-2.32-.93-2.51-.97-.19-.04-.69.05-.86.09-.18.04-.3.23-.74.16-.24-.04-1.03-.34-.79-1.07.18-.53.54-.75,1.09-.66.28.05.3.32.55.36.33.05.57.02.67-.32.11-.33,5.77-22.89,5.77-22.89.81-2.67,1.42-4.31,1.97-4.99.54-.69.79-1.28.7.25-.09,1.51-.24,2.55-.58,4.15ZM41.02,44.54c.17,0,.31-.13.31-.29s-.14-.29-.31-.29-.31.13-.31.29.14.29.31.29Z"/>
      <path class="st0" d="M53.18,57.03s.11-1.74.79-3.77c.28-.84.88-1.82,1-2.66.14-.97-.13-2.16-.08-2.74.05-.58.11-1.13.11-1.13h.37s-.16,1.32-.05,1.87c.11.55.28,1.57.08,2.29-.32,1.13-.94,1.9-1.18,2.84-.3,1.16-.49,2.48-.51,3.71l-.53-.4Z"/>
      <path class="st0" d="M39.93,44.39c.2,0,.35-.15.35-.34s-.16-.34-.35-.34-.35.15-.35.34.16.34.35.34Z"/>
      <path class="st0" d="M42.5,52.2c.26,0,.47-.2.47-.45s-.21-.45-.47-.45-.47.2-.47.45.21.45.47.45Z"/>
      <path class="st0" d="M41.97,49.88s.13-.09-.01.07c-.15.16-.42.47-.35.82.07.35.35.77.93.84.58.07,1.05-.18,1.17-.71.12-.53-.05-.73-.2-.87-.14-.15-.74.05-.74.05.25.17.37.42.34.67-.03.25-.26.38-.49.34-.22-.04-.47-.22-.38-.51.11-.36.47-.5.47-.5,0,0-.01-.16.11-.24.12-.08-.86.04-.86.04Z"/>
      <path class="st0" d="M47.59,46.23c.26,0,.48-.22.48-.49s-.21-.49-.48-.49-.48.22-.48.49.21.49.48.49Z"/>
      <path class="st0" d="M45.25,60.71s.57,1.23,1.13,1.96c.56.74.95,1.3,1.3,1.9.35.6,1.41,2.24,2.25,3.36.84,1.13,2.34,2.81,2.34,2.81,0,0-1.96-3.08-2.56-3.89-.6-.81-1.16-1.76-1.72-2.5-.56-.74-2.4-3.34-2.75-3.65Z"/>
      <path class="st0" d="M50.24,60.65s2.32,2.81,3.48,4.18c1.16,1.37,1.76,2.46,2.32,3.13.56.67,2.2,2.57,2.2,2.57,0,0-.8-1.8-1.78-2.85-.9-.96-1.65-2.18-2.39-3.06-.74-.88-1.86-2.39-2.36-2.81-.49-.42-1.23-1.2-1.48-1.16Z"/>
      <path class="st0" d="M57.63,62.89s2.89,3.59,3.38,4.08c.49.49,2.04,2.67,2.04,2.67,0,0,1.68,1.68.58.1-.27-.38-1.71-2.22-2.34-3.02-.63-.81-1.37-1.65-1.97-2.36-.66-.78-1.58-1.34-1.69-1.48Z"/>
      <path class="st0" d="M64.72,64.51s.46.88.95,1.34c.49.46,1.44,1.55,1.76,1.93.32.39,2.18,1.99,2.18,1.99,0,0-.74-1.04-1.27-1.57-.53-.53-1.09-1.09-1.51-1.58-.42-.49-1.83-1.9-2.11-2.11Z"/>
      <path class="st0" d="M69.85,64.33s1.43,1.52,2.14,2.34c.71.81,2.35,2.18,2.35,2.18,0,0-.35-.79-.87-1.26-.51-.47-1.51-1.55-1.92-2.06-.41-.51-1.03-1.12-1.03-1.12l-.67-.08Z"/>
      <path class="st0" d="M46.56,67.98s2.25-.24,3.27-.29c1.02-.05,4.58-.11,5.9-.11s6.62-.42,8.45-.47c1.83-.05,4.83-.42,5.55-.42s6.92-.14,6.92-.14c0,0-.96.29-2.88.41-.41.03-4.39.36-5,.36s-2.4.04-2.4.04c0,0-1.75.17-2.63.12-.88-.05-2.58.2-2.58.2,0,0-.83,0-1.9.11-1.07.11-3,0-3.21.05-.2.05-1.69.22-3,.23-1.31.02-2.48-.02-2.63-.07-.15-.05-1.19.05-1.8.05s-2.05-.08-2.05-.08Z"/>
      <path class="st0" d="M59.58,64.01h-3.45c-.6,0-2.66.17-2.66.17,0,0-1.84-.06-2.79-.06s-5.15.25-5.15.25c0,0,1.37.16,5.17.05.92-.03,2.8,0,3.19,0s2.13-.02,2.66-.05c2.98-.18,3.02-.35,3.02-.35Z"/>
      <path class="st0" d="M52.77,61.34s-2.89.04-4.05.09c-1.16.05-3.43.05-3.43.05,0,0,.69-.17,1.79-.22,1.11-.05,2.11-.02,2.74-.05,1.11-.07,2.94.13,2.94.13Z"/>
      <path class="st0" d="M34.22,51.37c-.05-.02-.1-.01-.15.02h-.05s-.04.04-.05.06v.04c-.1.15-.16.36-.03.5.13.15.4.13.39.41v.03s.02-.11.02-.11l-.02.04s-.05.1-.07.15l-.02.08c-.02.05-.02.11.01.16v.02c.13.27.4.38.66.48-.07.13-.17.26-.19.42v.08s0,.09.03.13l.03.04c.08.18.29.25.44.37.04.04.01.1-.04.19-.13.23-.02.49.18.64.13.1.29.14.36.28.09.2-.08.41-.05.63.04.3.27.56.59.56.02,0,.06.03.06.05-.04.17-.18.31-.15.51.04.31.31.4.51.55-.04.08.04.16-.06.23-.07.36.18.75.57.78.04,0,.08.06.16.07.03.02.07,0,.09-.03.02-.03,0-.07-.03-.09-.15-.18-.36-.32-.38-.56.17-.35.06-.8-.35-.94-.02,0-.04-.05-.03-.07.1-.23.19-.48.06-.72-.09-.17-.29-.26-.49-.29-.02,0-.03-.07-.02-.11.03-.22.1-.41.05-.63-.07-.3-.31-.47-.56-.59-.02,0-.04.01-.07.02.22-.39.07-.93-.39-1.04l-.09-.11.04.13v-.08c.11-.24.21-.55-.05-.76-.14-.12-.33-.12-.47-.23l-.07-.13.02.12.03-.08s0,0,0,.01l.06-.11s.02-.06.02-.1v-.09c-.04-.27-.27-.46-.54-.51-.08-.02-.07-.13-.05-.21l.03-.11-.03.04.07-.04c-.06-.09.04-.06.06-.09.01,0,.02-.02.02-.03,0-.01-.02-.02-.03-.02h0Z"/>
      <path class="st0" d="M36.57,50.89c-.05-.02-.04.04-.09.07h-.05s-.04.04-.05.06v.04c-.1.15-.16.36-.03.5.13.15.34.08.33.36v.03s.02-.11.02-.11l-.02.04s-.05.1-.07.15l-.02.08c-.02.05-.02.11.01.16v.02c.13.27.4.38.66.48-.07.13-.17.26-.19.42v.08s0,.09.03.13l.03.04c.08.18.29.25.44.37.04.04.01.1-.04.19-.13.23-.02.49.18.64.13.1.29.14.36.28.09.2-.08.41-.05.63.04.3.27.56.59.56.02,0,.06.03.06.05-.04.17-.18.31-.15.51.04.31.31.4.51.55-.04.08.04.16-.06.23-.07.36.18.75.57.78.04,0,.08.06.16.07.03.02.07,0,.09-.03.02-.03,0-.07-.03-.09-.15-.18-.36-.32-.38-.56.17-.35.06-.8-.35-.94-.02,0-.04-.05-.03-.07.1-.23.19-.48.06-.72-.09-.17-.29-.26-.49-.29-.02,0-.03-.07-.02-.11.03-.22.1-.41.05-.63-.07-.3-.31-.47-.56-.59-.02,0-.04.01-.07.02.22-.39.07-.93-.39-1.04l-.09-.11.04.13v-.08c.11-.24.21-.55-.05-.76-.14-.12-.33-.12-.47-.23l-.07-.13.02.12.03-.08s0,0,0,.01l.06-.11s.02-.06.02-.1v-.09c-.04-.27-.21-.41-.48-.46-.08-.02-.07-.13-.05-.21l.03-.11-.03.04.07-.04c-.06-.09.04-.06.06-.09.01,0,.02-.02.02-.03,0-.01-.07-.07-.09-.07h0Z"/>
      <path class="st0" d="M38.74,50.62c-.27.31-.11.82.27.95.15.17-.02.22-.08.39v.04s0,.07.02.1v.02c.06.2.21.36.41.44h.07s-.06-.04-.06-.04h0c.12.06.27.19.21.31-.19.36-.02.76.32.92l.04.02-.1-.09.09.1c.05.02.09.06.1.13,0,.08-.03.15-.07.24-.16.35.16.67.46.87.05.03.07.09.06.14-.05.31-.2.65.09.87.2.15.33.3.41.52,0,.06.05.1.11.1.06,0,.1-.05.1-.11.09-.21.07-.48-.1-.64-.1-.1-.2-.17-.34-.23-.04-.02-.07-.14-.05-.2.1-.27.11-.6-.09-.82-.11-.12-.28-.17-.37-.31-.14-.23.05-.47.03-.72,0-.07-.03-.12-.07-.17l.03.02s-.06-.07-.1-.09l-.11-.06c-.15-.06-.29-.17-.33-.32-.06-.23.14-.45.02-.67v-.06s-.08-.06-.13-.07l-.06-.03s.03,0,.04,0c-.06-.05-.16-.04-.2-.12l-.09-.09.03.1v-.08s-.06-.04-.05-.06c.1-.31.05-.54-.27-.71-.15-.09-.11-.29-.05-.44.02-.05,0-.12-.05-.14s-.12,0-.14.05h0Z"/>
      <path class="st0" d="M32.01,51.77c-.27.31-.11.82.27.95.15.17,0,.36-.06.53v.04s0,.07.02.1v.02c.06.2.21.36.41.44h.07s-.06-.04-.06-.04h0c.12.06.27.19.21.31-.19.36-.02.76.32.92l.04.02-.1-.09.09.1c.05.02.09.06.1.13,0,.08-.03.15-.07.24-.16.35.16.67.46.87.05.03.07.09.06.14-.05.31-.2.65.09.87.2.15.33.3.41.52,0,.06.05.1.11.1.06,0,.1-.05.1-.11.09-.21.07-.48-.1-.64-.1-.1-.2-.17-.34-.23-.04-.02-.07-.14-.05-.2.1-.27.11-.6-.09-.82-.11-.12-.28-.17-.37-.31-.14-.23.05-.47.03-.72,0-.07-.03-.12-.07-.17l.03.02s-.06-.07-.1-.09l-.11-.06c-.15-.06-.29-.17-.33-.32-.06-.23.14-.45.02-.67v-.06s-.08-.06-.13-.07l-.06-.03s.03,0,.04,0c-.06-.05-.16-.04-.2-.12l-.09-.09.03.1v-.08s-.06-.04-.05-.06c.1-.31.03-.67-.28-.85-.15-.09-.11-.29-.05-.44.02-.05,0-.12-.05-.14-.06-.02-.12,0-.14.06h0Z"/>
      <path class="st0" d="M34.31,57.7c-.06.21.03.41.22.54.08.05.11.18.13.3-.02-.03-.04-.05-.05-.08-.01.04-.02.09-.04.13l-.03.08s-.01.07,0,.11l.02.06c.09.24.32.38.51.55.08.07.2.06.27-.02.07-.08.06-.2-.02-.27-.11-.1-.23-.2-.35-.3l-.06-.12v.11s.02-.06.02-.06c.14-.29-.02-.72-.36-.76-.03,0-.08.06-.14-.04-.04-.07-.05-.15-.08-.23,0-.01-.01-.02-.02-.02-.01,0-.02.01-.02.02h0Z"/>
      <path class="st0" d="M35.96,60.75s-.05-.01-.08-.02v-.05s-.03,0-.05.02l-.06.06c-.26.3,0,.64.13.93,0,.02-.05.09-.13.15-.22.14-.23.48-.04.65.13.12.34.24.26.43-.09.22-.34.36-.33.63.01.19.15.32.24.47.15.25-.16.45-.23.7-.05.21.04.44.24.55.12.27-.22.42-.28.66l-.02.03s-.03.07-.02.11v.08c.02.08.06.15.11.22.07.11.24.17.22.3-.03.23-.2.4-.4.52-.09.05-.11.17-.05.25.06.08.17.11.25.05.34-.15.58-.45.6-.82.01-.22-.13-.4-.3-.53l-.04-.09-.02.11.04-.11c.11-.22.3-.41.3-.66,0-.23-.14-.41-.27-.59.16-.24.27-.51.25-.81-.02-.24-.28-.36-.28-.58,0-.15.17-.26.22-.42.09-.32-.12-.58-.17-.88.1-.16.19-.35.11-.55-.09-.22-.34-.37-.25-.66l.03-.06-.06.02h.02s.04-.03.05-.04c.03-.03.03-.08,0-.11-.03-.03-.07-.03-.11,0l.1.03Z"/>
      <path class="st0" d="M38.23,60.58c-.09-.03-.18.01-.24.08-.29.32-.14.72.09,1.05.02.03.02.11-.01.15-.22.28-.34.59-.21.93.06.17.21.28.3.44.03.05.01.11-.03.15-.33.31-.39.86-.01,1.15.06.16.03.33-.12.42l-.05.06s-.04.06-.04.1v.07c-.06.3.1.54.26.78.03.04.03.13,0,.15-.24.23-.47.49-.38.83,0,.12.11.2.22.2.12,0,.2-.11.2-.22,0-.07-.03-.15,0-.19.1-.22.34-.34.39-.61.05-.27-.1-.46-.25-.67-.04-.06-.03-.14-.03-.21v-.07s-.04.1-.04.1l.03-.05c.24-.17.29-.48.22-.75-.05-.18-.22-.28-.27-.45-.07-.28.12-.49.19-.76.01-.05.01-.1,0-.15-.07-.22-.17-.42-.13-.65.03-.21.2-.37.23-.59.05-.32-.18-.53-.35-.78-.1-.15-.04-.32.06-.45.01,0,.02-.02.01-.03,0-.01-.02-.02-.03-.01h0Z"/>
      <path class="st0" d="M40.4,60.26c-.09,0-.18.02-.25.11-.32.44-.02.94.19,1.33-.06.06-.07.16-.13.22-.35.34-.19.94.11,1.25l.02-.02h0s0,.01,0,.01c.04.06.09.11.06.2-.08.24-.29.42-.3.69,0,.19.09.35.18.52.06.11.15.26.06.34-.4.38-.12.94.13,1.29.01.23-.07.46-.23.63-.06.04-.07.13-.03.19.04.06.13.07.19.03.13-.04.25-.1.34-.21.26-.33.23-.81-.05-1.12-.23-.25,0-.51.03-.79.02-.25-.12-.49-.28-.71-.07-.11-.09-.23-.04-.36.11-.26.32-.51.25-.81l.02-.02c-.02-.05-.06-.09-.11-.11v-.03c-.03-.17-.15-.36-.05-.53-.02.02-.04.04-.07.06.3-.2.5-.61.35-.96-.15-.37-.65-.71-.37-1.15.01,0,.02-.02,0-.04,0-.01-.02-.02-.04,0h0Z"/>
      <path class="st0" d="M42.96,60.93c-.23-.01-.31.25-.33.44-.02.21.09.38.21.55.03.04.05.11.04.16-.06.21-.27.35-.3.57-.03.31.18.57.4.76l.05.03-.09-.11v.02c.03.27-.27.42-.35.66-.09.3.14.54.29.78.01.02.02.06,0,.07-.16.2-.31.4-.29.66.03.31.28.49.42.74-.02.31-.1.62-.4.78-.03.02-.03.06-.02.09.02.03.06.04.09.02.19-.12.41-.2.56-.38.18-.22.29-.53.12-.8-.1-.17-.24-.28-.34-.44-.03-.04-.04-.12,0-.16.11-.17.22-.32.25-.52.04-.24-.16-.39-.29-.58-.03-.05-.06-.11-.02-.15.2-.28.45-.56.36-.91v-.02s-.03-.08-.07-.11v-.03c-.08-.1-.06-.25-.23-.29.19-.23.43-.48.37-.81-.05-.24-.2-.4-.37-.57-.11-.12-.05-.27-.02-.41.01-.01.01-.03,0-.04-.01-.01-.03-.01-.04,0h0Z"/>
      <path class="st0" d="M32.77,68.14s1.75-.13,2.74-.25c1.08-.13,3.19,0,5.05-.08,2.02-.08,4.66-.32,4.66-.32,0,0,.23-1.98.02-3.24-.21-1.27-.07-4.01-.07-4.01,0,0,.42,1.65.49,2.67.07,1.02.18,2.36.25,2.99.07.63.04.6.14,1.27.11.67.12,1.55.12,1.55,0,0-1.17.41-1.98.36-.81-.05-2.85-.19-3.8-.01-.95.18-1.62.28-2.92.21-1.3-.07-2.57-.03-2.78.14-.21.18-.7-.49-.7-.49,0,0,1.9-.28,2.99-.21,1.09.07,3.51-.13,4.21-.2.7-.07,1.93.15,2.54.1,1.45-.14,1.65-.49,1.65-.49,0,0-1.15-.07-2.67,0-1.51.07-2.75.16-3.91.16s-2.97,0-3.67.08c-.7.07-1.72.2-1.72.2l-.64-.42Z"/>
      <path class="st0" d="M38.23,69.21s.11.52.2,1.02c.2,1.06,1.44,2,1.44,2l.66.21-.18-.47s-1.14-.96-1.31-1.68c-.09-.37-.02-1.08-.02-1.08h-.79Z"/>
      <path class="st0" d="M44.04,68.9s.07.57.27,1.37c.21.84,1.55,1.93,1.43,1.75.18.29.59.48.59.48l.38-.03-.15-.44s-1.31-1.08-1.54-1.62c-.53-1.21-.11-1.21-.28-1.54-.11-.21-.7.03-.7.03Z"/>
      <path class="st0" d="M29.03,51.23l.08.23s1.86-.42,3.01-.62c1.14-.19,1.6-.16,3.46-.54,1.86-.39,4.25-.6,4.25-.6,0,0,.95,1.88,1.35,2.8s1.58,3.06,1.58,3.06c0,0-.25-1.58-.58-2.09-.33-.51-1.05-1.95-1.3-2.55-.25-.6-.76-2.01-.76-2.01,0,0-1.39.38-1.49.39-.1.01-.12-.05-.12-.05,0,0,.04-.76-.07-1.09-.11-.33-1.44-2.44-1.44-2.44l-.51-.33.21.76s.83,1.16,1.02,1.72.19,1.55.19,1.55l-5.2.95s-.39-1.23-.88-2.12c-.16-.29-1.15-.75-1.25-.89-.11-.14-.28-.39-.28-.39l-.28-.19s-.2.6,0,.86c.39.51.91.46,1.25.95.6.89.72,1.86.72,1.86l-2.62.58-.34.21Z"/>
      <path class="st0" d="M39.67,50.29l.14-.25s-1.08.13-1.53.16c-.45.03-2.18.35-3.08.56-.9.21-2.53.29-3.51.47-.98.18-2.73.7-2.73.7,0,0,1.13,2.25,1.47,3.36.34,1.11.5,2.92,1.08,3.98.66,1.21,1.85,1.4,1.85,1.4,0,0,1.07-.49,2.41-.59,1.34-.11,2.61-.61,3.85-.71s2.24-.5,2.24-.5c0,0-.59-.49-1.41-.3-.82.18-2.87.77-3.34.86-.57.11-1.73.22-2.25.38-.4.12-1.28.29-1.28.29,0,0-.98-.2-1.54-1.67-.52-1.36-.54-1.89-1.19-3.3-.5-1.08-1.29-3-1.29-3,0,0,1.04-.25,1.73-.41.69-.16.82-.03,2.69-.42,1.87-.4,3.64-.72,4.5-.84.32-.05,1.13-.14,1.18-.16Z"/>
      <path class="st0" d="M33.59,60.53s-.14,1.13-.11,1.86c.07,1.58.74,2.57.56,3.62-.18,1.05-.76,2.15-.76,2.15l-.37-.21s.53-1.44.46-2.25c-.07-.81-.46-2.36-.42-3.2.04-.84.25-1.9.25-1.9l.39-.07Z"/>
      <path class="st0" d="M59.17,35.6c.24-.15.41-.41.41-.71,0-.46-.38-.84-.85-.84s-.85.38-.85.84c0,.08.02.16.04.23-.16-.11-.49-.15-.82-.04-.34.11-.67.34-.67.87s.25.93.79.93c.05,0-.05,0,0,0-.03.04,0-.03,0,0-.06.21-.35.53-.81.4-.68-.19-.59-.84-.59-.84,0,0-.64.46-1.07.2-.52-.32-.23-.52-.23-.52.66.08,1.17-.67.96-1.22-.21-.53-.87-.82-1.37-.58,0,0,.09-.62-.9-.75-.72-.09-1.19.85-.98,1.29.1.22.18.28.82,1.38.64,1.1.84,1.74.84,1.74.01.04.03.12.03.22,0,.14.04.23.04.23,0,0,.93.1,3.06.84,2.13.74,3.57,1.54,3.57,1.54,0,0,.02-.07.04-.19,0-.03,0-.06.01-.08.03-.14.47-.59.92-.87,1.4-.89,1.97-1.1,2.67-1.5.47-.26.29-1.13-.16-1.35-.89-.43-1.19.08-1.19.08-.3-.42-1.04-.47-1.5-.13-.47.35-.43,1.18.19,1.41,0,0,.01.19-.56.33-.53.13-.69-.66-.69-.66,0,0-.41.46-1.24.25-.26-.06-.5-.35-.41-.84.17.28.36.24.66.22.47-.03.83-.35.83-.88,0-.42-.31-.82-.69-.95M59.46,35.65c-.09-.03-.19-.05-.29-.05M53.78,36.7c-.19-.49-.93-1.58-1.07-1.92-.12-.29.27-.71.64-.59.34.11.41.79.41.79,0,0,.39-.5.94-.19.37.21.29.56.1.76-.24.26-.82.07-.82.07,0,0-.44.68.53,1.35.72.5,1.13-.01,1.13-.01,0,0,.04.5.59.64.26.07.87.44,1.41-.57.12-.23.18-.63.1-.65-.08-.02-.17,0-.3,0-.26,0-.46-.2-.46-.44s.17-.47.43-.47c.13,0,.25.05.33.13v-.02s.27.36.61-.03c.13-.15,0-.53,0-.53h0s-.03-.09-.03-.14c0-.21.18-.38.4-.38s.4.17.4.38c0,.16-.11.3-.27.36-.07.07-.19.21-.22.37-.07.4.52.42.52.42l-.02.03s.02,0,.02,0c.26,0,.46.2.46.44s-.21.46-.46.44c-.31-.03-.49-.35-.66-.31,0,0-.95,1.22.3,1.76.72.32,1.21-.02,1.21-.02,0,0,.3.54.91.56.89.03,1.34-.93,1.34-.93,0,0-.61-.1-.68-.42-.06-.25.06-.57.49-.58.65-.01.81.59.81.59,0,0,.18-.35.52-.4.36-.06.64.45.38.63-.23.16-1.43.83-2.04,1.23-.7.47-.8.52-1.1.77-.17.14-.29.33-.38.39l-.37-.14s.02,0-.67-.28c-.69-.28-.77-.33-.77-.33,0,0-.36-.18-1.15-.46-.79-.28-1.4-.49-1.4-.49,0,0,.1.08-.61-.14-.7-.23-.65-.21-.65-.21l-.39-.1s-.02-.04-.03-.06c0,0-.2-.65-.45-1.29Z"/>
      <path class="st0" d="M54.93,39.71c.11.03.57.38.78.61.23.25.45.66.45.66,0,0-.51-.22-1.18,0-.61.21-.85.01-.87-.22-.02-.23.18-.45.18-.45,0,0-.18.29.17.38.34.09.51-.04.51-.04,0,0-.37-.05-.4-.25-.03-.21.11-.32.25-.38,0,0-.14-.1-.57.02-.33.09-.34.38-.4.45-.06.08-.08.03-.06-.21.04-.41-.07-.9,1.14-.58Z"/>
      <path class="st0" d="M58.03,32.87c.3,0,.55-.25.55-.56s-.25-.56-.55-.56-.55.25-.55.56.25.56.55.56Z"/>
      <path class="st0" d="M54.16,33.16c0-.46.38-.83.84-.83s.84.37.84.83-.38.83-.84.83-.84-.37-.84-.83ZM54.99,33.52c.21,0,.39-.16.39-.36s-.17-.36-.39-.36-.39.16-.39.36.17.36.39.36Z"/>
      <path class="st0" d="M55.94,32.57c0-.37.31-.67.69-.67s.69.3.69.67-.31.67-.69.67-.69-.3-.69-.67ZM56.63,32.85c.16,0,.28-.12.28-.27s-.13-.27-.28-.27-.28.12-.28.27.13.27.28.27Z"/>
      <path class="st0" d="M59.09,29.51s-.14.14-.23.39c-.1.25-.1.61-.1.61,0,0,1.01-.16,1.05.08s-.12.4-.12.4l.6.21s-.04-.41.1-.45c.14-.04.84.59.84.59,0,0,.18-.04.35-.41.15-.33-.04-.59-.04-.59,0,0-1,.2-1-.08s.7-.94.7-.94c0,0-.2-.28-.54-.38-.43-.12-.52-.03-.52-.03,0,0-.04,1.15-.2,1.17-.16.02-.92-.57-.92-.57Z"/>
      <path class="st0" d="M54.45,34.29s.66-.59,1.88-1.06c1.22-.47,1.92-.45,2.32-.56.39-.11.75-.18.75-.18,0,0,.34.61.1.69-.24.07-.6-.07-1.29-.02-.68.05-1.3.34-2.04.66-.75.32-1.05.88-1.05.88l-.66-.4Z"/>
      <path class="st0" d="M60.58,33.6c-.26-.15-.35-.49-.19-.76.16-.26.49-.35.76-.2.26.15.35.49.19.76s-.49.35-.76.2Z"/>
      <path class="st0" d="M62.75,37.09s-.29-1.21-1.06-2.26c-.77-1.05-1.37-1.42-1.64-1.73-.27-.31-.53-.56-.53-.56,0,0-.62.33-.46.52.16.19.55.27,1.1.68.55.41.9.99,1.36,1.67.45.68.46,1.5.46,1.5l.77.19Z"/>
      <path class="st0" d="M62.51,36.28c-.4-.24-.53-.75-.3-1.14.23-.39.74-.52,1.14-.28.4.24.53.75.3,1.14-.23.39-.74.52-1.14.28ZM62.92,35.93c.21,0,.39-.16.39-.36s-.17-.36-.39-.36-.39.16-.39.36.17.36.39.36Z"/>
      <path class="st0" d="M58.78,31.89c0-.5.41-.91.91-.91s.91.41.91.91-.41.91-.91.91-.91-.41-.91-.91ZM59.7,32.35c.25,0,.46-.2.46-.46s-.21-.46-.46-.46-.46.2-.46.46.21.46.46.46Z"/>
      <path class="st0" d="M61.59,34.7c-.33-.2-.44-.61-.25-.93.19-.32.61-.42.94-.23.33.2.44.61.25.93-.19.32-.61.42-.94.23ZM61.94,34.39c.16,0,.28-.12.28-.27s-.13-.27-.28-.27-.28.12-.28.27.13.27.28.27Z"/>
      <path class="st0" d="M57.52,38.74c.19,0,.3-.21.3-.37s-.15-.3-.35-.3-.35.14-.35.3.2.37.39.37Z"/>
    </g>
    <path class="st0" d="M10.67,120.33c.56,0,1.13.06,1.71.06s.91-.06,1.47-.06v.34c-.7.09-.88.56-.88,1.56,0,1.49-.02,2.97-.02,4.46,0,2.1.97,3.58,3.3,3.58,1.27,0,2.88-.74,2.88-2.5v-1.85c0-1.85-.14-3.69-.14-4.47,0-.44-.42-.74-.8-.78v-.34c.56,0,1.04.06,1.6.06s.99-.06,1.55-.06v.34c-.52.02-.74.63-.74,1.16,0,.59-.05,2.22-.05,4.29v3.41c0,.88.17,1.33.86,1.38v.34c-.44,0-.89-.06-1.33-.06s-.63.06-1.07.06c.03-.53.08-1.02.11-1.49-1.14,1.06-2.04,1.67-3.63,1.67-1.9,0-3.99-1.33-3.99-3.68v-2.61c0-1.22-.08-2.3-.08-3.27,0-.61-.11-1.11-.77-1.2v-.34Z"/>
  </g>
  <rect class="st0" x="123.88" y="4.8" width="1" height="136"/>
  <g>
    <path class="st0" d="M161.15,62.96c0,2.93.11,5.04.97,6.04.68.82,1.59,1.29,6.14,1.29,6.31,0,7.22-.29,9.83-6.33.57-.29,1.48-.12,1.76.35-.46,2.46-1.71,6.91-2.39,8.5-2.39-.12-7.28-.18-13.64-.18h-5.91c-2.9,0-5.74.06-8.13.18-.45-.23-.62-1.41-.11-1.7l1.71-.29c2.67-.47,3.18-.53,3.18-6.62v-21.8c0-6.09-.51-6.27-3.18-6.68l-1.59-.23c-.4-.29-.4-1.46.11-1.7,2.84.12,5.4.18,8.01.18s5.06-.06,7.56-.18c.51.23.57,1.41.11,1.7l-1.25.23c-2.67.47-3.18.59-3.18,6.68v20.57Z"/>
    <path class="st0" d="M192.01,38.88c0-2.46-.06-2.58-1.54-2.58h-3.18c-5.23,0-6.76.64-8.87,5.39-.4.35-1.59.18-1.82-.41.97-3.16,1.82-6.8,2.22-8.85.11-.18.34-.23.62-.23.23,0,.46.06.57.23.28,1.46,1.08,1.52,4.95,1.52h23.19c2.79,0,3.64-.18,4.32-1.52.23-.12.45-.23.68-.23.34,0,.62.12.74.29-.57,2.4-1.02,7.44-.85,9.32-.28.47-1.25.59-1.76.18-.74-4.57-1.82-5.68-7.9-5.68h-3.24c-1.48,0-1.54.12-1.54,2.58v25.31c0,6.21.51,6.39,3.18,6.68l2.05.23c.4.41.34,1.46-.11,1.7-3.3-.12-5.85-.18-8.35-.18s-5.17.06-8.81.18c-.45-.23-.51-1.41-.11-1.7l2.39-.29c2.67-.35,3.18-.41,3.18-6.62v-25.31Z"/>
    <path class="st0" d="M231.52,53.88c-2.9,0-3.07.12-3.07,1.7v8.61c0,6.21.51,6.33,3.18,6.68l1.71.23c.4.41.34,1.46-.11,1.7-2.96-.12-5.51-.18-8.01-.18s-5.06.06-7.22.18c-.45-.23-.51-1.29-.11-1.7l.8-.12c2.67-.41,3.18-.59,3.18-6.8v-21.8c0-6.21-.51-6.39-3.18-6.74l-1.25-.18c-.4-.29-.34-1.46.11-1.7,2.5.12,5.17.18,7.67.18s5.06-.06,7.28-.18c.45.23.51,1.41.11,1.7l-.97.18c-2.67.47-3.18.53-3.18,6.74v7.09c0,1.64.17,1.76,3.07,1.76h13.3c2.9,0,3.07-.12,3.07-1.76v-7.09c0-6.21-.51-6.39-3.18-6.74l-1.25-.18c-.4-.29-.34-1.46.11-1.7,2.61.12,5.17.18,7.67.18s5.06-.06,7.33-.18c.46.23.51,1.41.11,1.7l-1.02.18c-2.67.47-3.18.53-3.18,6.74v21.8c0,6.21.51,6.39,3.18,6.74l1.25.18c.4.41.34,1.46-.11,1.7-2.5-.12-5.06-.18-7.56-.18s-5.17.06-7.67.18c-.45-.23-.51-1.29-.11-1.7l1.25-.18c2.67-.35,3.18-.53,3.18-6.74v-8.61c0-1.58-.17-1.7-3.07-1.7h-13.3Z"/>
  </g>
  <g>
    <path class="st0" d="M168.08,89.29h4.65v1.32h-2.97v2.06h2.83v1.32h-2.83v3.67h-1.68v-8.37Z"/>
    <path class="st0" d="M176.84,89.29h1.89l3.29,8.37h-1.86l-.72-1.92h-3.39l-.73,1.92h-1.74l3.26-8.37ZM177.76,90.97h-.02l-1.21,3.45h2.45l-1.21-3.45Z"/>
    <path class="st0" d="M189.2,97.54c-.61.14-1.27.26-1.91.26-2.71,0-4.59-1.36-4.59-4.19s1.75-4.47,4.59-4.47c.55,0,1.28.11,1.89.35l-.12,1.41c-.64-.36-1.21-.44-1.81-.44-1.73,0-2.81,1.32-2.81,3.04s1.06,2.99,2.84,2.99c.66,0,1.44-.14,1.83-.35l.07,1.4Z"/>
    <path class="st0" d="M190.97,89.29h1.68v4.83c0,1.43.46,2.36,1.74,2.36s1.74-.94,1.74-2.36v-4.83h1.68v5.35c0,2.24-1.27,3.17-3.42,3.17s-3.42-.92-3.42-3.17v-5.35Z"/>
    <path class="st0" d="M200.3,89.29h1.68v7.05h3.25v1.32h-4.93v-8.37Z"/>
    <path class="st0" d="M208.18,90.61h-2.4v-1.32h6.48v1.32h-2.4v7.05h-1.68v-7.05Z"/>
    <path class="st0" d="M216.15,94.35l-3.06-5.06h1.97l1.98,3.51,2.01-3.51h1.78l-3,5.06v3.31h-1.68v-3.31Z"/>
    <path class="st0" d="M230.17,89.14c2.63,0,4.1,1.77,4.1,4.31s-1.45,4.35-4.1,4.35-4.1-1.79-4.1-4.35,1.44-4.31,4.1-4.31ZM230.17,96.48c1.71,0,2.35-1.52,2.35-3.03s-.68-2.99-2.35-2.99-2.35,1.51-2.35,2.99.63,3.03,2.35,3.03Z"/>
    <path class="st0" d="M236.41,89.29h4.65v1.32h-2.97v2.06h2.83v1.32h-2.83v3.67h-1.68v-8.37Z"/>
    <path class="st0" d="M162.61,106.09h4.94v1.32h-3.26v2.06h2.99v1.32h-2.99v2.35h3.29v1.32h-4.96v-8.37Z"/>
    <path class="st0" d="M170.04,106.09h2.06l3.19,6.26h.02v-6.26h1.61v8.37h-2.05l-3.2-6.26h-.02v6.26h-1.61v-8.37Z"/>
    <path class="st0" d="M185.93,107.71c-.65-.3-1.49-.44-2.16-.44-1.95,0-3.03,1.32-3.03,3.04s1.06,2.99,2.84,2.99c.46,0,.82-.05,1.1-.12v-2.18h-1.78v-1.32h3.38v4.51c-.89.24-1.81.43-2.71.43-2.71,0-4.59-1.36-4.59-4.19s1.75-4.47,4.59-4.47c.97,0,1.74.13,2.46.35l-.11,1.42Z"/>
    <path class="st0" d="M188.75,106.09h1.68v8.37h-1.68v-8.37Z"/>
    <path class="st0" d="M192.99,106.09h2.06l3.19,6.26h.02v-6.26h1.61v8.37h-2.05l-3.2-6.26h-.02v6.26h-1.61v-8.37Z"/>
    <path class="st0" d="M202.57,106.09h4.94v1.32h-3.26v2.06h2.99v1.32h-2.99v2.35h3.29v1.32h-4.96v-8.37Z"/>
    <path class="st0" d="M210.09,106.09h4.94v1.32h-3.26v2.06h2.99v1.32h-2.99v2.35h3.29v1.32h-4.96v-8.37Z"/>
    <path class="st0" d="M217.45,106.09h1.81c1.8,0,3.95-.06,3.95,2.27,0,.98-.66,1.8-1.73,1.94v.02c.46.04.72.49.89.86l1.34,3.27h-1.87l-1.01-2.61c-.24-.62-.46-.86-1.16-.86h-.54v3.48h-1.68v-8.37ZM219.13,109.66h.55c.83,0,1.78-.12,1.78-1.16s-.94-1.09-1.78-1.09h-.55v2.25Z"/>
    <path class="st0" d="M225.63,106.09h1.68v8.37h-1.68v-8.37Z"/>
    <path class="st0" d="M229.86,106.09h2.06l3.19,6.26h.02v-6.26h1.61v8.37h-2.05l-3.2-6.26h-.02v6.26h-1.61v-8.37Z"/>
    <path class="st0" d="M245.75,107.71c-.65-.3-1.49-.44-2.16-.44-1.96,0-3.03,1.32-3.03,3.04s1.06,2.99,2.84,2.99c.45,0,.82-.05,1.1-.12v-2.18h-1.78v-1.32h3.38v4.51c-.89.24-1.81.43-2.71.43-2.71,0-4.59-1.36-4.59-4.19s1.75-4.47,4.59-4.47c.97,0,1.74.13,2.46.35l-.11,1.42Z"/>
  </g>
</svg>