<?xml version="1.0" encoding="UTF-8" standalone="no"?>
<svg
   id="Lager_3"
   version="1.1"
   viewBox="0 0 337.99999 425.99999"
   sodipodi:docname="LundUniversity_C2line_NEG [Converted].svg"
   width="338"
   height="426"
   inkscape:version="1.4 (86a8ad7, 2024-10-11)"
   xmlns:inkscape="http://www.inkscape.org/namespaces/inkscape"
   xmlns:sodipodi="http://sodipodi.sourceforge.net/DTD/sodipodi-0.dtd"
   xmlns="http://www.w3.org/2000/svg"
   xmlns:svg="http://www.w3.org/2000/svg">
  <sodipodi:namedview
     id="namedview149"
     pagecolor="#ffffff"
     bordercolor="#000000"
     borderopacity="0.25"
     inkscape:showpageshadow="2"
     inkscape:pageopacity="0.0"
     inkscape:pagecheckerboard="0"
     inkscape:deskcolor="#d1d1d1"
     inkscape:zoom="0.67780252"
     inkscape:cx="179.99343"
     inkscape:cy="303.18565"
     inkscape:window-width="1920"
     inkscape:window-height="1009"
     inkscape:window-x="-8"
     inkscape:window-y="-8"
     inkscape:window-maximized="1"
     inkscape:current-layer="Lager_3" />
  <!-- Generator: Adobe Illustrator 29.3.0, SVG Export Plug-In . SVG Version: 2.1.0 Build 146)  -->
  <defs
     id="defs1">
    <style
       id="style1">
      .st0 {
        fill: #fff;
      }

      .st1 {
        fill: none;
      }
    </style>
  </defs>
  <path
     class="st0"
     d="m 25.36,349.33 c 4.15,0 7.02,-2.98 7.02,-6.7 V 288.8 c 0,-5.21 -2.66,-7.98 -6.7,-9.04 v -2.34 c 4.04,0 7.98,0.43 12.02,0.43 4.04,0 8.09,-0.43 12.13,-0.43 v 2.34 c -4.36,1.17 -5.74,3.72 -5.74,9.36 0,3.19 -0.32,10 -0.32,19.57 v 36.81 c 2.34,0.43 4.36,0.64 11.28,0.64 18.3,0 21.6,-3.3 24.26,-10.11 l 3.83,1.92 -4.57,15 c -3.4,-1.28 -6.81,-1.7 -10.21,-1.7 H 33.47 c -2.66,0 -5.43,0.43 -8.09,0.43 v -2.34 z"
     id="path1" />
  <path
     class="st0"
     d="m 92.77,292.19 c 3.06,0 6.13,0.34 9.28,0.34 3.15,0 6.21,-0.34 9.28,-0.34 v 1.87 c -3.83,0.51 -4.77,3.06 -4.77,8.51 0,8.08 -0.09,16.17 -0.09,24.25 0,11.4 5.28,19.49 17.96,19.49 6.89,0 15.66,-4 15.66,-13.62 v -10.04 c 0,-10.04 -0.77,-20.08 -0.77,-24.34 0,-2.38 -2.3,-4 -4.34,-4.25 v -1.87 c 3.06,0 6.13,0.34 9.19,0.34 3.06,0 6.21,-0.34 9.28,-0.34 v 1.87 c -2.81,0.08 -4,3.4 -4,6.3 0,3.23 -0.26,12.08 -0.26,23.32 v 18.55 c 0,4.77 0.94,7.23 4.68,7.49 v 1.87 c -2.38,0 -4.85,-0.34 -7.23,-0.34 -2.38,0 -4.77,0.34 -7.15,0.34 0.17,-2.89 0.43,-5.53 0.6,-8.08 -6.21,5.79 -11.49,9.11 -20.17,9.11 -12.59,0 -22.55,-7.23 -22.55,-20 v -14.21 c 0,-6.64 -0.43,-12.51 -0.43,-17.79 0,-3.32 -0.6,-6.04 -4.17,-6.55 v -1.87 z"
     id="path2" />
  <path
     class="st0"
     d="m 172.59,349.72 c 3.32,-0.85 5.28,-3.4 5.28,-8.17 l 0.26,-50.38 h 3.57 l 41.61,45.78 v -29.27 c 0,-10.55 -2.3,-13.02 -6.38,-13.62 v -1.87 c 2.81,0 5.62,0.34 8.42,0.34 2.8,0 5.7,-0.34 8.51,-0.34 v 1.87 c -3.74,0.68 -5.62,3.66 -5.62,10.55 l -0.26,48 h -2.89 l -42.29,-46.04 0.34,32.42 c 0.08,6.64 2.13,9.7 6.21,10.72 v 1.87 c -2.81,0 -5.62,-0.34 -8.42,-0.34 -2.8,0 -5.53,0.34 -8.34,0.34 v -1.87 z"
     id="path3" />
  <path
     class="st0"
     d="m 251.21,349.72 c 3.49,-0.85 4.43,-2.38 4.43,-6.04 v -24.76 c 0,-7.49 -0.85,-14.13 -0.85,-18.3 0,-3.57 -1.28,-6.04 -4.43,-6.89 v -1.53 c 4,0 7.91,0.34 11.91,0.34 4,0 7.91,-0.34 11.91,-0.34 23.23,0 37.36,10.21 37.36,29.36 0,19.15 -11.06,30.04 -34.98,30.04 -4.25,0 -8.51,-0.34 -12.68,-0.34 -4.17,0 -8.42,0.34 -12.68,0.34 v -1.87 z m 13.53,-2.21 c 4,0.51 7.32,0.68 10.55,0.68 16.25,0 24.42,-9.96 24.42,-26.3 0,-15.4 -10.72,-26.3 -25.78,-26.3 -2.72,0 -5.36,0.17 -8.77,0.34 -0.08,7.49 -0.43,14.3 -0.43,21.44 v 30.12 z"
     id="path4" />
  <path
     class="st0"
     d="m 70.92,402.24 c 1.56,-0.4 2.48,-1.6 2.48,-3.84 l 0.12,-23.68 h 1.68 l 19.56,21.52 v -13.76 c 0,-4.96 -1.08,-6.12 -3,-6.4 v -0.88 c 1.32,0 2.64,0.16 3.96,0.16 1.32,0 2.68,-0.16 4,-0.16 v 0.88 c -1.76,0.32 -2.64,1.72 -2.64,4.96 L 96.96,403.6 H 95.6 l -19.88,-21.64 0.16,15.24 c 0.04,3.12 1,4.56 2.92,5.04 v 0.88 c -1.32,0 -2.64,-0.16 -3.96,-0.16 -1.32,0 -2.6,0.16 -3.92,0.16 z"
     id="path5" />
  <path
     class="st0"
     d="m 116.83,376.08 c -1.48,0.24 -1.64,1.28 -1.64,2.68 0,3.88 -0.16,8.6 -0.16,12.84 v 7.76 c 0,1.32 0.44,2.84 1.96,2.88 v 0.88 c -1.36,0 -2.76,-0.16 -4.12,-0.16 -1.36,0 -2.76,0.16 -4.12,0.16 v -0.88 c 1.28,-0.04 2,-1.16 2,-2.88 v -5.76 c 0,-4.8 -0.36,-11.84 -0.36,-14.36 0,-1.64 -0.16,-2.96 -1.8,-3.16 v -0.88 c 1.36,0 2.72,0.16 4.12,0.16 1.4,0 2.76,-0.16 4.12,-0.16 z"
     id="path6" />
  <path
     class="st0"
     d="m 136.79,403.6 -11.04,-24.28 c -0.44,-1 -1.32,-2.64 -2.88,-3.24 v -0.88 c 1.52,0 3.04,0.16 4.56,0.16 1.52,0 3,-0.16 4.52,-0.16 v 0.88 c -0.76,0.16 -1.48,0.52 -1.48,1.44 0,0.36 0.12,1.04 0.72,2.48 l 7.32,17.48 6.24,-16.32 c 0.44,-1.12 0.56,-2.04 0.56,-2.64 0,-1.56 -0.52,-2.2 -2.08,-2.44 v -0.88 c 1.36,0 2.72,0.16 4.08,0.16 1.36,0 2.72,-0.16 4.08,-0.16 v 0.88 c -1.64,0.24 -2.56,1.6 -3.36,3.6 l -9.48,23.92 z"
     id="path7" />
  <path
     class="st0"
     d="m 156.86,402.08 c 1.56,-0.16 2.32,-1.12 2.32,-2.44 v -6.76 c 0,-5.44 -0.32,-11.16 -0.32,-14.72 0,-1 -0.76,-1.68 -2,-1.92 v -0.88 h 15.8 c 1.08,0 2.44,-0.4 3.16,-0.64 0,1.04 -0.16,2 -0.16,3 0,1 0.16,1.96 0.16,2.96 h -1.52 c -0.68,-1.92 -1.64,-3.4 -3.84,-3.4 h -7 v 10.64 h 6.04 c 2.32,0 3.08,-0.2 4.04,-2.16 h 1.28 c 0,1.16 -0.16,2.32 -0.16,3.48 0,1.16 0.16,2.36 0.16,3.52 h -1.36 c -0.88,-2.76 -1.64,-2.92 -3.96,-2.92 h -6.04 v 11.2 h 6.8 c 2.96,0 4.04,-0.48 5.84,-3 l 1.24,0.64 -1.4,4.92 c -1.24,-0.48 -2.48,-0.64 -3.76,-0.64 h -15.32 z"
     id="path8" />
  <path
     class="st0"
     d="m 185.94,402.24 c 1.36,-0.32 2,-0.96 2,-2.32 v -10.28 c 0,-3.44 -0.2,-6.88 -0.2,-10.28 0,-1.88 -0.2,-2.88 -2.24,-3.28 v -0.88 c 1.28,0 2.6,0.16 3.88,0.16 1.2,0 2.4,-0.16 5.4,-0.16 7.2,0 10.72,3.6 10.72,7.92 0,4.04 -3.68,6.64 -7.24,7.52 l 8.08,9.36 c 0.6,0.72 1.96,2.04 3.04,2.24 v 0.88 c -1.32,0 -2.68,-0.16 -4,-0.16 -1.32,0 -2.64,0.16 -3.96,0.16 v -0.88 c 0.28,-0.04 0.4,-0.2 0.44,-0.48 0,-0.36 -0.12,-0.72 -0.6,-1.28 l -6.64,-7.76 c -0.6,-0.68 -1.44,-1.72 -2.4,-1.72 v 7.92 c 0,1.68 0.2,2.88 2.24,3.32 v 0.88 c -1.44,0 -2.84,-0.16 -4.28,-0.16 -1.44,0 -2.8,0.16 -4.24,0.16 z m 6.28,-12.48 c 0.6,0.04 1.08,0.12 1.56,0.12 3.68,0 6.84,-2.48 6.84,-6.28 0,-3.8 -1.68,-6.96 -6.04,-6.96 -1.04,0 -2.16,0.12 -2.16,1.12 z"
     id="path9" />
  <path
     class="st0"
     d="m 215.26,397.68 h 1.52 c 1.08,3.04 3.56,4.24 6.56,4.24 2.72,0 5.2,-2.2 5.2,-5 0,-8.44 -13.64,-3.24 -13.64,-14.08 0,-5.16 4.52,-8.12 9.24,-8.12 2.6,0 5.8,0.96 7.12,1.84 l 0.4,4.28 h -1.44 c -0.64,-2.64 -3.44,-4.44 -6.04,-4.44 -3,0 -5.4,2 -5.4,5.08 0,7.04 13.64,2.96 13.64,13.4 0,5.32 -4.28,8.72 -9.36,8.72 -2.68,0 -5.4,-0.32 -7.8,-1.56 z"
     id="path10" />
  <path
     class="st0"
     d="m 249.97,376.08 c -1.48,0.24 -1.64,1.28 -1.64,2.68 0,3.88 -0.16,8.6 -0.16,12.84 v 7.76 c 0,1.32 0.44,2.84 1.96,2.88 v 0.88 c -1.36,0 -2.76,-0.16 -4.12,-0.16 -1.36,0 -2.76,0.16 -4.12,0.16 v -0.88 c 1.28,-0.04 2,-1.16 2,-2.88 v -5.76 c 0,-4.8 -0.36,-11.84 -0.36,-14.36 0,-1.64 -0.16,-2.96 -1.8,-3.16 v -0.88 c 1.36,0 2.72,0.16 4.12,0.16 1.4,0 2.76,-0.16 4.12,-0.16 z"
     id="path11" />
  <path
     class="st0"
     d="m 281.8,380.36 h -1.52 c -0.4,-2.36 -1.6,-3.08 -3.88,-3.08 h -5.04 c 0,3.44 -0.2,7.84 -0.2,12.64 v 8.52 c 0,2.48 0.76,3.24 2.52,3.8 v 0.88 c -1.56,0 -3.08,-0.16 -4.6,-0.16 -1.52,0 -3.04,0.16 -4.6,0.16 v -0.88 c 1.84,-0.6 2.4,-1.48 2.4,-3.8 v -6.28 c 0,-5.76 -0.32,-11.44 -0.4,-14.88 h -5.4 c -2.28,0 -3.48,0.72 -3.88,3.08 h -1.52 v -5.64 c 1.52,0.4 3.08,0.64 4.64,0.64 H 278 c 1.12,0 2.88,-0.24 3.8,-0.64 z"
     id="path12" />
  <path
     class="st0"
     d="m 292.8,402.24 c 1.92,-0.32 2.48,-1.24 2.48,-3.2 v -7.68 l -7.48,-12.44 c -0.76,-1.24 -1.16,-2.08 -2.4,-2.84 v -0.88 c 1.36,0 2.76,0.16 4.12,0.16 1.36,0 2.76,-0.16 4.12,-0.16 v 0.88 c -0.76,0.16 -1.28,0.56 -1.28,1.4 0,0.4 0.24,1.56 0.8,2.52 l 5.08,8.96 5,-8.6 c 0.76,-1.32 0.88,-2.28 0.88,-3 0,-0.88 -0.88,-1.24 -1.68,-1.28 v -0.88 c 1.2,0 2.4,0.16 3.64,0.16 1.24,0 2.4,-0.16 3.6,-0.16 v 0.88 c -1.32,0.48 -2.04,1.6 -3.12,3.32 l -7,11.4 v 8.24 c 0,1.96 0.56,2.88 2.32,3.2 v 0.88 c -1.52,0 -3.04,-0.16 -4.52,-0.16 -1.48,0 -3.04,0.16 -4.56,0.16 z"
     id="path13" />
  <g
     id="g148"
     transform="translate(-434.5,-223.5)">
    <path
       class="st0"
       d="m 581.91,439.35 v 9.73 c 0,0.49 2.22,1.34 2.22,1.34 h -6.98 c 0,0 2.08,-0.85 2.08,-1.27 v -8.2 l -2.17,0.36 -0.03,-0.39 4.88,-1.56 z"
       id="path14" />
    <path
       class="st0"
       d="m 626.62,439.57 c -3.13,0.69 -4.73,2.68 -5.18,4.78 0.78,-0.41 1.48,-0.6 2.3,-0.6 2.28,0 3.8,1.33 3.8,3.27 0,2.14 -1.83,3.63 -4.45,3.63 -2.88,0 -4.83,-1.81 -4.83,-4.51 0,-3.38 3.3,-6.78 8.29,-6.78 l 0.06,0.21 z m -3.58,5 c -0.8,0 -1.36,0.33 -1.77,0.57 -0.04,0.22 -0.13,0.78 -0.13,1.65 0,1.21 0.16,3.22 1.85,3.22 1.69,0 1.7,-1.57 1.7,-2.79 0,-1.1 -0.07,-2.65 -1.65,-2.65 z"
       id="path15" />
    <path
       class="st0"
       d="m 611.95,439.57 c -3.13,0.69 -4.73,2.68 -5.18,4.78 0.78,-0.41 1.48,-0.6 2.3,-0.6 2.28,0 3.8,1.33 3.8,3.27 0,2.14 -1.83,3.63 -4.45,3.63 -2.88,0 -4.83,-1.81 -4.83,-4.51 0,-3.38 3.3,-6.78 8.29,-6.78 l 0.06,0.21 z m -3.58,5 c -0.8,0 -1.36,0.33 -1.77,0.57 -0.04,0.22 -0.13,0.78 -0.13,1.65 0,1.21 0.16,3.22 1.85,3.22 1.69,0 1.7,-1.57 1.7,-2.79 0,-1.1 -0.07,-2.65 -1.65,-2.65 z"
       id="path16" />
    <path
       class="st0"
       d="m 597.18,439.57 c -3.13,0.69 -4.73,2.68 -5.18,4.78 0.78,-0.41 1.48,-0.6 2.3,-0.6 2.28,0 3.8,1.33 3.8,3.27 0,2.14 -1.83,3.63 -4.45,3.63 -2.88,0 -4.83,-1.81 -4.83,-4.51 0,-3.38 3.3,-6.78 8.29,-6.78 l 0.06,0.21 z m -3.59,5 c -0.8,0 -1.36,0.33 -1.77,0.57 -0.04,0.22 -0.13,0.78 -0.13,1.65 0,1.21 0.16,3.22 1.86,3.22 1.7,0 1.7,-1.57 1.7,-2.79 0,-1.1 -0.07,-2.65 -1.65,-2.65 z"
       id="path17" />
    <path
       class="st0"
       d="m 500.95,346.28 c 1.04,0.34 2.51,1.07 3.48,1.73 -0.15,0.31 -0.26,0.7 -0.34,1.16 -0.15,0.95 0.04,2.01 -0.2,3.52 -0.68,4.12 -4.06,6.85 -7.7,6.25 -3.7,-0.61 -6.04,-4.48 -5.33,-8.78 0.34,-2.09 1.39,-3.32 1.46,-3.73 0.03,-0.16 -0.05,-0.94 -0.05,-0.94 l 3.55,0.4 c 0,0 -3.59,2.34 -3.9,4.27 -0.47,2.88 1.37,5.22 4.55,5.74 3.24,0.53 6.09,-1.27 6.57,-4.15 0.3,-1.85 -2.07,-5.48 -2.07,-5.48 z"
       id="path18" />
    <path
       class="st0"
       d="m 534.07,293.72 -7.58,7.87 c 0,0 0.5,-2.34 -0.22,-3.04 l -5.87,-5.65 c -0.87,-0.83 -3.01,-0.13 -3.01,-0.13 l 4.79,-4.98 c 0,0 -0.55,2.39 0.14,3.05 l 6.05,5.82 c 0.54,0.52 0.83,0.49 1.38,-0.08 l 1.79,-1.86 c 0.95,-0.98 1,-4.53 1,-4.53 l 1.52,3.53 z"
       id="path19" />
    <path
       class="st0"
       d="m 527.9,282.27 5.04,-4.07 c 0,0 -0.68,2.17 -0.01,3 l 5.07,6.28 c 0.63,0.78 2.91,0.58 2.91,0.58 l -5.04,4.07 c 0,0 0.56,-2.13 0,-2.83 l -5.12,-6.34 c -0.67,-0.82 -2.84,-0.69 -2.84,-0.69 z"
       id="path20" />
    <path
       class="st0"
       d="m 544.85,282.29 c 0.65,1.06 3,1.03 3,1.03 l -4.21,2.58 c 0,0 0.78,-1.93 0.34,-2.65 l -4.89,-7.98 c -0.54,-0.03 -2.04,-0.21 -2.04,-0.21 l 3.58,-2.19 11.62,3.06 -3.21,-5.25 c -0.77,-1.25 -3.14,-1.04 -3.14,-1.04 l 4.48,-2.75 c 0,0 -1.05,1.88 -0.64,2.54 l 5.69,9.3 -0.96,0.59 -13.66,-3.61 4.02,6.57 z"
       id="path21" />
    <path
       class="st0"
       d="m 618.91,264.95 c 0,0 1.98,3.54 3.55,3.88 1.32,0.28 2.49,-0.35 2.73,-1.46 0.63,-2.97 -5.79,-4.23 -4.96,-8.17 0.41,-1.91 2.36,-2.89 4.74,-2.39 1.54,0.33 2.62,1.1 2.92,1.16 0.14,0.03 0.27,0.02 0.48,-0.13 l 0.42,0.09 -0.31,3.31 c 0,0 -1.95,-3.2 -3.48,-3.53 -1.12,-0.24 -2.08,0.18 -2.25,0.96 -0.39,1.83 2.85,2.87 4.61,5.58 0.64,0.99 0.78,1.92 0.58,2.87 -0.44,2.07 -2.66,3.31 -5.03,2.81 -1.59,-0.34 -2.92,-1.28 -3.27,-1.36 -0.18,-0.04 -0.34,0.03 -0.49,0.23 l -0.52,-0.11 0.27,-3.73 z"
       id="path22" />
    <path
       class="st0"
       d="m 635.32,259.89 6.14,2.07 c 0,0 -2.2,0.59 -2.54,1.6 l -2.58,7.65 c -0.32,0.95 1.07,2.77 1.07,2.77 l -6.14,-2.07 c 0,0 2.1,-0.67 2.38,-1.52 l 2.61,-7.72 c 0.34,-1 -0.94,-2.77 -0.94,-2.77 z"
       id="path23" />
    <path
       class="st0"
       d="m 653.95,277.25 -1.37,2.71 c -1.61,-0.06 -3.76,-0.46 -5.33,-1.25 -4.6,-2.32 -5.53,-6.01 -3.76,-9.5 1.68,-3.33 5.67,-4.4 9.54,-2.44 1.87,0.95 3.01,2.32 3.63,2.63 0.27,0.14 0.46,0.14 0.67,0.04 l 0.45,0.23 -1.68,3.33 -0.73,-0.37 c 0.45,-2.1 -0.39,-3.89 -2.28,-4.85 -2.58,-1.3 -5.39,-0.17 -6.88,2.78 -1.51,2.98 -0.75,6.15 1.77,7.43 0.69,0.35 1.55,0.55 2.19,0.51 l 1.27,-2.51 c 0.46,-0.91 -1.31,-2.97 -1.31,-2.97 l 6.04,3.05 c 0,0 -1.8,0.35 -2.22,1.19 z"
       id="path24" />
    <path
       class="st0"
       d="m 663.36,273.2 5.32,3.7 c 0,0 -2.28,-0.05 -2.88,0.82 l -4.61,6.62 c -0.57,0.82 0.25,2.96 0.25,2.96 l -5.32,-3.7 c 0,0 2.2,-0.06 2.71,-0.79 l 4.66,-6.69 c 0.61,-0.87 -0.13,-2.92 -0.13,-2.92 z"
       id="path25" />
    <path
       class="st0"
       d="m 682.36,308.69 -6.86,-8.5 c 0,0 2.26,0.79 3.04,0.16 l 6.34,-5.12 c 0.94,-0.76 0.5,-2.98 0.5,-2.98 l 4.34,5.37 c 0,0 -2.3,-0.84 -3.05,-0.24 l -6.53,5.27 c -0.59,0.47 -0.59,0.76 -0.09,1.38 l 1.63,2.01 c 0.86,1.06 4.37,1.55 4.37,1.55 l -3.69,1.07 z"
       id="path26" />
    <path
       class="st0"
       d="m 673.3,297.73 -8.03,-7.4 c 0,0 2.35,0.45 3.03,-0.28 l 5.53,-5.99 c 0.81,-0.88 0.07,-3.02 0.07,-3.02 l 5.08,4.68 c 0,0 -2.4,-0.49 -3.05,0.21 l -5.69,6.17 c -0.51,0.55 -0.47,0.84 0.11,1.38 l 1.9,1.75 c 1,0.93 4.55,0.9 4.55,0.9 z"
       id="path27" />
    <path
       class="st0"
       d="m 693.07,306.13 c 0.92,-1.33 0.99,-3.23 0.99,-3.23 l 3.62,6.07 c 0,0 -2.36,-1.3 -3.1,-0.19 l -4.03,5.98 7.72,-0.65 c 0.74,-0.11 0.85,-2.73 0.85,-2.73 l 2.65,4.45 c 0,0 -2.07,-0.85 -3.8,-0.6 l -11.92,1 7.01,-10.1 z"
       id="path28" />
    <path
       class="st0"
       d="m 701.8,322.64 v -0.04 c 0,0 -7,2.02 -7,2.02 -1.29,0.38 -2.09,2.52 -2.09,2.52 l -1.52,-4.26 c 0,0 1.74,1.11 3.37,0.64 l 7.1,-2.06 c 1,-0.29 1.75,-2.07 1.75,-2.07 l 1.45,4.05 -6.72,6.62 9.34,0.71 1.48,4.13 c 0,0 -1.35,-1.18 -2.7,-0.59 l -6.92,2.99 c -1.58,0.67 -2.04,2.64 -2.04,2.64 l -2.16,-6.04 c 0,0 1.39,1.54 2.64,1.09 0.31,-0.11 0.61,-0.24 0.89,-0.36 l 6.65,-2.88 v -0.04 c 0,0 -11.26,-0.83 -11.26,-0.83 l -0.16,-0.46 7.91,-7.77 z"
       id="path29" />
    <path
       class="st0"
       d="m 703.11,368.14 c -1.24,-0.05 -2.53,1.91 -2.53,1.91 l 0.2,-4.93 c 0,0 1.17,1.72 2.01,1.76 l 9.35,0.39 c 0.32,-0.44 1.31,-1.58 1.31,-1.58 l -0.17,4.19 -9.02,7.95 6.15,0.25 c 1.47,0.06 2.61,-2.03 2.61,-2.03 l -0.22,5.25 c 0,0 -0.98,-1.92 -1.75,-1.95 l -10.89,-0.45 0.05,-1.12 10.6,-9.33 -7.7,-0.32 z"
       id="path30" />
    <path
       class="st0"
       d="m 711.89,385.44 -1.26,6.36 c 0,0 -0.87,-2.11 -1.91,-2.31 l -7.91,-1.57 c -0.98,-0.19 -2.61,1.41 -2.61,1.41 l 1.26,-6.36 c 0,0 0.93,1.99 1.81,2.17 l 7.99,1.59 c 1.04,0.21 2.62,-1.29 2.62,-1.29 z"
       id="path31" />
    <path
       class="st0"
       d="m 698.73,419.78 2.03,-3.97 -4.08,-2.09 -1.5,2.94 c -0.51,1 0.24,2.75 0.24,2.75 l -3.61,-1.85 c 0,0 1.8,-0.29 2.51,-1.69 l 1.37,-2.67 -3.26,-1.67 c -0.78,-0.4 -1.02,-0.34 -1.29,0.19 l -1.55,3.03 c -0.6,1.18 0.43,3.72 0.43,3.72 l -2.74,-1.68 5.59,-10.92 c 0,0 0.02,2.73 0.91,3.19 l 7.24,3.71 c 0.98,0.5 2.93,-0.72 2.93,-0.72 l -5.12,9.99 -2.72,-1.17 c 0,0 2.2,-0.27 2.63,-1.1 z"
       id="path32" />
    <path
       class="st0"
       d="m 677.7,435.89 c 0,0 -4.05,-0.25 -5.18,0.9 -0.95,0.96 -1.05,2.28 -0.24,3.08 2.16,2.13 6.68,-2.59 9.56,0.25 1.39,1.37 1.16,3.55 -0.55,5.28 -1.1,1.12 -2.34,1.61 -2.55,1.83 -0.1,0.1 -0.46,0.78 -0.46,0.78 l -2.62,-2.04 c 0,0 3.75,0.09 4.85,-1.02 0.8,-0.81 0.97,-1.85 0.4,-2.41 -1.33,-1.32 -3.96,0.84 -7.19,0.86 -1.18,0 -2.03,-0.38 -2.73,-1.06 -1.51,-1.49 -1.35,-4.03 0.35,-5.75 1.15,-1.16 2.66,-1.76 2.91,-2.02 0.13,-0.13 0.16,-0.3 0.07,-0.53 l 0.37,-0.38 3,2.24 z"
       id="path33" />
    <path
       class="st0"
       d="m 673.42,452.21 -5.11,3.99 c 0,0 0.72,-2.16 0.06,-3 l -4.97,-6.36 c -0.62,-0.79 -2.9,-0.63 -2.9,-0.63 l 5.11,-3.99 c 0,0 -0.59,2.12 -0.04,2.83 l 5.02,6.42 c 0.65,0.83 2.83,0.74 2.83,0.74 z"
       id="path34" />
    <path
       class="st0"
       d="m 617.64,477.25 -6.45,0.66 c 0,0 1.76,-1.45 1.65,-2.5 l -0.83,-8.03 c -0.1,-0.99 -2.12,-2.08 -2.12,-2.08 l 6.45,-0.66 c 0,0 -1.63,1.48 -1.54,2.37 l 0.83,8.11 c 0.11,1.05 2,2.13 2,2.13 z"
       id="path35" />
    <path
       class="st0"
       d="m 604.79,469.13 c 0,0 -2.63,-3.09 -4.24,-3.11 -1.35,-0.02 -2.38,0.82 -2.39,1.97 -0.04,3.04 6.5,3.02 6.45,7.06 -0.03,1.96 -1.76,3.3 -4.18,3.27 -1.57,-0.02 -2.78,-0.57 -3.09,-0.57 -0.14,0 -0.88,0.21 -0.88,0.21 l -0.34,-3.31 c 0,0 2.53,2.76 4.1,2.79 1.14,0.02 2,-0.58 2.02,-1.38 0.02,-1.87 -3.35,-2.27 -5.6,-4.58 -0.82,-0.85 -1.14,-1.73 -1.13,-2.71 0.03,-2.12 1.97,-3.76 4.39,-3.73 1.63,0.02 3.11,0.69 3.48,0.7 0.18,0 0.96,-0.31 0.96,-0.31 l 0.46,3.72 z"
       id="path36" />
    <path
       class="st0"
       d="m 569.39,464.55 0.8,-2.93 c 1.59,-0.26 3.78,-0.3 5.47,0.16 4.97,1.36 6.62,4.79 5.58,8.56 -0.98,3.6 -4.68,5.44 -8.86,4.3 -2.02,-0.55 -3.41,-1.67 -4.08,-1.85 -0.29,-0.08 -1.15,-0.04 -1.15,-0.04 l 0.98,-3.6 c 0,0 1.94,3.95 3.99,4.51 2.79,0.76 5.32,-0.91 6.19,-4.1 0.88,-3.22 -0.49,-6.18 -3.22,-6.92 -0.75,-0.2 -1.63,-0.23 -2.24,-0.06 l -0.74,2.71 c -0.43,1.77 1.88,2.65 1.88,2.65 l -6.53,-1.78 c 0,0 1.69,-0.7 1.94,-1.6 z"
       id="path37" />
    <path
       class="st0"
       d="m 529.23,437.66 -2.5,2.62 4.87,4.64 2.53,-2.65 c 0.75,-0.78 0.25,-2.98 0.25,-2.98 l 4.73,4.52 c 0,0 -2.21,-0.37 -2.92,0.37 l -5.6,5.87 c -0.7,0.74 -0.23,2.93 -0.23,2.93 l -4.73,-4.52 c 0,0 2.14,0.47 2.93,-0.36 l 2.21,-2.31 -4.87,-4.64 -2.17,2.27 c -0.79,0.83 -0.31,2.95 -0.31,2.95 l -4.72,-4.5 c 0,0 2.19,0.45 2.95,-0.34 l 5.57,-5.84 c 0.73,-0.77 0.23,-2.99 0.23,-2.99 l 4.72,4.5 c 0,0 -2.18,-0.34 -2.94,0.46 z"
       id="path38" />
    <path
       class="st0"
       d="m 494.21,387.19 v 0.04 c 0,0 7.26,-0.51 7.26,-0.51 1.34,-0.1 2.57,-2.03 2.57,-2.03 l 0.6,4.48 c 0,0 -1.47,-1.45 -3.16,-1.33 l -7.37,0.53 c -1.04,0.08 -2.14,1.66 -2.14,1.66 l -0.57,-4.26 7.96,-5.06 -8.99,-2.65 -0.58,-4.34 c 0,0 1.08,1.44 2.52,1.15 l 7.39,-1.47 c 1.68,-0.33 2.55,-2.15 2.55,-2.15 l 0.84,6.36 c 0,0 -1.04,-1.79 -2.35,-1.62 -0.32,0.04 -0.64,0.11 -0.94,0.17 l -7.11,1.42 v 0.04 c 0,0 10.83,3.17 10.83,3.17 l 0.06,0.48 -9.37,5.93 z"
       id="path39" />
    <path
       class="st0"
       d="m 709.92,350.7 c 1.4,-0.8 2.29,-2.48 2.29,-2.48 l 0.63,7.04 c 0,0 -1.57,-2.19 -2.71,-1.52 l -5.54,3.18 6.71,3.06 c 0.72,0.22 1.79,-1.92 1.79,-1.92 l 0.46,5.16 c 0,0 -1.5,-1.67 -3.16,-2.19 l -10.46,-4.6 9.98,-5.73 z"
       id="path40" />
    <path
       class="st0"
       d="m 706.8,396.63 c 1.6,-0.21 3.06,-1.42 3.06,-1.42 l -2.08,6.76 c 0,0 -0.62,-2.62 -1.94,-2.43 l -6.33,0.85 5.05,5.37 c 0.58,0.48 2.39,-1.1 2.39,-1.1 l -1.52,4.95 c 0,0 -0.76,-2.11 -2.1,-3.23 l -7.94,-8.22 11.41,-1.52 z"
       id="path41" />
    <path
       class="st0"
       d="m 498.96,404.74 c -1.17,1.11 -1.64,2.95 -1.64,2.95 L 495.03,401 c 0,0 2.05,1.75 3,0.82 l 4.62,-4.41 -7.24,-1.37 c -0.75,-0.04 -1.28,2.29 -1.28,2.29 l -1.68,-4.9 c 0,0 1.85,1.26 3.6,1.37 l 11.26,1.98 -8.33,7.94 z"
       id="path42" />
    <path
       class="st0"
       d="m 543.89,449.55 c 0.6,-0.87 -0.54,-3.2 -0.54,-3.2 l 6.03,4.18 c 0,0 -2.57,-0.27 -3.18,0.62 l -5.64,8.22 1.98,1.37 c 1.29,0.89 3.87,-0.25 3.87,-0.25 l -2.09,2.51 -10.66,-7.38 1.49,-2.93 c 0,0 -0.16,2.81 1.13,3.71 l 1.98,1.37 5.64,-8.22 z"
       id="path43" />
    <path
       class="st0"
       d="m 624.23,465.24 c -0.24,-1.03 -2.73,-1.75 -2.73,-1.75 l 7.14,-1.67 c 0,0 -1.92,1.73 -1.67,2.78 l 2.23,9.4 2.34,-0.55 c 1.53,-0.36 2.41,-3.03 2.41,-3.03 l 0.46,3.24 -12.62,2.95 -1.17,-3.07 c 0,0 1.98,2.01 3.5,1.65 l 2.34,-0.55 z"
       id="path44" />
    <path
       class="st0"
       d="m 652.3,454.25 c -0.53,-0.92 -3.12,-0.87 -3.12,-0.87 l 6.34,-3.69 c 0,0 -1.33,2.21 -0.79,3.15 l 5.06,8.59 2.08,-1.21 c 1.36,-0.79 1.41,-3.61 1.41,-3.61 l 1.39,2.96 -11.2,6.52 -2.02,-2.59 c 0,0 2.48,1.34 3.83,0.55 l 2.08,-1.21 z"
       id="path45" />
    <path
       class="st0"
       d="m 702.92,344.62 c 0,-1.11 0.91,-1.99 2.02,-1.99 1.1,0 1.99,0.91 1.99,2.02 0,1.11 -0.91,1.99 -2.02,1.99 -1.11,0 -1.99,-0.91 -1.99,-2.02 z"
       id="path46" />
    <path
       class="st0"
       d="m 586.36,470.48 c 0,-1.11 0.91,-1.99 2.02,-1.99 1.11,0 1.99,0.91 1.99,2.02 0,1.11 -0.91,1.99 -2.02,1.99 -1.11,0 -1.99,-0.91 -1.99,-2.02 z"
       id="path47" />
    <path
       class="st0"
       d="m 494.43,365.98 c 0,-1.1 0.91,-1.99 2.02,-1.99 1.1,0 1.99,0.91 1.99,2.02 0,1.11 -0.91,1.99 -2.02,1.99 -1.1,0 -1.99,-0.91 -1.99,-2.02 z"
       id="path48" />
    <path
       class="st0"
       d="m 512.35,308.74 c -2.49,-1.81 -3.11,-4.35 -1.59,-6.44 1.82,-2.51 5.25,-2.03 7.91,-0.1 2.28,1.65 3.48,4.16 1.81,6.45 -1.69,2.32 -4.98,2.38 -8.13,0.09 z m -0.99,3.04 c 2.77,2.01 6.8,1.56 9.55,-2.23 2.86,-3.94 1.88,-8.1 -1.05,-10.24 -3.08,-2.24 -7.02,-1.37 -9.52,2.08 -2.67,3.68 -2.25,8.02 1.02,10.39 z"
       id="path49" />
    <path
       class="st0"
       d="m 564.46,269.56 -4.01,1.27 0.18,-5.92 z m 2.56,-1.62 3.57,-1.35 c 1.47,-0.55 3.47,0.08 3.47,0.08 l -2.81,-3.23 c 0,0 -0.19,1.77 -1.24,2.16 l -3.75,1.52 -3.3,-4.03 5.43,-1.81 c 0.88,-0.33 3.08,0.46 3.08,0.46 l -2.35,-2.19 -11.54,3.97 c 0,0 1.46,0.39 1.21,2.37 l -0.16,8.68 c -0.17,1.52 -1.1,3.08 -1.1,3.08 l 4.39,-1.64 c 0,0 -1.9,-0.79 -1.79,-1.77 l 0.22,-2.49 4.82,-1.47 2.71,3.32 10.67,-4.09 -2.26,-2.48 c 0,0 0.79,1.83 -0.45,2.29 l -5.68,2.22 z"
       id="path50" />
    <path
       class="st0"
       d="m 509.69,324.34 c 0.94,0.44 3.01,-1.05 3.01,-1.05 l -3.01,6.47 c 0,0 -0.11,-2.37 -1.18,-2.87 l -7.3,-3.4 c -0.89,-0.41 -2.99,0.88 -2.99,0.88 0.37,-0.95 0.66,-1.67 0.96,-2.45 0.41,-1.07 0.97,-2.42 1.28,-3.09 1.26,-2.72 2.3,-4.03 3.66,-4.52 0.89,-0.33 1.72,-0.28 2.52,0.09 1.4,0.65 2.04,2.19 1.7,4.12 1.58,-0.75 3.34,-0.71 5.27,-1.42 1.11,-0.4 2.95,-1.6 2.95,-1.6 -0.17,0.42 -0.26,0.6 -0.51,1.15 -1.07,2.29 -1.84,3.08 -3.11,3.54 -1.35,0.49 -3.79,0.66 -5.36,1.37 l -0.68,1.46 2.81,1.31 z m -3.58,-1.67 0.34,-0.72 c 1.04,-2.24 0.96,-3.85 -1.02,-4.77 -1.96,-0.91 -3.36,0.26 -4.19,2.05 l -0.45,0.96 z"
       id="path51" />
    <path
       class="st0"
       d="m 502.24,339.99 1.74,1.43 c 0.76,0.62 2.49,-1.29 2.49,-1.29 l -1.59,5.35 c 0,0 -0.51,-2.08 -1.55,-2.93 l -9.74,-8.26 v 0 l 12.82,-1.99 c 1.28,-0.2 2.79,-1.38 2.79,-1.38 l -1.95,6.56 c 0,0 -0.5,-2.45 -1.45,-2.29 l -2.26,0.37 -1.31,4.42 z m -4.11,-3.52 3.48,2.85 1.05,-3.55 -4.54,0.7 z"
       id="path52" />
    <path
       class="st0"
       d="m 511.77,413.46 c 0.92,-0.49 0.97,-3.03 0.97,-3.03 l 3.35,6.3 c 0,0 -1.96,-1.34 -3,-0.78 l -7.11,3.78 c -0.86,0.46 -1.1,2.92 -1.1,2.92 -0.53,-0.87 -0.93,-1.54 -1.38,-2.24 -0.61,-0.97 -1.35,-2.24 -1.69,-2.88 -1.41,-2.65 -1.83,-4.27 -1.41,-5.64 0.28,-0.91 0.82,-1.54 1.59,-1.95 1.37,-0.73 2.97,-0.31 4.31,1.12 0.36,-1.71 1.45,-3.1 2.04,-5.06 0.35,-1.13 0.5,-3.31 0.5,-3.31 0.23,0.39 0.32,0.57 0.61,1.11 1.19,2.23 1.35,3.32 0.95,4.62 -0.42,1.38 -1.76,3.43 -2.13,5.1 l 0.76,1.42 2.74,-1.45 z m -3.42,1.72 -0.37,-0.7 c -1.16,-2.18 -2.49,-3.08 -4.42,-2.06 -1.91,1.01 -1.82,2.83 -0.89,4.58 l 0.5,0.94 5.18,-2.75 z"
       id="path53" />
    <path
       class="st0"
       d="m 510.81,432.38 c -2.54,-3.42 -2.19,-7.44 0.88,-9.7 2.91,-2.16 7.18,-1.84 10.08,2.07 2.79,3.77 2.01,7.74 -0.74,9.78 -3.24,2.4 -7.51,1.5 -10.21,-2.15 z m 9.98,-7.49 c -1.69,-2.28 -4.44,-1.89 -6.7,-0.21 -2.64,1.95 -4.12,5.08 -2.28,7.57 1.54,2.08 4.15,2.25 6.62,0.42 3.13,-2.32 4.06,-5.47 2.35,-7.78 z"
       id="path54" />
    <path
       class="st0"
       d="m 554.38,468.13 c -3.86,-1.79 -5.48,-5.48 -3.87,-8.94 1.53,-3.29 5.42,-5.05 9.84,-3 4.25,1.97 5.47,5.84 4.03,8.95 -1.7,3.66 -5.87,4.91 -10,3 z m 5.18,-11.35 c -2.57,-1.19 -4.8,0.47 -5.98,3.02 -1.38,2.98 -1.19,6.44 1.62,7.74 2.35,1.09 4.72,0 6.02,-2.8 1.64,-3.53 0.95,-6.75 -1.65,-7.96 z"
       id="path55" />
    <path
       class="st0"
       d="m 684.3,425.09 c -0.83,-0.62 -3.16,0.41 -3.16,0.41 l 4.28,-5.71 c 0,0 -0.38,2.34 0.57,3.05 l 6.44,4.83 c 0.78,0.59 3.11,-0.24 3.11,-0.24 -0.56,0.85 -0.99,1.5 -1.45,2.2 -0.62,0.96 -1.45,2.17 -1.89,2.76 -1.8,2.4 -3.08,3.47 -4.51,3.67 -0.94,0.13 -1.74,-0.09 -2.45,-0.61 -1.24,-0.93 -1.55,-2.56 -0.82,-4.38 -1.7,0.4 -3.42,0 -5.44,0.3 -1.17,0.17 -3.21,0.95 -3.21,0.95 0.25,-0.37 0.37,-0.53 0.74,-1.02 1.52,-2.02 2.43,-2.63 3.77,-2.83 1.43,-0.2 3.85,0.13 5.53,-0.24 l 0.97,-1.29 -2.48,-1.86 z m 3.1,2.43 -0.48,0.64 c -1.48,1.97 -1.73,3.57 0.01,4.87 1.73,1.3 3.34,0.44 4.52,-1.14 l 0.64,-0.85 -4.7,-3.52 z"
       id="path56" />
    <path
       class="st0"
       d="m 643.41,460.66 0.05,-2.25 c 0.01,-0.98 -2.56,-1.16 -2.56,-1.16 l 5.19,-2.06 c 0,0 -1.32,1.69 -1.35,3.03 l -0.48,12.76 v 0 l -9.48,-8.86 c -0.95,-0.88 -2.81,-1.35 -2.81,-1.35 l 6.36,-2.52 c 0,0 -1.62,1.9 -0.9,2.55 l 1.69,1.54 4.29,-1.7 z m -0.22,5.41 0.1,-4.5 -3.45,1.36 z"
       id="path57" />
    <path
       class="st0"
       d="m 603,283.94 c -0.56,-1.47 -2.03,-2.58 -2.03,-2.58 l 6.85,0.46 c 0,0 -2.34,1.17 -1.87,2.37 l 2.21,5.79 3.95,-5.97 c 0.32,-0.65 -1.57,-2.01 -1.57,-2.01 l 5.01,0.34 c 0,0 -1.83,1.19 -2.58,2.7 l -6.01,9.33 -3.97,-10.44 z"
       id="path58" />
    <path
       class="st0"
       d="m 546.73,304.88 c -1.4,-0.71 -3.23,-0.55 -3.23,-0.55 l 5.39,-4.26 c 0,0 -0.95,2.44 0.21,3.01 l 5.53,2.81 -1.08,-7.08 c -0.2,-0.7 -2.51,-0.44 -2.51,-0.44 l 3.94,-3.12 c 0,0 -0.56,2.1 -0.1,3.74 l 1.81,10.95 -9.96,-5.07 z"
       id="path59" />
    <path
       class="st0"
       d="m 652.36,301.11 c 0.47,-1.49 0,-3.28 0,-3.28 l 5.09,4.61 c 0,0 -2.56,-0.53 -2.94,0.7 l -1.91,6.26 6.85,-2.58 c 0.66,-0.31 0.02,-2.55 0.02,-2.55 l 3.72,3.38 c 0,0 -2.17,-0.2 -3.7,0.52 l -10.5,3.59 3.36,-10.66 z"
       id="path60" />
    <path
       class="st0"
       d="m 568.36,299.83 c 0.44,0.93 2.95,1.11 2.95,1.11 l -6.45,3.03 c 0,0 1.48,-2.03 1.03,-2.98 l -4.15,-8.74 -2.11,0.99 c -1.38,0.65 -1.68,3.37 -1.68,3.37 l -1.09,-2.98 11.39,-5.35 1.73,2.68 c 0,0 -2.28,-1.51 -3.66,-0.86 l -2.11,0.99 z"
       id="path61" />
    <path
       class="st0"
       d="m 620.1,286.08 h -0.04 c 0,0 -2.45,6.61 -2.45,6.61 -0.45,1.23 0.76,3.08 0.76,3.08 l -4.21,-1.27 c 0,0 1.87,-0.72 2.44,-2.26 l 2.49,-6.73 c 0.35,-0.95 -0.61,-2.56 -0.61,-2.56 l 4,1.21 1.29,9.07 5.95,-6.89 4.07,1.23 c 0,0 -1.71,0.37 -2.02,1.77 l -1.66,7.13 c -0.39,1.62 0.88,3.12 0.88,3.12 l -5.97,-1.8 c 0,0 2,-0.2 2.38,-1.43 0.09,-0.3 0.16,-0.61 0.23,-0.9 l 1.6,-6.86 h -0.04 c 0,0 -7.14,8.29 -7.14,8.29 l -0.45,-0.14 -1.49,-10.66 z"
       id="path62" />
    <path
       class="st0"
       d="m 668.87,316.19 -2.67,-3.42 -3.51,2.74 1.97,2.53 c 0.67,0.86 2.52,0.92 2.52,0.92 l -3.1,2.42 c 0,0 0.48,-1.7 -0.46,-2.9 l -1.79,-2.29 -2.81,2.19 c -0.67,0.52 -0.71,0.76 -0.36,1.21 l 2.03,2.61 c 0.79,1.01 3.45,1.15 3.45,1.15 l -2.6,1.72 -7.33,-9.39 c 0,0 2.42,1.1 3.18,0.51 l 6.23,-4.86 c 0.84,-0.66 0.57,-2.88 0.57,-2.88 l 6.71,8.6 -2.14,1.92 c 0,0 0.66,-2.05 0.1,-2.77 z"
       id="path63" />
    <path
       class="st0"
       d="m 591.56,292.39 c 0.1,1 2.38,1.98 2.38,1.98 l -6.89,0.72 c 0,0 1.92,-1.27 1.8,-2.42 l -0.81,-7.77 c -0.1,-0.94 -2.22,-2.06 -2.22,-2.06 0.98,-0.16 1.72,-0.28 2.52,-0.42 1.09,-0.19 2.51,-0.4 3.21,-0.47 2.89,-0.3 4.51,-0.09 5.59,0.79 0.72,0.58 1.09,1.3 1.18,2.14 0.16,1.5 -0.8,2.79 -2.58,3.47 1.41,0.95 2.26,2.43 3.81,3.68 0.89,0.72 2.8,1.66 2.8,1.66 -0.43,0.06 -0.63,0.08 -1.22,0.15 -2.44,0.25 -3.48,0 -4.5,-0.82 -1.09,-0.88 -2.44,-2.83 -3.82,-3.78 l -1.55,0.16 0.31,2.99 z m -0.32,-3.8 0.77,-0.08 c 2.38,-0.25 3.68,-1.12 3.46,-3.23 -0.22,-2.09 -1.89,-2.67 -3.8,-2.47 l -1.02,0.11 z"
       id="path64" />
    <path
       class="st0"
       d="m 528.43,322.87 c 0.57,-0.91 1.24,-1.93 1.71,-2.69 0.52,-0.84 0.92,-1.48 1.48,-2.27 2.28,-3.23 3.76,-4.47 5.8,-4.82 1.46,-0.25 2.98,0.07 4.35,1.04 1.47,1.04 2.31,2.6 2.56,4.06 0.24,1.41 0.12,3.33 -2.22,6.64 l -3.63,5.14 c 0,0 0.22,-2.1 -0.7,-2.75 l -6.24,-4.4 c -1.15,-0.81 -3.11,0.05 -3.11,0.05 z m 10.82,2.04 c 1.08,0.76 1.34,0.71 2.22,-0.54 2.57,-3.64 0.74,-6.33 -1.18,-7.69 -1.34,-0.95 -2.89,-1.33 -4.13,-1.12 -1.35,0.23 -2.49,1.05 -3.65,2.7 -0.31,0.44 -0.54,0.8 -0.81,1.32 z"
       id="path65" />
    <path
       class="st0"
       d="m 529.82,339.7 1.54,1.55 c 0.67,0.67 2.54,-1 2.54,-1 l -2.07,5.01 c 0,0 -0.29,-2.06 -1.21,-2.99 l -8.58,-8.95 v 0 l 12.58,-0.64 c 1.26,-0.06 2.84,-1.05 2.84,-1.05 l -2.54,6.14 c 0,0 -0.23,-2.41 -1.17,-2.35 l -2.22,0.14 z m -3.62,-3.81 3.08,3.11 1.37,-3.33 z"
       id="path66" />
    <g
       id="g68">
      <path
         class="st0"
         d="m 644.73,292.49 c 3.63,1.98 4.96,5.66 3.18,8.91 -1.69,3.09 -5.58,4.55 -9.73,2.28 -3.99,-2.18 -4.93,-6.01 -3.33,-8.92 1.88,-3.44 6,-4.39 9.88,-2.27 z m -5.74,10.67 c 2.41,1.32 4.68,-0.15 5.99,-2.54 1.53,-2.8 1.56,-6.16 -1.08,-7.6 -2.21,-1.21 -4.58,-0.29 -6.01,2.33 -1.81,3.32 -1.35,6.48 1.1,7.82 z"
         id="path67" />
      <path
         class="st0"
         d="m 645.09,312.81 c -4.17,-3.41 -2.76,-2.92 -3.9,-6.52 -1.14,-3.61 -0.36,-8.72 -1.17,-9.29 -0.81,-0.57 1.81,-0.78 2.7,6.95 0.89,7.72 2.37,8.86 2.37,8.86 z"
         id="path68" />
    </g>
    <path
       class="st0"
       d="m 541.53,468.97 c -35.07,-20.71 -58.64,-58.9 -58.64,-102.5 0,-65.59 53.36,-118.94 118.94,-118.94 65.58,0 118.94,53.36 118.94,118.94 0,65.58 -53.36,118.94 -118.94,118.94 -21.7,0 -42.07,-5.84 -59.6,-16.04 l -1.92,-1.04 -1.36,1.96 1.94,1.27 c 17.92,10.43 38.75,16.41 60.94,16.41 67,0 121.5,-54.51 121.5,-121.5 0,-66.99 -54.51,-121.5 -121.5,-121.5 -66.99,0 -121.5,54.51 -121.5,121.5 0,44.52 24.06,83.52 59.87,104.68 l 1.47,0.74 1.16,-2.08 -1.3,-0.85 z"
       id="path69" />
    <path
       class="st0"
       d="m 554.2,443.73 c -25.83,-15.99 -43.13,-44.71 -43.13,-77.25 0,-42.14 29.04,-77.79 68.07,-87.89 l 0.7,-2.09 c -40.49,9.9 -70.62,46.48 -70.62,89.97 0,33.26 17.62,62.48 44.02,78.81 l 1.41,0.77 0.84,-1.48 -1.29,-0.85 z"
       id="path70" />
    <path
       class="st0"
       d="m 554.1,445.81 c 13.95,8.42 30.29,13.28 47.74,13.28 51.07,0 92.61,-41.54 92.61,-92.61 0,-51.07 -41.55,-92.61 -92.61,-92.61 -5.92,0 -11.71,0.56 -17.33,1.63 l -0.3,1.94 c 5.7,-1.13 11.6,-1.72 17.63,-1.72 49.97,0 90.76,40.79 90.76,90.76 0,49.97 -40.79,90.63 -90.76,90.63 -17.15,0 -33.21,-4.79 -46.9,-13.1 l -1.39,-0.8 -1.4,1.24 1.96,1.37 z"
       id="path71" />
    <g
       id="g73">
      <path
         class="st0"
         d="m 600.9,266.81 c -0.83,-0.04 -1.66,-0.27 -2.43,-0.72 -0.73,-0.42 -1.32,-0.99 -1.76,-1.64"
         id="path72" />
      <path
         class="st0"
         d="m 602.25,259.39 3.11,-3 c 0.65,0.52 1.18,1.2 1.54,2.01 0.34,0.77 0.49,1.58 0.46,2.37 l -4.3,0.35 3.86,2.04 c -0.29,0.78 -0.77,1.5 -1.43,2.09 -0.63,0.56 -1.35,0.95 -2.11,1.17 l -1.71,-4 -0.76,4.38 c -0.83,-0.04 -1.66,-0.27 -2.43,-0.72 -0.73,-0.42 -1.32,-0.99 -1.76,-1.64 l 3.28,-2.95 -4.19,0.67 c -0.22,-0.8 -0.25,-1.66 -0.07,-2.53 0.18,-0.82 0.53,-1.56 1.02,-2.19 l 3.61,2.18 -1.9,-3.62 c 0.69,-0.46 1.5,-0.76 2.39,-0.85 0.84,-0.09 1.65,0.02 2.39,0.29 l -0.98,3.94 z"
         id="path73" />
    </g>
    <g
       id="g80">
      <g
         id="g75">
        <path
           class="st0"
           d="m 638.27,345.71 8.15,-4.34 c -0.79,-0.02 -1.89,-0.72 -2.19,-1.7 -0.31,-0.98 0.58,-1.61 0.58,-1.61 0.03,0.04 0.06,0.08 0.1,0.11 0.06,0.07 0.11,0.13 0.11,0.13 v -0.03 c 0.19,0.13 0.44,0.02 0.69,0.01 0.56,-0.02 0.67,-0.24 0.65,-0.75 -0.02,-0.51 -0.46,-0.98 -1,-0.82 -0.48,0.14 -1.23,0.25 -1.65,-0.04 -0.15,-0.1 -0.18,-0.57 -0.06,-0.96 0.04,-0.23 0.25,-0.71 0.25,-0.83 -0.02,-0.35 -0.44,-0.61 -0.83,-0.59 -0.39,0.02 -0.74,0.33 -0.73,0.68 0.02,0.5 0.34,0.7 0.56,0.95 0.33,0.38 0.21,0.68 0.1,0.87 -0.09,0.14 -1.04,0.47 -1.04,0.47 l 0.02,0.04 c -0.07,-0.01 -0.15,-0.02 -0.23,-0.01 -0.56,0.02 -0.95,0.29 -0.93,0.81 0.02,0.51 0.33,0.87 0.89,0.85 0.36,-0.02 0.67,-0.2 0.84,-0.47 0,0 0.83,0.63 0.72,1.44 -0.11,0.79 -0.17,1.44 -1.67,1.9 -1.23,0.38 -1.98,-0.35 -1.98,-0.35 0,0 -0.36,1.06 -1.46,0.94 -1.69,-0.19 -1.99,-2.23 -1.99,-2.23 0,0 0.7,0.03 1.05,-0.88 0.3,-0.77 -0.21,-1.24 -1.04,-1.35 -0.5,-0.07 -1.13,0.71 -1.83,0.41 -0.7,-0.3 0.36,-1.66 -0.55,-2.18 -0.84,-0.48 -1.32,0.61 -1.32,0.61 0,0 1.29,1.33 2.97,3.75 1.34,1.94 3.23,4.24 3.23,4.24 l -0.96,0.64 c 0,0 -1.3,-2.02 -3.36,-4.8 -1.75,-2.37 -3.12,-3.84 -3.12,-3.84 0,0 -0.05,-0.2 0.44,-0.7 0.62,-0.64 1.57,-1.52 2.71,-1 1.14,0.51 0.56,2.3 0.56,2.3 0,0 0.61,-0.68 1.63,-0.54 1.1,0.15 2.08,1.17 1.9,2.14 -0.25,1.38 -1.1,1.72 -1.1,1.72 0,0 -0.13,0.54 0.92,0.43 0.64,-0.07 1.07,-1.01 1.07,-1.01 0.05,-0.02 1.59,1.41 2.42,0.33 0.08,-0.1 0.13,-0.23 0.19,-0.35 -0.13,0.03 -0.26,0.05 -0.4,0.05 -1.05,0.01 -1.92,-0.85 -1.94,-1.93 -0.01,-1.08 0.83,-1.96 1.88,-1.97 0.4,0 0.11,-0.03 0.65,0.07 v 0 c -0.42,-0.23 -0.96,-0.68 -0.97,-1.46 -0.01,-0.9 0.95,-1.82 1.83,-1.83 0.88,-0.01 2,0.8 2.01,1.71 0,0.57 -0.3,1.02 -0.54,1.27 v 0 c 0.24,-0.26 0.6,-0.4 1.15,-0.41 1.05,-0.01 1.92,0.85 1.94,1.93 0.02,1.08 -0.83,1.96 -1.88,1.97 -0.09,0 -0.17,-0.01 -0.25,-0.02 0.01,0.02 0.03,0.03 0.04,0.04 0.37,0.32 0.84,0.46 1.25,0.53 1.29,0.23 1.44,-0.78 1.44,-0.78 0,0 0.62,0.59 1.24,0.39 1,-0.33 0.8,-0.95 0.8,-0.95 0,0 -0.93,0.14 -1.72,-1.02 -0.56,-0.81 -0.5,-1.72 0.45,-2.31 0.88,-0.54 2.05,-0.22 2.05,-0.22 0,0 -1.1,-1.28 -0.26,-2.22 0.83,-0.93 2.03,-0.51 2.85,-0.18 0.65,0.26 1.06,0.49 1.06,0.49 0,0 -0.87,1.47 -1.51,4.34 -0.83,3.73 -1.31,5.75 -1.31,5.75 l -1.02,-0.28 c 0,0 0.58,-3.24 1.16,-5.62 0.65,-2.66 1.27,-3.55 1.27,-3.55 0,0 -1.02,-0.91 -1.59,-0.13 -0.62,0.85 0.81,1.49 0.29,2.05 -0.51,0.56 -1.44,0 -1.87,0.26 -0.71,0.44 -0.65,0.72 -0.23,1.31 0.43,0.6 1.28,0.37 1.28,0.37 0,0 0.66,2.05 -0.8,2.92 -0.96,0.56 -1.84,-0.15 -1.84,-0.15 0,0 -0.3,0.93 -2.04,0.89 z"
           id="path74" />
        <path
           class="st0"
           d="m 637.46,344.95 c -0.12,-1.02 3.02,-2.22 7,-2.66 3.98,-0.44 7.3,0.03 7.42,1.05 0.12,1.02 -3.02,2.22 -7,2.66 -3.98,0.44 -7.3,-0.03 -7.42,-1.05 z m 6.68,0.06 c 2.42,-0.25 4.04,-0.7 3.93,-1.35 -0.07,-0.41 -2.06,-0.55 -4.48,-0.29 -2.42,0.25 -4.35,0.8 -4.29,1.21 0.05,0.42 2.42,0.68 4.84,0.43 z"
           id="path75" />
      </g>
      <g
         id="g77">
        <path
           class="st0"
           d="m 663.07,342.12 8.15,-4.34 c -0.79,-0.02 -1.89,-0.72 -2.2,-1.7 -0.31,-0.98 0.58,-1.61 0.58,-1.61 0.03,0.04 0.06,0.07 0.1,0.11 0.06,0.07 0.11,0.12 0.11,0.12 v -0.03 c 0.19,0.13 0.44,0.02 0.69,0.01 0.56,-0.02 0.67,-0.24 0.65,-0.75 -0.02,-0.51 -0.46,-0.98 -1,-0.82 -0.48,0.14 -1.23,0.25 -1.65,-0.04 -0.15,-0.1 -0.18,-0.57 -0.06,-0.96 0.04,-0.23 0.25,-0.71 0.25,-0.83 -0.02,-0.35 -0.44,-0.61 -0.83,-0.59 -0.39,0.02 -0.74,0.33 -0.73,0.68 0.02,0.5 0.34,0.7 0.56,0.95 0.33,0.38 0.21,0.68 0.1,0.87 -0.09,0.14 -1.04,0.47 -1.04,0.47 l 0.02,0.04 c -0.07,-0.01 -0.15,-0.02 -0.23,-0.01 -0.56,0.02 -0.95,0.29 -0.93,0.81 0.02,0.51 0.33,0.88 0.89,0.85 0.36,-0.02 0.67,-0.21 0.84,-0.47 0,0 0.83,0.63 0.72,1.44 -0.11,0.79 -0.17,1.44 -1.67,1.9 -1.23,0.38 -1.98,-0.35 -1.98,-0.35 0,0 -0.36,1.06 -1.46,0.94 -1.69,-0.19 -1.99,-2.23 -1.99,-2.23 0,0 0.7,0.03 1.05,-0.88 0.3,-0.77 -0.21,-1.24 -1.04,-1.35 -0.5,-0.07 -1.13,0.71 -1.83,0.41 -0.7,-0.3 0.36,-1.66 -0.55,-2.18 -0.84,-0.48 -1.32,0.61 -1.32,0.61 0,0 1.29,1.33 2.97,3.75 1.34,1.94 3.23,4.24 3.23,4.24 l -0.96,0.64 c 0,0 -1.3,-2.02 -3.36,-4.8 -1.75,-2.37 -3.12,-3.84 -3.12,-3.84 0,0 -0.05,-0.2 0.44,-0.7 0.62,-0.64 1.57,-1.52 2.71,-1 1.14,0.51 0.56,2.3 0.56,2.3 0,0 0.62,-0.68 1.63,-0.54 1.1,0.15 2.08,1.17 1.9,2.14 -0.25,1.38 -1.1,1.72 -1.1,1.72 0,0 -0.13,0.53 0.92,0.43 0.64,-0.07 1.07,-1.01 1.07,-1.01 0.05,-0.02 1.59,1.41 2.42,0.33 0.08,-0.1 0.13,-0.23 0.19,-0.35 -0.13,0.03 -0.26,0.05 -0.4,0.05 -1.05,0.01 -1.92,-0.85 -1.94,-1.93 -0.02,-1.08 0.83,-1.96 1.88,-1.97 0.39,0 0.11,-0.03 0.65,0.07 v 0 c -0.42,-0.23 -0.96,-0.68 -0.97,-1.46 -0.01,-0.9 0.95,-1.82 1.83,-1.83 0.88,-0.01 2,0.8 2.01,1.71 0,0.57 -0.3,1.02 -0.54,1.27 v 0 c 0.24,-0.26 0.6,-0.4 1.15,-0.41 1.05,-0.01 1.92,0.85 1.94,1.93 0.02,1.08 -0.83,1.96 -1.88,1.97 -0.09,0 -0.17,-0.01 -0.25,-0.02 0.02,0.02 0.03,0.03 0.04,0.04 0.37,0.32 0.84,0.46 1.25,0.53 1.29,0.23 1.44,-0.78 1.44,-0.78 0,0 0.62,0.59 1.23,0.39 1,-0.33 0.8,-0.95 0.8,-0.95 0,0 -0.93,0.14 -1.72,-1.02 -0.56,-0.81 -0.5,-1.72 0.45,-2.31 0.88,-0.54 2.05,-0.22 2.05,-0.22 0,0 -1.09,-1.28 -0.26,-2.22 0.83,-0.93 2.03,-0.51 2.85,-0.18 0.65,0.26 1.06,0.49 1.06,0.49 0,0 -0.87,1.46 -1.51,4.34 -0.83,3.73 -1.32,5.75 -1.32,5.75 l -1.02,-0.28 c 0,0 0.58,-3.24 1.16,-5.62 0.65,-2.66 1.27,-3.55 1.27,-3.55 0,0 -1.02,-0.91 -1.59,-0.13 -0.62,0.85 0.81,1.49 0.29,2.05 -0.51,0.56 -1.44,0 -1.87,0.26 -0.71,0.44 -0.65,0.72 -0.23,1.31 0.43,0.6 1.28,0.37 1.28,0.37 0,0 0.66,2.05 -0.8,2.92 -0.96,0.56 -1.84,-0.15 -1.84,-0.15 0,0 -0.3,0.93 -2.04,0.89 z"
           id="path76" />
        <path
           class="st0"
           d="m 662.26,341.36 c -0.12,-1.02 3.02,-2.22 7,-2.66 3.98,-0.44 7.3,0.03 7.42,1.05 0.12,1.02 -3.02,2.22 -7,2.66 -3.98,0.44 -7.3,-0.03 -7.42,-1.05 z m 6.69,0.06 c 2.42,-0.25 4.04,-0.7 3.93,-1.35 -0.07,-0.41 -2.06,-0.55 -4.48,-0.29 -2.42,0.25 -4.35,0.8 -4.29,1.21 0.05,0.41 2.42,0.68 4.84,0.43 z"
           id="path77" />
      </g>
      <g
         id="g79">
        <path
           class="st0"
           d="m 652.81,359.05 8.16,-4.34 c -0.79,-0.02 -1.89,-0.72 -2.19,-1.7 -0.31,-0.98 0.58,-1.61 0.58,-1.61 0.03,0.04 0.06,0.07 0.1,0.11 0.06,0.07 0.11,0.12 0.11,0.12 v -0.03 c 0.19,0.13 0.44,0.02 0.69,0.01 0.56,-0.02 0.67,-0.24 0.65,-0.75 -0.02,-0.51 -0.46,-0.98 -1,-0.82 -0.48,0.14 -1.23,0.25 -1.65,-0.04 -0.15,-0.1 -0.18,-0.57 -0.06,-0.96 0.04,-0.23 0.25,-0.71 0.25,-0.83 -0.02,-0.35 -0.44,-0.61 -0.83,-0.59 -0.39,0.02 -0.74,0.33 -0.73,0.68 0.02,0.5 0.34,0.7 0.56,0.94 0.33,0.38 0.21,0.68 0.1,0.87 -0.09,0.14 -1.04,0.47 -1.04,0.47 l 0.02,0.04 c -0.07,-0.01 -0.15,-0.02 -0.23,-0.01 -0.56,0.02 -0.95,0.29 -0.93,0.81 0.02,0.51 0.33,0.87 0.89,0.85 0.36,-0.02 0.67,-0.2 0.84,-0.47 0,0 0.83,0.63 0.72,1.44 -0.11,0.79 -0.17,1.44 -1.67,1.91 -1.23,0.38 -1.98,-0.35 -1.98,-0.35 0,0 -0.36,1.06 -1.46,0.94 -1.69,-0.19 -1.99,-2.23 -1.99,-2.23 0,0 0.7,0.03 1.05,-0.88 0.3,-0.77 -0.21,-1.24 -1.04,-1.35 -0.5,-0.07 -1.13,0.71 -1.83,0.41 -0.7,-0.3 0.36,-1.66 -0.55,-2.18 -0.84,-0.48 -1.32,0.61 -1.32,0.61 0,0 1.29,1.33 2.97,3.75 1.34,1.94 3.23,4.24 3.23,4.24 l -0.96,0.64 c 0,0 -1.3,-2.02 -3.36,-4.8 -1.75,-2.37 -3.12,-3.84 -3.12,-3.84 0,0 -0.05,-0.2 0.44,-0.7 0.62,-0.64 1.57,-1.52 2.71,-1 1.14,0.51 0.56,2.3 0.56,2.3 0,0 0.62,-0.68 1.63,-0.54 1.1,0.15 2.08,1.17 1.9,2.14 -0.25,1.37 -1.1,1.72 -1.1,1.72 0,0 -0.13,0.53 0.92,0.43 0.64,-0.07 1.07,-1.01 1.07,-1.01 0.05,-0.02 1.59,1.41 2.42,0.33 0.08,-0.1 0.13,-0.23 0.19,-0.35 -0.13,0.03 -0.26,0.05 -0.4,0.05 -1.05,0.01 -1.92,-0.85 -1.94,-1.93 -0.01,-1.08 0.83,-1.96 1.88,-1.97 0.4,0 0.11,-0.03 0.65,0.07 v 0 c -0.42,-0.23 -0.96,-0.68 -0.97,-1.46 -0.01,-0.9 0.95,-1.82 1.83,-1.83 0.88,-0.01 2,0.8 2.01,1.71 0,0.57 -0.3,1.02 -0.54,1.27 v 0 c 0.24,-0.26 0.6,-0.4 1.15,-0.41 1.05,-0.01 1.92,0.85 1.94,1.93 0.02,1.08 -0.83,1.96 -1.88,1.97 -0.09,0 -0.17,-0.01 -0.25,-0.02 0.02,0.02 0.03,0.03 0.04,0.04 0.37,0.32 0.84,0.46 1.25,0.53 1.29,0.23 1.44,-0.78 1.44,-0.78 0,0 0.62,0.59 1.24,0.39 1,-0.33 0.8,-0.95 0.8,-0.95 0,0 -0.93,0.14 -1.72,-1.02 -0.56,-0.81 -0.5,-1.72 0.45,-2.31 0.88,-0.54 2.05,-0.22 2.05,-0.22 0,0 -1.1,-1.28 -0.26,-2.22 0.83,-0.93 2.03,-0.51 2.85,-0.18 0.65,0.26 1.06,0.49 1.06,0.49 0,0 -0.87,1.46 -1.51,4.34 -0.83,3.73 -1.31,5.75 -1.31,5.75 l -1.02,-0.28 c 0,0 0.58,-3.24 1.16,-5.62 0.65,-2.66 1.27,-3.55 1.27,-3.55 0,0 -1.02,-0.91 -1.59,-0.13 -0.62,0.85 0.81,1.5 0.29,2.05 -0.51,0.56 -1.44,0 -1.87,0.26 -0.71,0.44 -0.65,0.72 -0.23,1.31 0.43,0.6 1.28,0.37 1.28,0.37 0,0 0.66,2.05 -0.8,2.92 -0.96,0.56 -1.84,-0.15 -1.84,-0.15 0,0 -0.3,0.93 -2.04,0.89 z"
           id="path78" />
        <path
           class="st0"
           d="m 652,358.29 c -0.12,-1.02 3.02,-2.21 7,-2.66 3.98,-0.44 7.3,0.03 7.42,1.05 0.12,1.02 -3.02,2.21 -7,2.66 -3.98,0.44 -7.3,-0.03 -7.42,-1.05 z m 6.69,0.06 c 2.42,-0.25 4.04,-0.7 3.93,-1.35 -0.07,-0.41 -2.06,-0.55 -4.48,-0.29 -2.42,0.25 -4.35,0.8 -4.29,1.21 0.05,0.42 2.42,0.68 4.84,0.43 z"
           id="path79" />
      </g>
    </g>
    <path
       class="st0"
       d="m 610.02,333 c -3.23,3.58 -1.11,8.73 -1.85,13.28 -1.28,3.7 -5.17,6.04 -6.33,9.8 -0.29,2.19 -0.55,5.23 0.99,6.85 0.11,-0.29 -0.18,-0.45 -0.25,-0.68 -0.63,-4.46 0.75,-7.63 4.63,-11.42 5.9,-6.67 -1,-12.06 4.6,-17.09 l -1.78,-0.75 z"
       id="path80" />
    <path
       class="st0"
       d="m 623.78,375.07 c 2.69,-0.07 4.47,-0.42 7.12,-1.11 2.61,-0.79 4.71,-1.52 7.12,-2.36 5.21,-1.61 8.13,-2.85 13.58,-2.94 h 0.66 c 1.55,0.02 2.93,0.27 4.32,0.69 0.69,0.21 1.61,0.86 2.34,1.27 3.47,3.01 3.71,4.71 8.09,7.42 1.97,0.75 3.83,2.84 5.39,3.25 -0.65,-0.62 -1.33,-0.92 -2.72,-2.36 -2.07,-1.81 -5.6,-6.42 -9.44,-9.29 -2.1,-1.21 -4.35,-1.95 -6.82,-2.17 -4.78,-0.79 -10.3,0.59 -14.38,2.25 -4.38,1.43 -5.93,1.71 -10.56,2.47 -1.7,0.35 -2.95,0.15 -4.4,-0.24 -0.59,-4.72 -2.28,-3.79 -1.66,-9.37 1.83,-6.65 1.1,-12.36 -1.16,-17.57 0.52,-1.85 0.68,-4.55 -0.85,-6.05 -1.3,-1.28 -4.8,-1.59 -5.48,0.72 0.39,1.82 2.79,0.71 3.95,1.54 1.39,0.36 1.28,2.03 1.05,2.93 -0.33,2.7 -3.46,4.09 -5.51,4.61 0.79,1.57 3.92,0.55 4.93,-0.38 1.16,2.49 1.77,2.82 2.19,5.9 0.26,5.38 -1.29,5.14 -3.32,8.6 -0.93,1.85 -0.86,4.23 0.56,7.92 -0.39,-5.62 0.34,-5.96 1.91,-8.48 0,0 -0.56,2.3 -0.51,4.5 0.07,2.61 1.43,3.37 1.53,5.72 -0.46,2.08 -0.46,2.77 -1.81,4.45 -2.46,3.24 -6.8,2.87 -8.54,11.13 3.2,-4.72 3.93,-5.96 6.91,-7.64 3.99,-1.69 4.6,-3.01 5.51,-5.39 z"
       id="path81" />
    <path
       class="st0"
       d="m 593.51,347.81 c 1.46,1.05 1.79,2.32 3.02,3.49 -0.58,-0.15 -4.08,-2.75 -5.97,-2 -2.69,0.24 -6.26,2.66 -8.62,0.14 -1.6,-0.68 -2.69,-3.41 -2.96,-5.07 1.5,2.54 4.15,5.11 7.57,4.44 1.79,-0.39 2.77,-0.63 4.32,-0.56 0.8,-0.02 2.02,0.08 3.01,0.97 -1.15,-1.14 -2.59,-1.98 -4.36,-1.98 -3.96,0.08 -8.09,1.85 -10.55,-2.88 2.29,1.78 7.01,1.96 10.94,1.9 1.32,0.16 2.69,0.58 3.59,1.54 z m -6.08,-6.71 c -0.27,0.64 -0.99,1.46 -0.52,2.08 l 1.11,-1.41 c -0.24,-0.22 -0.47,-0.39 -0.59,-0.67 z m 2.51,1.6 c 0.41,0.45 0.6,0.96 0.73,1.47 0.52,0.1 0.67,-0.76 1.07,-0.83 l -1.79,-0.64 z m 0.73,3.07 c -0.37,-1.14 -0.71,-2.27 -1.92,-2.52 -1.22,-0.66 -2.34,2.41 -2.75,-0.04 -0.5,-1.42 1.16,-2.48 -0.41,-3.66 -1.29,-1.97 0.62,-2.42 0.07,-4.53 -0.1,-1.55 -0.36,-3.56 1.79,-3.66 3.25,-0.77 6.57,-0.8 9.65,0.17 0.88,-0.79 1.15,-1.21 1.29,-1.74 0,0 1.45,-0.17 2.41,0.22 0.96,0.39 2.04,0.99 2.04,0.99 -0.93,0.12 -2.53,0.28 -2.42,1.58 0.62,1.52 2.06,-0.61 5.92,1.9 0.3,0.33 0.86,0.53 0.98,1.5 -1.83,-0.82 -2.79,-0.53 -4.29,-1.21 -1.21,-0.4 -1.56,-0.43 -2.78,-0.22 -0.46,0.08 -2.36,1.45 -2.29,0.47 0,0 0,-0.49 -0.27,-1.51 -0.3,-0.93 -0.72,-0.83 -1.54,-1.11 -3.93,-1 -5.96,-0.66 -8.15,-0.28 -0.84,0.21 -1.23,1.44 -0.86,2.4 0.75,1.49 1.02,1.25 1.82,1.21 0.67,-0.39 1.06,-1.39 2.2,-1.47 0.85,0.05 1.55,0.02 1.8,0.93 v 0.52 c -0.29,-0.68 -1.21,-0.38 -1.67,-0.17 -0.21,0.21 -0.38,0.42 -0.21,0.67 0.3,0.51 0.65,0.27 1.12,0.37 -0.41,0.71 -2.3,0.93 -3.53,0.78 -0.45,-0.06 -0.49,0.61 -0.71,0.73 -0.44,0.59 -0.17,1.12 0.02,1.74 1.89,2.27 5.09,2.45 7.54,4.04 0.64,0.33 1.16,1.43 1.35,1.94 -1.16,-0.54 -1.44,1.26 -1.43,1.6 l 0.52,-0.32 c 0.38,-0.13 1.37,-0.63 1.42,-0.7 0.65,0.61 0.42,1.6 0.6,2.39 0.27,-0.7 0.11,-1.44 0.5,-2.28 0.84,2.92 2.51,8.11 -1.76,14.79 -2.19,4.5 -1.92,5.43 -1.69,11.52 -2.98,-6.29 -0.72,-9.46 -0.1,-13.35 0.04,-0.34 0.04,-0.85 -0.42,-1.19 0.15,1.67 -0.21,2.74 -1.48,4.47 -2.05,2.52 -2.36,5.9 -1.22,8.39 0.97,2.81 1.74,3.92 1.42,6.86 -0.45,2.81 -1.18,4.5 -0.17,8.2 v 0 c -2.28,-4.47 -1.56,-5.96 -1.45,-8.55 0.09,-2.19 -0.38,-4.35 -1.69,-6.05 l 0.78,0.67 c -0.76,5.17 -7.84,5.67 -5.23,12.67 0.9,1.57 2.92,4.64 3.03,6.1 -1.5,-2.54 -3.32,-2.72 -4.6,-5.44 -3.4,-0.65 -6.1,1.82 -9.4,2.84 -1.89,0.54 -3.84,1.43 -7.04,-1.35 5.98,2.19 10.12,-1.72 13.92,-3.2 2.16,-0.96 1.27,-2.52 1.56,-3.88 0.69,-4.09 4.56,-3.92 5.71,-7.85 0.09,-3.31 -0.42,-5.33 0.59,-7.53 1.01,-2.19 2.6,-1.59 2.82,-4.38 0.95,-3.24 -3.84,-3.55 -2.9,-7.55 0.56,0.75 1.62,1.23 2.56,1.69 1.64,0.8 3.45,2.13 4.59,3.42 -0.13,-0.63 -1.38,-2.59 -2.02,-3.09 l -1.63,-1.24 c 0.15,-0.63 0.91,-1 1.53,-1.43 -0.18,1.84 2.08,2.7 2.97,3.82 0.62,-2.54 -0.08,-5.27 -0.72,-7.55 0,0 -0.86,-0.12 -1.37,0.61 -0.73,-1.74 -0.23,-2.63 0.02,-3.9 0.02,-0.67 -0.58,-0.26 -0.92,-0.2 -0.62,0.34 -0.85,0.53 -0.85,0.53 l -0.9,-1.52 c -0.74,0.31 -1.56,1.18 -1.77,1.93"
       id="path82" />
    <path
       class="st0"
       d="m 618.16,343.04 c 0.19,0.8 -0.18,1.67 -0.62,2.37 -0.27,0.47 -0.79,0.54 -1.18,0.72 0.04,-0.69 1.51,-1.47 0.62,-2.37 l -1.58,-1.22 c 0.61,-0.65 2.39,-0.69 2.77,0.5 z"
       id="path83" />
    <path
       class="st0"
       d="m 592.28,353.1 c -0.4,0.05 -0.74,0.05 -1.12,-0.22 -1.45,-0.65 0.17,-1.25 0.26,-1.99 0.53,0.5 0.44,1.54 0.86,2.21 z"
       id="path84" />
    <path
       class="st0"
       d="m 598.24,369.23 c 0.08,2.92 -0.2,5 -0.77,6.7 -0.6,1.77 -0.75,2.25 -2.1,4.44 1.13,-2.72 1.51,-4.74 1.89,-7.86 0.29,-2.76 0.19,-6.78 1.3,-9.02 l 0.95,-2.7 c -1.15,4.55 -1.15,6.56 -1.26,8.44 z"
       id="path85" />
    <path
       class="st0"
       d="m 562.75,399.73 c 0.72,-0.88 1.16,-0.66 1.56,-0.8 0.5,0.5 0.35,1.09 1.12,1.46 1.13,0.55 2.7,-0.56 3.49,-1.1 0,0 2.16,1.42 3.4,1.42 1.24,0 1.69,-1.24 2.81,-1.24 1.12,0 1.8,1.4 1.8,1.4 0,0 1.13,-0.1 7.08,-1.07 5.9,-0.96 4.5,2.87 4.5,2.87 0,0 2.23,0.48 4.67,-2.14 1.8,-1.94 3.65,-4.6 4.15,-7.19 0.51,-2.58 0.62,-12.36 0.62,-12.36 0,0 -1.63,4.38 -1.85,6.91 -0.23,2.53 -0.67,5.56 -2.87,8.77 -0.48,0.71 -2.36,1.52 -2.36,1.52 0.19,0.03 -0.65,-1.47 -1.35,-2.02 -1.03,-0.8 -1.91,-0.9 -1.91,-0.9 0,0 -4.38,2.98 -6.01,2.87 -1.63,-0.11 0.11,-2.87 0.11,-2.87 0,0 -4.94,1.85 -7.47,2.58 -2.53,0.73 -3.01,-0.55 -3.01,-0.55 -1.25,0.43 -3.85,1.55 -5.39,1.01 -1.41,-0.8 -2.06,-1.56 -2.7,-0.72 l -1.43,1.56 c -1.39,-3.2 2.32,-4.38 3.4,-5.5 l -2.37,-0.26 c -0.98,-0.36 -1.43,-1.38 -1.24,-2.16 -1.32,0.03 -2.55,0.71 -3.58,0.86 0.2,-2.64 3.43,-1.5 4.7,-3.2 0.33,-0.46 1.24,-0.86 2.23,-0.29 0,0 -2.94,-1.87 -2.72,-2.68 0.76,-2.82 5.52,1.43 6.63,2.05 -0.35,-0.53 -0.77,-0.79 -1.2,-1.46 -1.99,-4.32 -7.12,-3.54 -8.93,0.08 0.24,0.42 1.9,-0.91 2.06,0.21 0.34,0.56 0.78,1.15 0.92,1.34 -1.08,0.62 -2.18,0.69 -2.99,1.06 -3.08,1.1 -3.16,5.18 -3.16,5.18 0,0 3.11,-0.57 4.13,-0.98 0.14,-0.04 0.28,-0.09 0.42,-0.15 0.46,1.6 1.94,0.51 0.21,3.54 -0.93,1.61 0.8,4.59 0.8,4.59 0,0 1.05,-0.46 1.73,-1.64 z"
       id="path86" />
    <path
       class="st0"
       d="m 604.05,376.89 c -0.76,1.22 -3.5,6.25 -3.79,10.79 -0.91,-4.1 0.08,-7.42 3.33,-12.94 4.64,-6.83 2.2,-13.48 2.49,-15.55 3.62,12.47 -0.65,15.37 -2.02,17.7 z"
       id="path87" />
    <path
       class="st0"
       d="m 589.17,384.01 c 0.17,0.93 0.67,2.3 1.6,4.13 0.67,1.16 1.52,3.29 0.67,7.5 -0.93,-5.82 -1.52,-5.9 -2.5,-8.01 -0.82,-1.58 -1.54,-4.2 -1.04,-6.4 0.11,-0.67 1.07,-2.39 1.6,-2.78 -0.71,1.24 -0.85,3.89 -0.34,5.56 z"
       id="path88" />
    <path
       class="st0"
       d="m 602.02,391.8 c -1.6,2.36 -2.82,3.88 -3.75,4.68 0.84,-6.62 4.97,-7.59 6.74,-15.68 0,3.08 -1.38,9.01 -2.99,11 z"
       id="path89" />
    <path
       class="st0"
       d="m 629.75,401.03 c 0.87,0.23 1.76,0.47 2.4,0.8 -1.04,-0.37 -3.27,-0.75 -3.99,-0.8 -0.54,0.05 -0.93,0.02 -1.3,-0.04 -3.04,-0.2 -6.48,-1.04 -8.82,-0.19 -3.83,1.61 -7.99,4.74 -8.75,6.89 -2.03,4.28 -7.08,0.73 -10.45,4.78 -0.89,-0.95 0.39,-2.47 2.29,-3.65 1.41,-0.73 4.92,0.32 6.26,-1.28 0.8,-0.84 -1.05,-2.83 -3.37,-1.87 -3.02,1.17 -3.04,2.72 -4.78,3.72 0.12,-2.12 2.14,-4.89 5.01,-5.15 1.54,-0.38 2.99,0.49 4.71,0.16 1.8,-1.19 2.82,-1.79 5.37,-3.07 1.55,-0.83 2.81,-1.07 4.72,-1.35 3.77,-0.39 7.14,0.63 10.7,1.05 z"
       id="path90" />
    <path
       class="st0"
       d="m 593.62,353.77 c 0,0 -0.34,-0.04 -1.15,-0.3 -0.89,-0.29 -1.93,-0.76 -2.08,-0.8 -0.43,-0.13 -0.67,-0.22 -0.67,-0.22 0,0 0.18,-0.29 0.47,-0.3 0.29,0 1.39,0.25 2.36,0.7 0.97,0.45 1.46,0.87 1.46,0.87 l -0.38,0.06 z"
       id="path91" />
    <path
       class="st0"
       d="m 619.42,336.4 c 0,0 -0.11,0.39 0.17,1.12 0.28,0.73 0.51,1.29 0.51,1.29 0,0 -3.6,0.11 -3.31,-0.39 0.28,-0.51 0.56,-0.96 0.39,-1.29 -0.17,-0.34 -0.62,-0.96 -0.62,-0.96 l 2.87,0.22 z"
       id="path92" />
    <path
       class="st0"
       d="m 598.46,346.51 c -0.41,-1.18 -0.73,-1.85 -3.15,-3.15 -2.42,-1.29 -4.38,-1.69 -5.23,-2.02 -0.84,-0.34 -2.19,-0.73 -2.02,-0.62 0.17,0.11 4.83,2.75 5.73,3.15 0.9,0.39 2.19,0.9 2.64,1.35 0.45,0.45 0.56,0.45 0.79,1.07 0.22,0.62 0,1.4 0.39,2.19 0.39,0.79 0.73,0.79 0.73,0.79 0,0 0.62,-1.29 0.11,-2.75 z"
       id="path93" />
    <path
       class="st0"
       d="m 592.04,337.96 c 1.35,0 2.05,0.1 3.07,0.45 1.02,0.34 1.38,1.95 2.08,2.83 0,0 -2.48,-2.67 -4.48,-2.58 -0.34,0.01 -1.32,-0.69 -0.68,-0.69 z"
       id="path94" />
    <path
       class="st0"
       d="m 590.81,339.42 c 0.73,-0.18 1.26,0.04 1.9,0.26 0.64,0.22 0.97,0.77 1.58,1.6 L 593.7,341 c 0,0 0.13,0 -0.72,-0.44 -0.96,-0.5 -1.27,-0.45 -1.65,-0.65 -0.38,-0.2 -0.87,-0.4 -0.52,-0.49 z"
       id="path95" />
    <path
       class="st0"
       d="m 612.95,336.29 c 0,0 -1.6,1.43 -1.77,3.96 -0.17,2.53 0.42,5.56 0.84,8.43 0.42,2.87 0.08,4.97 -1.1,7 -0.9,1.54 -1.69,3.71 -1.6,5.98 0.1,2.78 2.21,5.49 2.21,5.49 0,0 -1.8,-3.51 -1.12,-6.8 0.67,-3.29 2.61,-5.23 2.87,-7.59 0.25,-2.36 -0.11,-4.67 -0.74,-7.46 -0.93,-4.05 -0.93,-6.66 0.42,-9.02 z"
       id="path96" />
    <path
       class="st0"
       d="m 609.96,377.32 c 0,0 1.8,-2.87 1.85,-5.45 0.06,-2.58 -1.63,-5.17 -2.14,-7.87 -0.51,-2.7 -0.62,-3.15 -0.06,-5.11 0.56,-1.97 2.25,-2.98 2.25,-2.98 0,0 -1.35,2.58 -1.4,4.21 -0.06,1.63 -0.23,2.61 0.79,5.68 1.01,3.07 2.08,6.07 1.35,8.26 -0.73,2.19 -1.74,3.37 -2.47,4.33 -0.73,0.96 -1.18,1.01 -0.17,-1.07 z"
       id="path97" />
    <path
       class="st0"
       d="m 605.05,396.97 c -0.38,0.28 -0.83,0.58 -1.38,0.91 -0.46,0.28 -1.18,0.41 -1.18,0.41 0,0 0.66,-0.77 2.25,-2.99 2.53,-3.76 2.39,-7.71 3.26,-11.63 0.71,-2.88 3.03,-6.24 3.88,-7.75 0.84,-1.52 0.31,-6.41 0.31,-6.41 -0.17,8.26 -4.55,7.92 -5.65,14.44 -0.31,3.64 -1.57,7.47 -4.51,11.1 -2.23,3.08 -6.27,6.34 -10.27,7.89 4.61,0.9 7.75,-0.39 11.8,-0.56 0.96,0 2.81,0.06 4.05,0.34 v 0 c 0.84,0.39 1.12,-0.62 3.6,-1.91 1.8,-0.9 3.12,-1.49 4.72,-1.98 2.18,-0.53 3.92,-0.99 5.53,-0.74 -0.31,-0.18 6.54,-0.29 5.55,-0.94 -0.39,-1.54 -2.82,-0.17 -2.09,-1.05 -2.47,1.18 -2.91,0.31 -5.86,0.9 0,0 -2.36,0.28 -4.21,0.25 0,0 -1.23,-0.05 -2.06,-0.42 -1.63,-0.73 -1.46,-2.25 -1.46,-2.25 0,-0.84 0,-1.38 0.11,-2.47 0.11,-1.07 -0.21,-2.91 -0.21,-2.91 0,0 -2.49,5.6 -6.16,7.78 z"
       id="path98" />
    <path
       class="st0"
       d="m 660.06,379.37 c 0,0 -3.54,-4.13 -7.33,-5.06 -3.79,-0.93 -10.87,0.17 -15.17,2.36 -4.3,2.19 -5.98,5.31 -8.26,9.36 0,0 -1.02,1.42 -1.57,3.09 -0.73,2.2 -0.79,3.15 0.48,3.74 0.65,0.3 3.71,-1.18 3.71,-1.18 -0.7,-0.98 -3.23,-0.48 -3.23,-0.48 0,0 1.21,-1.63 2.47,-2.3 1.26,-0.67 2.95,-0.34 2.95,-0.34 l -1.43,-1.01 c 0,0 -0.08,-1.01 1.35,-4.21 1.43,-3.2 2.87,-5.73 8.43,-7.16 5.56,-1.43 8.34,-1.77 11.72,-0.17 3.37,1.6 5.9,3.37 5.9,3.37 z"
       id="path99" />
    <path
       class="st0"
       d="m 656.54,400.86 c 0,0 -1.8,-1.12 -3.93,-1.97 -1.88,-0.74 -4.43,-1.55 -4.43,-1.55 0,0 6.07,-1.06 9.44,-1.82 2.11,-0.48 3.09,-0.76 4.38,-1.4 1.35,-0.67 1.85,-1.35 1.85,-1.35 0,0 0.76,-0.34 1.85,-3.26 0.88,-2.33 -0.35,-6.45 0.17,-7.14 1.01,-1.35 7.59,0.37 10.45,4.83 2.11,3.29 0.25,8.68 0.25,8.68 0,0 1.88,-0.73 2.11,-5.65 0.26,-5.73 -6.28,-8.95 -6.28,-8.95 0,0 3.98,0.81 6.45,4.96 2.47,4.16 0.96,9.27 -2.53,13.77 -3.48,4.5 -11.29,4.38 -14.44,3.71 0,0 1.57,1.78 1.91,3.2 0.73,3.03 -0.28,4.78 -1.46,5.45 -1.02,0.58 -6.69,0.96 -8.48,1.01 -1.8,0.06 -2.53,0 -5.17,0.22 -2.64,0.22 -5.5,-0.34 -6.74,-0.34 -0.67,0 -1.24,0.22 -2.92,0.62 -2.63,0.61 -2.58,-0.06 -2.58,-0.06 0,0 0.45,-1.29 -2.92,-0.79 -2.33,0.35 -4.16,0.34 -4.16,0.34 0,0 -1.85,1.12 -5.17,0.51 -3.31,-0.62 -3.6,-2.7 -3.6,-2.7 0,0 2.53,1.18 5.23,1.12 2.7,-0.06 4.05,-1.57 4.05,-1.57 0,0 0.71,1.08 3.43,0.17 1.52,-0.51 2.19,-1.07 2.19,-1.07 0,0 5.31,0.33 5.84,0.39 1.85,0.22 5.9,0.56 5.9,0.56 0,0 0.45,0 3.82,0.23 2.31,0.15 4.08,0.31 4.21,-0.28 0.13,-0.55 -1.69,-1.25 -1.69,-1.25 0,0 3.2,0.41 4.78,0.46 1.16,0.04 2.14,-0.17 2.75,-0.56 0.62,-0.39 0.73,-2.25 0.06,-2.98 -0.88,-0.95 -0.59,-0.88 -1.77,-1.43 -2.87,-1.35 -2.44,-1.94 -2.44,-1.94 0,0 -0.81,-1.08 1.01,-0.25 0.93,0.42 -0.17,-1.18 -0.17,-1.18 0,0 -0.42,-0.42 -1.24,-0.76 z m 12.2,-15.79 c 0,0 0.39,6.01 -1.35,8.82 -1.74,2.81 -5.96,6.24 -5.96,6.24 4.61,1.8 12.92,-0.67 14.27,-5.28 1.29,-4.42 -0.71,-8.23 -2.7,-9.44 -2.3,-1.4 -4.27,-0.34 -4.27,-0.34 z"
       id="path100" />
    <path
       class="st0"
       d="m 643.87,395.89 c 0,0 0.51,0.25 1.52,0.51 0.75,0.19 4.05,1.43 4.05,1.43 0,0 1.35,0.17 2.07,-0.61 1.07,-1.17 -2.9,0.1 -2.72,-1.18 0.06,-0.39 -0.7,-0.9 -0.7,-0.9 0,0 -1.18,-0.25 -2.11,-0.17 -1.85,0.17 -2.11,0.93 -2.11,0.93 z"
       id="path101" />
    <path
       class="st0"
       d="m 615.34,397.32 c 0,0 3.27,-0.11 6.53,-1.01 3.26,-0.9 3.88,-1.69 5.31,-2.11 1.08,-0.32 3.27,-0.18 3.27,-0.18 0,0 -0.6,0.21 -0.77,1.11 -0.17,0.9 0.17,1.57 0.17,1.57 0,0 1.18,-0.45 2.08,-0.28 0.9,0.17 1.15,0.73 1.15,0.73 0,0 -0.93,1.46 0.31,1.85 1.24,0.39 2.78,0.4 5.34,1.26 2.56,0.87 4.1,1.12 6.07,1.52 1.97,0.39 4.13,1.1 4.13,1.1 0,0 0.31,0.28 -0.42,0.67 -0.73,0.39 1.94,1.18 1.94,1.18 0,0 0.25,0.17 -1.6,0 -1.56,-0.14 -1.8,-0.05 -3.76,-0.45 -3.03,-0.62 -3.99,-0.62 -3.99,-0.62 0,0 -1.24,-0.23 -2.81,-0.28 -0.84,-0.03 -3.65,-0.17 -6.57,-0.51 -2.92,-0.34 -5.17,-0.84 -6.8,-1.46 -1.63,-0.62 -3.6,0 -3.6,0 0,0 -0.73,-0.79 -2.25,-0.17 -1.52,0.62 -2.16,2.22 -2.16,2.22 0,0 0.76,-0.42 1.54,-0.42 0.78,0 1.29,0.22 1.29,0.22 0,0 0.45,0.84 -0.28,1.52 -0.73,0.67 -2.02,1.24 -2.02,1.24 0,0 -0.06,-0.39 -3.15,-0.39 -3.09,0 -3.43,-0.45 -4.5,1.07 -1.07,1.52 -0.56,-2.47 -0.56,-2.47 0,0 0.73,-1.18 4.89,-3.15 4.16,-1.97 7.47,-1.74 9.05,-1.8 1.57,-0.06 3.6,0.11 5.62,0.45 1.28,0.21 4.5,1.35 4.5,1.35 0,0 -1.49,-1.31 -4.38,-2.36 -2.47,-0.9 -9.1,-0.84 -12.36,-0.11 -3.26,0.73 -4.5,0.06 -4.16,-0.45 0.34,-0.51 2.96,-0.84 2.96,-0.84 z"
       id="path102" />
    <path
       class="st0"
       d="m 617.04,403.39 c 0,0 1.46,-0.56 2.47,-0.17 0.4,0.16 0.56,0.22 0.84,0.56 0.28,0.34 0.96,0.9 0.96,0.9 0,0 -3.54,0.28 -2.81,1.97 0.73,1.69 2.64,1.41 2.64,1.41 0,0 -1.01,0.45 -1.29,1.52 -0.28,1.07 0.73,1.63 0.73,1.63 l 2.87,1.12 -1.74,0.62 c 0,0 -1.18,-0.51 -1.46,0.23 -0.28,0.73 -0.39,1.47 -0.39,1.47 0,0 -1.18,-1.19 -1.35,-2.77 -0.17,-1.57 1.01,-2.75 1.01,-2.75 0,0 -0.89,-0.76 -1.62,0.07 -0.74,0.83 -0.9,1.74 -0.9,1.74 0,0 -1.24,-1.14 -1.46,-2.71 -0.22,-1.57 1.01,-2.7 1.01,-2.7 l 0.51,-2.14 z"
       id="path103" />
    <path
       class="st0"
       d="m 591.11,365.13 c -0.93,6.15 -3.12,8.93 -3.71,11.04 0,0 -0.51,-1.15 -1.77,-2 -1.17,-0.78 -3.2,0.45 -3.2,0.45 0,0 -1.85,-2.42 -6.07,-4.19 -3.44,-1.45 -3.03,1.54 -3.03,1.54 0,0 -2.81,-3.09 -3.93,-4.33 -1.46,-1.6 -2.98,-0.93 -4.33,-0.51 -1.35,0.42 -5.31,-0.17 -5.31,-0.17 0,0 -3.03,-0.25 -3.03,-3.12 0,-2.02 2.19,-2.78 2.19,-2.78 0,0 -1.85,-1.1 -1.69,-3.2 0.17,-2.11 2.44,-2.02 2.44,-2.02 0,0 -1.69,-1.35 -1.6,-2.44 0.08,-1.1 1.85,-2.87 3.12,-3.03 1.26,-0.17 5.75,2.27 7.84,2.78 1.9,0.46 1.04,2.91 4.41,4.28 1.43,0.58 3.94,1.19 7.05,1.19 3.11,0 4.21,1.18 7.75,2.02 3.54,0.84 3.88,-0.59 3.88,-0.59 0,0 -0.68,2.86 -1.01,5.06 z m -28.23,-13.72 c -1.16,-0.48 -1.96,-0.29 -2.92,0.48 -0.33,0.64 -0.32,1.95 0.44,2.22 2.41,0.41 2.05,-1.54 4.47,-1.27 -0.7,-0.33 -1.4,-0.82 -1.99,-1.44 z m -2.48,10.07 c -0.9,0.24 -2.23,1.4 -2.06,2.81 v 0 c 0.44,1.23 0.74,1.54 2.21,1.73 0.72,-0.17 1.27,-0.3 1.31,-0.8 v 0 c 0,0 -0.34,-0.31 -0.06,-0.59 0.9,-0.79 1.74,-0.6 2.53,-0.62 -1.18,-1.18 -1.76,-1.14 -2.3,-1.52 -1.46,-1.3 -0.48,-1.99 0.17,-2.53 0.43,-0.26 1.98,-0.11 2.75,0.23 l -2.52,-2.99 c -1.14,-0.72 -3.03,-0.99 -3.58,0.63 -0.11,0.42 -0.18,1.6 0.32,1.89 0.84,0.9 1.29,1.12 1.24,1.74 z m 28.1,8.37 c 0,0 -0.52,-2.22 0.28,-4.16 0.8,-1.94 2.42,-3.37 2.42,-3.37 -1.75,1 -2.55,0.05 -7.02,-1.25 -4.47,-1.31 -6.8,-0.91 -8.57,-1.04 -1.77,-0.13 -5.9,-2.57 -6.53,-3.12 -0.63,-0.55 -0.51,-1.05 -0.91,-2.35 -0.28,-0.9 -1.52,-1.29 -2.36,-1.12 -0.84,0.17 -1.12,0.79 -1.12,0.79 0,0 -0.46,0.11 -1.35,0.28 -0.88,0.17 -1.4,1.29 -1.4,1.29 0,0 0.79,-0.37 1.5,-0.28 0.72,0.08 1.27,0.68 1.27,0.68 0.06,1.97 -0.16,2.02 0.62,3.37 1.05,1.79 3.29,3.76 3.29,3.76 2.21,1.48 5.17,2.7 5.68,2.92 0.34,0.15 2.13,1.01 3.71,1.57 1.74,0.62 3.2,2.53 3.2,2.53 0,0 0.02,-1.94 2.7,-1.07 2.08,0.67 4.61,0.56 4.61,0.56 z"
       id="path104" />
    <path
       class="st0"
       d="m 616.35,348.82 c 0,0 0.64,3.36 0.04,4.89 -1.14,2.91 -2.79,3.53 -3.29,6.31 -0.59,3.3 0.45,7.08 1.01,8.99 0.56,1.91 1.18,4.2 0.51,5.77 -0.67,1.57 -1.97,3.22 -2.87,5.13 -0.9,1.91 -1.48,4.4 -1.48,4.4 0,0 1.36,-3.05 2.26,-4.4 1.12,-1.69 2.82,-3.71 3.43,-5.45 1.48,-4.21 -0.73,-6.91 -1.18,-9.33 -0.56,-2.99 0.23,-5.5 1.85,-7.53 1.57,-1.97 1.97,-3.48 2.3,-5.39 0.4,-2.29 0.39,-4.27 0.39,-4.27 l -2.99,0.88 z"
       id="path105" />
    <path
       class="st0"
       d="m 547.44,435.48 c 0,0 67.31,-1.7 84.5,-3.27 4.62,-0.42 12.8,-0.67 17.89,-1.18 5.09,-0.51 12.64,-0.84 12.64,-0.84 0,0 -2.35,1.1 -8.09,1.61 -6.54,0.58 -18.79,2.06 -24.44,2.06 -6.9,0 -29.9,1.66 -36.78,2 -28.33,1.38 -45.72,-0.37 -45.72,-0.37 z"
       id="path106" />
    <path
       class="st0"
       d="m 586.81,271.01 -17.28,76.92 c 0,0 -0.08,0.97 0.42,1.18 0.51,0.21 0.87,0.3 1.43,0.63 0.63,0.38 1.14,0.88 1.14,0.88 0,0 -1.31,-0.04 -2.82,-0.55 -1.43,-0.48 -1.69,-1.39 -1.69,-1.39 l 17.56,-77.46 c 0.56,-3.32 1.74,-10.28 1.91,-12.02 0.17,-1.74 -0.22,-1.35 -0.9,-0.51 -0.68,0.84 -2.81,6.18 -3.82,10.73 0,0 -16.86,70.69 -17.19,72.65 -0.34,1.97 -0.13,2.89 -1.05,4.45 -0.96,1.61 -1.83,1.92 -2.95,1.81 -0.84,-0.08 -2.01,-0.13 -2.23,0.55 -0.15,0.46 0.56,0.77 1.52,0.88 0.95,0.11 2.18,0.08 3.24,-0.21 1.22,-0.34 1.73,-0.51 1.73,-0.51 0,0 0.32,0.68 0.63,0.97 0.59,0.55 1.14,1.01 1.81,1.31 0.6,0.26 2.3,0.74 3.37,0.69 1.07,-0.06 1.29,0.56 1.46,1.01 0.17,0.45 1.03,0.94 2.14,0.39 0.74,-0.37 0.83,-1.76 0.11,-2.39 -0.86,-0.76 -2.08,0.08 -2.3,-0.31 -0.22,-0.39 0.87,-1.54 2.51,-0.96 1.39,0.5 2.21,1.75 1.6,3.58 -0.63,1.9 -2.71,1.87 -3.83,1.7 -1.12,-0.17 -1.74,-1.01 -2.14,-1.12 -0.39,-0.11 -1.24,-0.17 -1.24,-0.17 0,0 -7.42,-2.98 -8.04,-3.09 -0.62,-0.11 -2.19,0.17 -2.75,0.28 -0.56,0.11 -0.96,0.73 -2.36,0.51 -0.78,-0.12 -3.3,-1.1 -2.53,-3.41 0.56,-1.69 1.73,-2.4 3.5,-2.11 0.91,0.15 0.97,1.01 1.77,1.14 1.04,0.17 1.81,0.06 2.15,-1.01 0.34,-1.07 18.43,-73.16 18.43,-73.16 2.59,-8.54 4.55,-13.77 6.29,-15.96 1.74,-2.19 2.53,-4.09 2.25,0.79 -0.28,4.83 -0.77,8.15 -1.85,13.26 z m -29.75,78.48 c 0.54,0 0.98,-0.41 0.98,-0.92 0,-0.51 -0.44,-0.92 -0.98,-0.92 -0.54,0 -0.98,0.41 -0.98,0.92 0,0.51 0.44,0.92 0.98,0.92 z"
       id="path107" />
    <path
       class="st0"
       d="m 595.91,389.4 c 0,0 0.34,-5.56 2.53,-12.05 0.9,-2.68 2.81,-5.82 3.2,-8.51 0.45,-3.09 -0.42,-6.91 -0.25,-8.77 0.17,-1.85 0.34,-3.62 0.34,-3.62 h 1.18 c 0,0 -0.51,4.21 -0.17,5.98 0.34,1.77 0.9,5.02 0.25,7.33 -1.01,3.62 -2.99,6.06 -3.76,9.07 -0.96,3.71 -1.57,7.92 -1.63,11.86 z"
       id="path108" />
    <path
       class="st0"
       d="m 553.56,349.01 c 0.62,0 1.13,-0.48 1.13,-1.07 0,-0.59 -0.51,-1.07 -1.13,-1.07 -0.62,0 -1.13,0.48 -1.13,1.07 0,0.59 0.51,1.07 1.13,1.07 z"
       id="path109" />
    <path
       class="st0"
       d="m 561.78,373.97 c 0.82,0 1.49,-0.64 1.49,-1.43 0,-0.79 -0.67,-1.43 -1.49,-1.43 -0.82,0 -1.49,0.64 -1.49,1.43 0,0.79 0.67,1.43 1.49,1.43 z"
       id="path110" />
    <path
       class="st0"
       d="m 560.09,366.56 c 0,0 0.42,-0.29 -0.04,0.21 -0.46,0.51 -1.33,1.5 -1.11,2.63 0.22,1.12 1.11,2.47 2.96,2.68 1.85,0.21 3.37,-0.59 3.75,-2.28 0.38,-1.69 -0.17,-2.32 -0.63,-2.78 -0.46,-0.46 -2.36,0.17 -2.36,0.17 0.8,0.55 1.18,1.35 1.1,2.15 -0.08,0.8 -0.84,1.22 -1.56,1.1 -0.72,-0.13 -1.5,-0.7 -1.22,-1.64 0.34,-1.14 1.52,-1.6 1.52,-1.6 0,0 -0.04,-0.51 0.34,-0.76 0.38,-0.25 -2.74,0.13 -2.74,0.13 z"
       id="path111" />
    <path
       class="st0"
       d="m 578.06,354.89 c 0.84,0 1.52,-0.7 1.52,-1.56 0,-0.86 -0.68,-1.56 -1.52,-1.56 -0.84,0 -1.52,0.7 -1.52,1.56 0,0.86 0.68,1.56 1.52,1.56 z"
       id="path112" />
    <path
       class="st0"
       d="m 570.56,401.15 c 0,0 1.82,3.92 3.62,6.28 1.8,2.36 3.03,4.16 4.16,6.07 1.12,1.91 4.51,7.16 7.21,10.75 2.7,3.6 7.49,8.99 7.49,8.99 0,0 -6.27,-9.85 -8.18,-12.44 -1.91,-2.58 -3.71,-5.62 -5.51,-7.98 -1.8,-2.36 -7.66,-10.66 -8.79,-11.67 z"
       id="path113" />
    <path
       class="st0"
       d="m 586.52,400.96 c 0,0 7.42,8.99 11.13,13.37 3.71,4.38 5.62,7.87 7.42,10 1.8,2.14 7.04,8.22 7.04,8.22 0,0 -2.54,-5.75 -5.69,-9.12 -2.88,-3.08 -5.28,-6.97 -7.64,-9.78 -2.36,-2.81 -5.96,-7.64 -7.53,-8.99 -1.57,-1.35 -3.93,-3.82 -4.72,-3.71 z"
       id="path114" />
    <path
       class="st0"
       d="m 610.13,408.11 c 0,0 9.23,11.48 10.8,13.05 1.57,1.57 6.52,8.54 6.52,8.54 0,0 5.38,5.38 1.84,0.32 -0.86,-1.23 -5.45,-7.08 -7.47,-9.66 -2.02,-2.58 -4.38,-5.28 -6.29,-7.53 -2.11,-2.48 -5.06,-4.27 -5.39,-4.72 z"
       id="path115" />
    <path
       class="st0"
       d="m 632.79,413.31 c 0,0 1.46,2.81 3.03,4.27 1.57,1.46 4.61,4.94 5.62,6.18 1.01,1.24 6.98,6.35 6.98,6.35 0,0 -2.37,-3.32 -4.05,-5.01 -1.68,-1.69 -3.48,-3.48 -4.83,-5.06 -1.35,-1.57 -5.84,-6.07 -6.74,-6.74 z"
       id="path116" />
    <path
       class="st0"
       d="m 649.21,412.74 c 0,0 4.58,4.87 6.83,7.47 2.25,2.6 7.51,6.97 7.51,6.97 0,0 -1.13,-2.54 -2.77,-4.04 -1.64,-1.5 -4.83,-4.96 -6.15,-6.59 -1.31,-1.63 -3.29,-3.58 -3.29,-3.58 l -2.15,-0.24 z"
       id="path117" />
    <path
       class="st0"
       d="m 574.75,424.38 c 0,0 7.2,-0.76 10.45,-0.93 3.25,-0.17 14.64,-0.34 18.87,-0.34 4.23,0 21.14,-1.35 27,-1.52 5.86,-0.17 15.45,-1.35 17.73,-1.35 2.28,0 22.11,-0.44 22.11,-0.44 0,0 -3.07,0.94 -9.22,1.31 -1.31,0.08 -14.03,1.15 -15.98,1.15 -1.95,0 -7.68,0.13 -7.68,0.13 0,0 -5.6,0.55 -8.42,0.38 -2.82,-0.17 -8.24,0.65 -8.24,0.65 0,0 -2.66,0.03 -6.07,0.37 -3.42,0.34 -9.6,0 -10.25,0.17 -0.65,0.17 -5.41,0.69 -9.58,0.74 -4.17,0.06 -7.93,-0.07 -8.42,-0.24 -0.49,-0.17 -3.8,0.17 -5.75,0.17 -1.95,0 -6.55,-0.25 -6.55,-0.25 z"
       id="path118" />
    <path
       class="st0"
       d="m 616.37,411.71 h -11.01 c -1.91,0 -8.51,0.53 -8.51,0.53 0,0 -5.87,-0.2 -8.91,-0.2 -3.04,0 -16.46,0.79 -16.46,0.79 0,0 4.38,0.51 16.52,0.17 2.96,-0.08 8.96,0 10.2,0 1.24,0 6.82,-0.06 8.51,-0.17 9.52,-0.59 9.66,-1.12 9.66,-1.12 z"
       id="path119" />
    <path
       class="st0"
       d="m 594.61,403.18 c 0,0 -9.23,0.13 -12.94,0.29 -3.71,0.17 -10.96,0.17 -10.96,0.17 0,0 2.19,-0.55 5.73,-0.72 3.54,-0.17 6.74,-0.05 8.77,-0.17 3.54,-0.21 9.4,0.42 9.4,0.42 z"
       id="path120" />
    <path
       class="st0"
       d="m 535.32,371.29 c -0.16,-0.06 -0.32,-0.04 -0.47,0.05 l -0.17,0.02 c -0.08,0.04 -0.14,0.11 -0.16,0.18 l -0.03,0.12 c -0.29,0.48 -0.48,1.14 -0.07,1.6 0.42,0.47 1.26,0.43 1.24,1.32 l -0.02,0.11 0.07,-0.34 -0.06,0.11 c -0.08,0.15 -0.15,0.31 -0.22,0.46 l -0.07,0.27 c -0.06,0.17 -0.05,0.35 0.04,0.51 l 0.04,0.06 c 0.37,0.85 1.26,1.23 2.07,1.54 -0.24,0.43 -0.53,0.84 -0.6,1.34 l -0.02,0.25 c 0,0.15 0.04,0.29 0.11,0.41 l 0.09,0.13 c 0.26,0.58 0.91,0.81 1.4,1.19 0.14,0.11 0.04,0.33 -0.12,0.61 -0.41,0.72 -0.07,1.56 0.57,2.06 0.41,0.32 0.94,0.45 1.16,0.91 0.3,0.65 -0.25,1.3 -0.17,2.02 0.11,0.96 0.86,1.79 1.88,1.79 0.07,0 0.2,0.11 0.18,0.15 -0.14,0.55 -0.57,1 -0.49,1.62 0.11,0.98 0.98,1.28 1.62,1.77 -0.13,0.25 0.14,0.51 -0.2,0.74 -0.24,1.14 0.58,2.4 1.83,2.49 0.11,0 0.27,0.2 0.51,0.22 0.1,0.06 0.22,0.01 0.28,-0.09 0.05,-0.1 0,-0.23 -0.1,-0.27 -0.46,-0.57 -1.14,-1.01 -1.22,-1.81 0.55,-1.11 0.18,-2.56 -1.11,-2.99 -0.06,-0.02 -0.11,-0.16 -0.08,-0.22 0.31,-0.73 0.6,-1.55 0.2,-2.3 -0.3,-0.55 -0.93,-0.83 -1.58,-0.93 -0.05,0 -0.09,-0.22 -0.08,-0.34 0.08,-0.69 0.31,-1.31 0.15,-2.02 -0.21,-0.96 -0.99,-1.5 -1.78,-1.89 -0.05,-0.02 -0.14,0.04 -0.22,0.06 0.71,-1.24 0.24,-2.96 -1.24,-3.33 l -0.28,-0.34 0.12,0.41 0.04,-0.25 c 0.32,-0.78 0.63,-1.75 -0.2,-2.42 -0.46,-0.37 -1.07,-0.37 -1.51,-0.74 l -0.21,-0.41 0.07,0.39 0.08,-0.25 c 0,0 0,0.02 0,0.03 l 0.19,-0.36 c 0.05,-0.1 0.08,-0.2 0.07,-0.32 l -0.02,-0.27 c -0.11,-0.88 -0.83,-1.46 -1.71,-1.64 -0.25,-0.05 -0.22,-0.42 -0.17,-0.67 l 0.1,-0.34 -0.1,0.14 0.22,-0.11 c -0.2,-0.3 0.11,-0.2 0.2,-0.28 0.04,-0.01 0.06,-0.05 0.05,-0.09 -0.01,-0.04 -0.05,-0.06 -0.09,-0.05 v 0 z"
       id="path121" />
    <path
       class="st0"
       d="m 542.85,369.78 c -0.16,-0.06 -0.14,0.13 -0.28,0.21 l -0.17,0.02 c -0.08,0.03 -0.14,0.1 -0.16,0.18 l -0.03,0.12 c -0.29,0.48 -0.48,1.14 -0.07,1.6 0.42,0.47 1.08,0.26 1.05,1.16 l -0.02,0.1 0.07,-0.34 -0.06,0.11 c -0.08,0.15 -0.15,0.31 -0.22,0.46 l -0.07,0.27 c -0.06,0.17 -0.05,0.35 0.04,0.51 l 0.04,0.06 c 0.37,0.85 1.26,1.23 2.07,1.54 -0.24,0.43 -0.53,0.84 -0.6,1.34 l -0.02,0.25 c 0,0.15 0.04,0.29 0.11,0.41 l 0.09,0.13 c 0.26,0.58 0.91,0.81 1.4,1.19 0.14,0.11 0.04,0.33 -0.12,0.61 -0.41,0.72 -0.07,1.56 0.57,2.06 0.41,0.32 0.94,0.45 1.16,0.91 0.3,0.65 -0.25,1.3 -0.17,2.02 0.11,0.96 0.86,1.79 1.88,1.79 0.07,0 0.2,0.11 0.18,0.15 -0.14,0.55 -0.57,1 -0.49,1.62 0.11,0.98 0.98,1.28 1.62,1.77 -0.13,0.25 0.14,0.51 -0.2,0.74 -0.24,1.14 0.58,2.4 1.83,2.49 0.11,0 0.27,0.2 0.51,0.22 0.11,0.06 0.22,0.01 0.28,-0.09 0.05,-0.1 0,-0.23 -0.1,-0.27 -0.46,-0.57 -1.14,-1.01 -1.22,-1.81 0.55,-1.11 0.18,-2.56 -1.11,-2.99 -0.06,-0.02 -0.11,-0.16 -0.08,-0.22 0.31,-0.73 0.6,-1.55 0.2,-2.3 -0.3,-0.55 -0.93,-0.83 -1.58,-0.93 -0.05,0 -0.09,-0.22 -0.08,-0.34 0.08,-0.69 0.31,-1.31 0.15,-2.02 -0.21,-0.96 -0.99,-1.5 -1.78,-1.89 -0.05,-0.02 -0.14,0.04 -0.22,0.06 0.71,-1.24 0.24,-2.96 -1.24,-3.33 l -0.28,-0.34 0.12,0.41 0.04,-0.25 c 0.32,-0.78 0.63,-1.75 -0.2,-2.42 -0.46,-0.37 -1.07,-0.37 -1.51,-0.74 l -0.21,-0.41 0.07,0.39 0.08,-0.25 c 0,0 0,0.02 0,0.03 l 0.19,-0.36 c 0.05,-0.1 0.08,-0.2 0.07,-0.32 l -0.02,-0.27 c -0.11,-0.88 -0.64,-1.3 -1.52,-1.48 -0.25,-0.05 -0.23,-0.42 -0.17,-0.67 l 0.1,-0.34 -0.1,0.14 0.22,-0.11 c -0.2,-0.29 0.11,-0.2 0.2,-0.28 0.04,-0.01 0.06,-0.05 0.05,-0.09 -0.01,-0.04 -0.24,-0.22 -0.28,-0.21 v 0 z"
       id="path122" />
    <path
       class="st0"
       d="m 549.77,368.9 c -0.86,0.98 -0.35,2.61 0.86,3.03 0.48,0.53 -0.07,0.7 -0.24,1.25 l -0.03,0.13 c 0,0.11 0.03,0.22 0.08,0.31 l 0.03,0.06 c 0.16,0.64 0.63,1.14 1.27,1.39 h 0.22 c 0,0 -0.18,-0.14 -0.18,-0.14 v -0.03 c 0.37,0.22 0.86,0.63 0.65,1.03 -0.62,1.15 -0.05,2.44 1.03,2.94 l 0.11,0.06 -0.32,-0.29 0.29,0.32 c 0.17,0.05 0.3,0.18 0.32,0.4 0.03,0.26 -0.08,0.48 -0.21,0.77 -0.5,1.12 0.52,2.13 1.47,2.77 0.15,0.1 0.23,0.27 0.19,0.45 -0.18,0.99 -0.65,2.09 0.29,2.79 0.62,0.47 1.04,0.97 1.32,1.66 0.01,0.18 0.17,0.32 0.35,0.31 0.18,0 0.32,-0.16 0.32,-0.34 0.27,-0.67 0.22,-1.54 -0.31,-2.06 -0.31,-0.31 -0.65,-0.54 -1.1,-0.74 -0.13,-0.06 -0.22,-0.44 -0.15,-0.65 0.32,-0.88 0.36,-1.92 -0.27,-2.63 -0.35,-0.39 -0.89,-0.53 -1.17,-1 -0.45,-0.74 0.16,-1.51 0.08,-2.3 -0.01,-0.21 -0.11,-0.39 -0.24,-0.56 l 0.09,0.08 c -0.08,-0.13 -0.18,-0.22 -0.31,-0.29 l -0.35,-0.19 c -0.48,-0.18 -0.93,-0.53 -1.05,-1.03 -0.18,-0.72 0.44,-1.43 0.06,-2.16 l -0.03,-0.18 c -0.1,-0.12 -0.22,-0.2 -0.37,-0.23 l -0.19,-0.1 c 0,0 0.09,-0.02 0.14,-0.03 -0.19,-0.17 -0.5,-0.13 -0.63,-0.38 l -0.3,-0.3 0.08,0.31 v -0.25 c -0.15,0.03 -0.19,-0.13 -0.17,-0.18 0.32,-0.99 0.15,-1.72 -0.85,-2.27 -0.49,-0.27 -0.36,-0.94 -0.15,-1.42 0.08,-0.18 0,-0.38 -0.18,-0.46 -0.18,-0.08 -0.38,0 -0.46,0.18 v 0 z"
       id="path123" />
    <path
       class="st0"
       d="m 528.28,372.59 c -0.86,0.98 -0.35,2.61 0.86,3.03 0.48,0.53 -0.02,1.14 -0.19,1.69 l -0.03,0.13 c 0,0.11 0.03,0.22 0.08,0.31 l 0.03,0.06 c 0.16,0.64 0.63,1.14 1.27,1.39 h 0.22 c 0,0 -0.18,-0.14 -0.18,-0.14 v -0.03 c 0.37,0.22 0.86,0.63 0.65,1.03 -0.62,1.15 -0.05,2.44 1.03,2.94 l 0.11,0.06 -0.32,-0.29 0.29,0.32 c 0.17,0.05 0.29,0.18 0.32,0.4 0.03,0.26 -0.08,0.48 -0.21,0.77 -0.5,1.12 0.52,2.14 1.47,2.77 0.15,0.1 0.22,0.27 0.19,0.45 -0.18,0.99 -0.65,2.09 0.29,2.79 0.63,0.47 1.04,0.97 1.32,1.66 0.01,0.18 0.17,0.32 0.35,0.31 0.18,0 0.32,-0.16 0.32,-0.34 0.27,-0.67 0.22,-1.54 -0.31,-2.06 -0.31,-0.31 -0.65,-0.54 -1.1,-0.74 -0.13,-0.06 -0.22,-0.44 -0.15,-0.65 0.32,-0.88 0.36,-1.92 -0.27,-2.63 -0.35,-0.39 -0.89,-0.53 -1.17,-1 -0.45,-0.74 0.16,-1.51 0.08,-2.3 -0.01,-0.21 -0.11,-0.39 -0.24,-0.55 l 0.09,0.08 c -0.08,-0.13 -0.18,-0.23 -0.31,-0.29 l -0.35,-0.19 c -0.48,-0.18 -0.93,-0.53 -1.05,-1.03 -0.18,-0.72 0.44,-1.43 0.06,-2.16 l -0.03,-0.18 c -0.1,-0.12 -0.22,-0.2 -0.37,-0.23 l -0.19,-0.1 c 0,0 0.09,-0.02 0.14,-0.03 -0.19,-0.17 -0.5,-0.13 -0.63,-0.38 l -0.3,-0.3 0.08,0.31 v -0.25 c -0.15,0.03 -0.19,-0.13 -0.17,-0.18 0.32,-0.99 0.1,-2.16 -0.91,-2.71 -0.49,-0.27 -0.36,-0.94 -0.15,-1.42 0.08,-0.18 0,-0.38 -0.18,-0.46 -0.18,-0.08 -0.38,0 -0.46,0.18 v 0 z"
       id="path124" />
    <path
       class="st0"
       d="m 535.61,391.54 c -0.18,0.67 0.09,1.32 0.71,1.72 0.26,0.17 0.34,0.59 0.4,0.95 -0.06,-0.08 -0.12,-0.18 -0.18,-0.26 -0.04,0.14 -0.08,0.29 -0.11,0.43 l -0.09,0.25 c -0.04,0.11 -0.04,0.22 0,0.34 l 0.06,0.2 c 0.29,0.78 1.03,1.23 1.64,1.74 0.25,0.22 0.63,0.2 0.86,-0.06 0.22,-0.25 0.2,-0.64 -0.06,-0.86 -0.36,-0.33 -0.74,-0.64 -1.1,-0.96 l -0.2,-0.39 v 0.37 c 0,0 0.05,-0.19 0.05,-0.19 0.45,-0.94 -0.07,-2.31 -1.15,-2.43 -0.1,-0.01 -0.25,0.18 -0.44,-0.13 -0.14,-0.22 -0.18,-0.49 -0.25,-0.74 0,-0.04 -0.04,-0.06 -0.08,-0.06 -0.04,0 -0.06,0.04 -0.06,0.08 z"
       id="path125" />
    <path
       class="st0"
       d="m 540.89,401.29 c -0.08,-0.02 -0.17,-0.04 -0.25,-0.06 l 0.03,-0.15 c -0.06,0 -0.13,0.02 -0.18,0.06 l -0.19,0.2 c -0.84,0.96 0,2.06 0.41,2.99 0.03,0.07 -0.17,0.29 -0.43,0.46 -0.69,0.45 -0.74,1.54 -0.14,2.09 0.42,0.39 1.07,0.78 0.83,1.37 -0.29,0.7 -1.1,1.17 -1.05,2.02 0.04,0.6 0.47,1.02 0.76,1.51 0.48,0.79 -0.52,1.43 -0.72,2.23 -0.16,0.66 0.12,1.42 0.77,1.74 0.38,0.85 -0.72,1.33 -0.89,2.1 l -0.06,0.09 c -0.06,0.11 -0.08,0.22 -0.08,0.34 l 0.03,0.25 c 0.03,0.27 0.18,0.48 0.32,0.69 0.24,0.34 0.75,0.55 0.7,0.96 -0.08,0.74 -0.63,1.27 -1.28,1.66 -0.27,0.18 -0.34,0.54 -0.17,0.81 0.18,0.27 0.54,0.34 0.81,0.16 1.08,-0.47 1.85,-1.43 1.92,-2.63 0.04,-0.7 -0.43,-1.29 -0.96,-1.71 l -0.12,-0.29 -0.08,0.35 0.13,-0.34 c 0.36,-0.7 0.96,-1.3 0.95,-2.12 -0.01,-0.72 -0.45,-1.32 -0.86,-1.88 0.52,-0.77 0.87,-1.62 0.81,-2.58 -0.05,-0.76 -0.89,-1.14 -0.88,-1.84 0,-0.49 0.55,-0.83 0.7,-1.34 0.3,-1.01 -0.39,-1.86 -0.54,-2.8 0.32,-0.51 0.62,-1.1 0.36,-1.76 -0.28,-0.7 -1.09,-1.19 -0.79,-2.09 l 0.09,-0.2 -0.19,0.06 0.08,-0.02 c 0.06,-0.03 0.11,-0.06 0.17,-0.09 0.1,-0.09 0.1,-0.25 0,-0.34 -0.08,-0.1 -0.24,-0.11 -0.34,-0.01 l 0.31,0.1 z"
       id="path126" />
    <path
       class="st0"
       d="m 548.12,400.74 c -0.28,-0.08 -0.57,0.04 -0.76,0.25 -0.94,1.02 -0.45,2.31 0.3,3.34 0.07,0.1 0.05,0.36 -0.04,0.48 -0.69,0.91 -1.07,1.9 -0.68,2.98 0.2,0.55 0.66,0.89 0.95,1.39 0.08,0.15 0.03,0.36 -0.09,0.48 -1.07,1 -1.26,2.74 -0.04,3.67 0.2,0.51 0.1,1.07 -0.38,1.35 l -0.15,0.18 c -0.08,0.09 -0.12,0.2 -0.14,0.31 l -0.04,0.24 c -0.15,0.95 0.35,1.71 0.86,2.5 0.08,0.13 0.08,0.41 -0.01,0.49 -0.76,0.72 -1.51,1.57 -1.23,2.66 0.02,0.37 0.34,0.65 0.71,0.63 0.37,-0.02 0.65,-0.34 0.63,-0.72 0,-0.21 -0.1,-0.46 -0.03,-0.61 0.32,-0.7 1.1,-1.1 1.25,-1.94 0.15,-0.86 -0.33,-1.47 -0.81,-2.14 -0.13,-0.19 -0.1,-0.44 -0.08,-0.67 l 0.02,-0.24 -0.14,0.31 0.11,-0.15 c 0.77,-0.54 0.94,-1.52 0.7,-2.4 -0.16,-0.58 -0.7,-0.89 -0.85,-1.45 -0.24,-0.9 0.38,-1.58 0.61,-2.42 0.04,-0.16 0.04,-0.33 -0.01,-0.49 -0.21,-0.7 -0.54,-1.36 -0.43,-2.07 0.11,-0.67 0.64,-1.17 0.74,-1.87 0.15,-1.03 -0.58,-1.69 -1.12,-2.5 -0.32,-0.48 -0.13,-1.02 0.2,-1.45 0.04,-0.01 0.06,-0.06 0.04,-0.09 -0.01,-0.04 -0.06,-0.06 -0.09,-0.04 v 0 z"
       id="path127" />
    <path
       class="st0"
       d="m 555.08,399.73 c -0.29,0 -0.57,0.05 -0.79,0.34 -1.03,1.39 -0.08,2.99 0.6,4.26 -0.2,0.2 -0.22,0.52 -0.41,0.7 -1.11,1.08 -0.6,3.02 0.34,4 l 0.05,-0.06 v 0 c 0,0 0.02,0.04 0.02,0.04 0.13,0.18 0.29,0.34 0.2,0.62 -0.26,0.78 -0.93,1.36 -0.96,2.2 -0.02,0.62 0.3,1.12 0.59,1.66 0.18,0.34 0.47,0.83 0.19,1.1 -1.29,1.21 -0.39,2.99 0.4,4.11 0.04,0.74 -0.22,1.48 -0.73,2.02 -0.2,0.14 -0.24,0.41 -0.1,0.6 0.13,0.2 0.4,0.24 0.6,0.11 0.41,-0.13 0.8,-0.32 1.08,-0.68 0.84,-1.04 0.74,-2.58 -0.15,-3.58 -0.73,-0.81 0.03,-1.64 0.1,-2.51 0.07,-0.81 -0.39,-1.55 -0.9,-2.27 -0.24,-0.34 -0.28,-0.74 -0.13,-1.14 0.34,-0.84 1.02,-1.63 0.81,-2.6 l 0.05,-0.06 c -0.06,-0.16 -0.18,-0.28 -0.34,-0.34 l 0.02,-0.11 c -0.11,-0.55 -0.51,-1.14 -0.18,-1.7 -0.07,0.06 -0.14,0.13 -0.21,0.19 0.97,-0.64 1.59,-1.95 1.12,-3.07 -0.49,-1.19 -2.07,-2.28 -1.19,-3.68 0.04,-0.03 0.05,-0.08 0.03,-0.11 -0.03,-0.04 -0.08,-0.05 -0.11,-0.03 v 0 z"
       id="path128" />
    <path
       class="st0"
       d="m 563.25,401.87 c -0.74,-0.04 -1,0.81 -1.06,1.4 -0.06,0.67 0.27,1.21 0.67,1.76 0.11,0.14 0.17,0.35 0.12,0.5 -0.2,0.67 -0.88,1.11 -0.95,1.82 -0.09,0.98 0.59,1.82 1.28,2.44 l 0.15,0.1 -0.28,-0.35 0.02,0.06 c 0.06,0.86 -0.89,1.33 -1.14,2.12 -0.3,0.97 0.44,1.71 0.93,2.5 0.04,0.06 0.06,0.18 0.02,0.23 -0.51,0.65 -1,1.27 -0.93,2.11 0.08,0.98 0.9,1.56 1.36,2.35 -0.06,1 -0.33,1.97 -1.29,2.5 -0.09,0.06 -0.11,0.19 -0.05,0.27 0.06,0.09 0.18,0.12 0.27,0.06 0.62,-0.38 1.32,-0.62 1.78,-1.21 0.56,-0.72 0.91,-1.69 0.39,-2.54 -0.32,-0.53 -0.77,-0.9 -1.1,-1.42 -0.09,-0.14 -0.11,-0.39 -0.03,-0.51 0.37,-0.53 0.71,-1.03 0.82,-1.65 0.12,-0.77 -0.53,-1.24 -0.91,-1.86 -0.11,-0.16 -0.18,-0.34 -0.07,-0.49 0.64,-0.89 1.45,-1.8 1.17,-2.91 l 0.04,-0.05 c -0.05,-0.15 -0.15,-0.27 -0.28,-0.35 l -0.04,-0.08 c -0.23,-0.31 -0.15,-0.79 -0.71,-0.92 0.6,-0.73 1.38,-1.53 1.17,-2.58 -0.15,-0.77 -0.64,-1.29 -1.18,-1.83 -0.36,-0.37 -0.15,-0.87 -0.05,-1.32 0.04,-0.04 0.04,-0.1 0,-0.13 -0.04,-0.04 -0.1,-0.04 -0.13,0 v 0 z"
       id="path129" />
    <path
       class="st0"
       d="m 530.69,424.91 c 0,0 5.6,-0.4 8.76,-0.78 3.46,-0.42 10.18,-0.03 16.14,-0.25 6.47,-0.24 14.89,-1.01 14.89,-1.01 0,0 0.73,-6.32 0.05,-10.36 -0.67,-4.05 -0.22,-12.81 -0.22,-12.81 0,0 1.35,5.28 1.57,8.54 0.22,3.26 0.56,7.53 0.79,9.55 0.22,2.02 0.11,1.91 0.45,4.05 0.34,2.14 0.39,4.97 0.39,4.97 0,0 -3.73,1.3 -6.33,1.14 -2.6,-0.16 -9.12,-0.61 -12.15,-0.04 -3.03,0.57 -5.17,0.9 -9.33,0.67 -4.16,-0.22 -8.2,-0.11 -8.88,0.45 -0.67,0.56 -2.25,-1.57 -2.25,-1.57 0,0 6.07,-0.9 9.55,-0.67 3.48,0.22 11.22,-0.42 13.47,-0.65 2.25,-0.22 6.17,0.49 8.11,0.31 4.63,-0.44 5.28,-1.57 5.28,-1.57 0,0 -3.69,-0.21 -8.52,0.01 -4.83,0.22 -8.78,0.5 -12.49,0.5 -3.71,0 -9.49,0.02 -11.74,0.25 -2.25,0.22 -5.49,0.62 -5.49,0.62 l -2.04,-1.33 z"
       id="path130" />
    <path
       class="st0"
       d="m 548.12,428.34 c 0,0 0.35,1.66 0.65,3.27 0.64,3.39 4.59,6.39 4.59,6.39 l 2.11,0.67 -0.59,-1.52 c 0,0 -3.63,-3.07 -4.18,-5.36 -0.29,-1.19 -0.05,-3.45 -0.05,-3.45 z"
       id="path131" />
    <path
       class="st0"
       d="m 566.71,427.33 c 0,0 0.21,1.81 0.85,4.37 0.67,2.7 4.96,6.18 4.58,5.59 0.59,0.93 1.89,1.54 1.89,1.54 l 1.23,-0.11 -0.49,-1.4 c 0,0 -4.18,-3.46 -4.92,-5.17 -1.69,-3.88 -0.36,-3.87 -0.91,-4.92 -0.35,-0.67 -2.23,0.09 -2.23,0.09 z"
       id="path132" />
    <path
       class="st0"
       d="m 518.74,370.86 0.25,0.73 c 0,0 5.96,-1.35 9.61,-1.97 3.65,-0.62 5.11,-0.51 11.07,-1.74 5.96,-1.24 13.6,-1.91 13.6,-1.91 0,0 3.03,6.01 4.33,8.93 1.3,2.92 5.06,9.78 5.06,9.78 0,0 -0.79,-5.06 -1.85,-6.69 -1.07,-1.63 -3.37,-6.24 -4.16,-8.15 -0.79,-1.91 -2.44,-6.41 -2.44,-6.41 0,0 -4.44,1.2 -4.76,1.24 -0.31,0.04 -0.39,-0.17 -0.39,-0.17 0,0 0.11,-2.42 -0.23,-3.48 -0.34,-1.07 -4.61,-7.81 -4.61,-7.81 l -1.63,-1.07 0.67,2.42 c 0,0 2.64,3.71 3.26,5.51 0.62,1.8 0.62,4.94 0.62,4.94 l -16.63,3.03 c 0,0 -1.24,-3.93 -2.8,-6.77 -0.5,-0.91 -3.66,-2.39 -4,-2.84 -0.34,-0.45 -0.9,-1.24 -0.9,-1.24 l -0.9,-0.62 c 0,0 -0.64,1.91 0,2.75 1.24,1.63 2.92,1.46 3.99,3.03 1.93,2.84 2.3,5.96 2.3,5.96 l -8.37,1.85 -1.1,0.68 z"
       id="path133" />
    <path
       class="st0"
       d="m 552.76,367.84 0.45,-0.79 c 0,0 -3.46,0.42 -4.89,0.51 -1.43,0.08 -6.96,1.13 -9.83,1.8 -2.87,0.67 -8.09,0.93 -11.21,1.52 -3.12,0.59 -8.72,2.23 -8.72,2.23 0,0 3.61,7.18 4.7,10.72 1.1,3.54 1.61,9.32 3.46,12.73 2.11,3.88 5.9,4.47 5.9,4.47 0,0 3.42,-1.56 7.71,-1.9 4.3,-0.34 8.34,-1.94 12.31,-2.28 3.96,-0.34 7.16,-1.6 7.16,-1.6 0,0 -1.9,-1.56 -4.51,-0.97 -2.61,0.59 -9.16,2.46 -10.66,2.74 -1.81,0.34 -5.52,0.72 -7.21,1.22 -1.28,0.38 -4.09,0.93 -4.09,0.93 0,0 -3.12,-0.63 -4.93,-5.35 -1.67,-4.34 -1.73,-6.03 -3.79,-10.54 -1.59,-3.47 -4.11,-9.59 -4.11,-9.59 0,0 3.33,-0.8 5.52,-1.31 2.19,-0.51 2.61,-0.08 8.6,-1.35 5.98,-1.26 11.63,-2.31 14.38,-2.7 1.03,-0.15 3.62,-0.45 3.76,-0.51 z"
       id="path134" />
    <path
       class="st0"
       d="m 533.32,400.58 c 0,0 -0.44,3.6 -0.34,5.96 0.22,5.06 2.36,8.2 1.8,11.58 -0.56,3.37 -2.42,6.86 -2.42,6.86 l -1.18,-0.67 c 0,0 1.69,-4.61 1.46,-7.19 -0.22,-2.58 -1.46,-7.53 -1.35,-10.23 0.11,-2.7 0.79,-6.07 0.79,-6.07 l 1.24,-0.23 z"
       id="path135" />
    <path
       class="st0"
       d="m 615.06,320.91 c 0.78,-0.47 1.3,-1.31 1.3,-2.28 0,-1.48 -1.21,-2.68 -2.7,-2.68 -1.49,0 -2.7,1.2 -2.7,2.68 0,0.26 0.05,0.5 0.12,0.74 -0.5,-0.35 -1.56,-0.47 -2.63,-0.14 -1.08,0.34 -2.15,1.08 -2.15,2.78 0,1.7 0.81,2.98 2.53,2.98 0.18,0 -0.17,0.03 0,0 -0.11,0.13 0.03,-0.1 0,0 -0.2,0.66 -1.12,1.68 -2.58,1.27 -2.18,-0.61 -1.9,-2.68 -1.9,-2.68 0,0 -2.04,1.48 -3.42,0.63 -1.66,-1.01 -0.74,-1.66 -0.74,-1.66 2.12,0.24 3.75,-2.15 3.07,-3.9 -0.66,-1.69 -2.79,-2.62 -4.38,-1.84 0,0 0.3,-1.98 -2.88,-2.39 -2.29,-0.3 -3.79,2.72 -3.14,4.12 0.33,0.71 0.56,0.89 2.62,4.4 2.06,3.51 2.67,5.56 2.67,5.56 0.03,0.13 0.09,0.38 0.09,0.7 0,0.45 0.11,0.73 0.11,0.73 0,0 2.98,0.31 9.78,2.67 6.8,2.36 11.41,4.92 11.41,4.92 0,0 0.06,-0.23 0.11,-0.62 0.01,-0.09 0.03,-0.18 0.04,-0.27 0.1,-0.46 1.49,-1.88 2.93,-2.79 4.49,-2.84 6.29,-3.52 8.55,-4.79 1.49,-0.84 0.94,-3.6 -0.52,-4.31 -2.85,-1.38 -3.8,0.27 -3.8,0.27 -0.97,-1.33 -3.31,-1.5 -4.78,-0.4 -1.52,1.13 -1.38,3.79 0.6,4.51 0,0 0.05,0.6 -1.79,1.05 -1.69,0.41 -2.19,-2.1 -2.19,-2.1 0,0 -1.31,1.48 -3.96,0.81 -0.82,-0.21 -1.6,-1.11 -1.3,-2.68 0.54,0.91 1.16,0.77 2.12,0.71 1.52,-0.1 2.66,-1.12 2.66,-2.82 0,-1.35 -0.99,-2.62 -2.22,-3.03 m 0,0.01 c -0.29,-0.1 -0.61,-0.16 -0.93,-0.16 m -17.21,3.51 c -0.62,-1.57 -2.98,-5.05 -3.41,-6.14 -0.37,-0.93 0.86,-2.26 2.06,-1.87 1.1,0.35 1.3,2.52 1.3,2.52 0,0 1.25,-1.61 3.02,-0.61 1.19,0.66 0.92,1.78 0.31,2.44 -0.76,0.82 -2.63,0.23 -2.63,0.23 0,0 -1.4,2.17 1.7,4.32 2.29,1.59 3.61,-0.05 3.61,-0.05 0,0 0.14,1.59 1.87,2.06 0.82,0.22 2.78,1.42 4.5,-1.83 0.39,-0.73 0.57,-2.01 0.32,-2.06 -0.25,-0.05 -0.55,-0.02 -0.96,-0.02 -0.82,0 -1.48,-0.63 -1.48,-1.4 0,-0.77 0.55,-1.52 1.37,-1.52 0.41,0 0.78,0.16 1.05,0.42 v -0.05 c 0,0 0.87,1.14 1.96,-0.1 0.43,-0.48 0.01,-1.69 0.01,-1.69 0,0 0,0 0,0 -0.06,-0.14 -0.09,-0.28 -0.09,-0.44 0,-0.67 0.58,-1.22 1.29,-1.22 0.71,0 1.29,0.54 1.29,1.22 0,0.53 -0.35,0.97 -0.85,1.14 -0.22,0.21 -0.62,0.66 -0.71,1.19 -0.22,1.28 1.67,1.36 1.67,1.36 l -0.05,0.09 c 0,0 0.05,0 0.08,0 0.82,0 1.48,0.63 1.48,1.4 0,0.77 -0.67,1.47 -1.48,1.4 -1,-0.09 -1.56,-1.1 -2.11,-1 0,0 -3.04,3.89 0.95,5.64 2.29,1.01 3.87,-0.05 3.87,-0.05 0,0 0.97,1.72 2.9,1.79 2.85,0.1 4.28,-2.98 4.28,-2.98 0,0 -1.93,-0.33 -2.16,-1.33 -0.18,-0.81 0.18,-1.83 1.56,-1.85 2.07,-0.04 2.6,1.88 2.6,1.88 0,0 0.56,-1.11 1.68,-1.29 1.15,-0.18 2.04,1.44 1.22,2.01 -0.73,0.51 -4.58,2.66 -6.5,3.94 -2.24,1.5 -2.57,1.65 -3.52,2.46 -0.53,0.45 -0.91,1.04 -1.21,1.24 l -1.18,-0.45 c 0,0 0.06,0 -2.14,-0.9 -2.19,-0.9 -2.47,-1.07 -2.47,-1.07 0,0 -1.16,-0.56 -3.69,-1.46 -2.53,-0.9 -4.49,-1.56 -4.49,-1.56 0,0 0.31,0.27 -1.94,-0.46 -2.25,-0.73 -2.08,-0.67 -2.08,-0.67 l -1.25,-0.31 c -0.03,-0.07 -0.06,-0.12 -0.1,-0.2 0,0 -0.64,-2.07 -1.45,-4.13 z"
       id="path136" />
    <path
       class="st0"
       d="m 601.53,334.03 c 0.35,0.09 1.82,1.2 2.5,1.94 0.75,0.81 1.44,2.12 1.44,2.12 0,0 -1.64,-0.7 -3.78,0.02 -1.95,0.66 -2.72,0.05 -2.78,-0.7 -0.06,-0.75 0.56,-1.44 0.56,-1.44 0,0 -0.58,0.91 0.53,1.2 1.08,0.28 1.64,-0.12 1.64,-0.12 0,0 -1.17,-0.15 -1.26,-0.8 -0.09,-0.66 0.36,-1.03 0.8,-1.22 0,0 -0.46,-0.32 -1.83,0.07 -1.05,0.3 -1.08,1.2 -1.26,1.45 -0.19,0.25 -0.27,0.09 -0.19,-0.69 0.14,-1.3 -0.23,-2.87 3.64,-1.84 z"
       id="path137" />
    <path
       class="st0"
       d="m 611.43,312.18 c 0.97,0 1.76,-0.79 1.76,-1.78 0,-0.99 -0.79,-1.78 -1.76,-1.78 -0.97,0 -1.76,0.79 -1.76,1.78 0,0.99 0.79,1.78 1.76,1.78 z"
       id="path138" />
    <path
       class="st0"
       d="m 599.04,313.11 c 0,-1.46 1.2,-2.64 2.68,-2.64 1.48,0 2.68,1.18 2.68,2.64 0,1.46 -1.2,2.64 -2.68,2.64 -1.48,0 -2.68,-1.18 -2.68,-2.64 z m 2.68,1.15 c 0.68,0 1.24,-0.51 1.24,-1.15 0,-0.64 -0.56,-1.15 -1.24,-1.15 -0.68,0 -1.24,0.51 -1.24,1.15 0,0.64 0.56,1.15 1.24,1.15 z"
       id="path139" />
    <path
       class="st0"
       d="m 604.74,311.23 c 0,-1.19 0.99,-2.16 2.21,-2.16 1.22,0 2.21,0.97 2.21,2.16 0,1.19 -0.99,2.16 -2.21,2.16 -1.22,0 -2.21,-0.97 -2.21,-2.16 z m 2.21,0.87 c 0.5,0 0.9,-0.38 0.9,-0.86 0,-0.48 -0.4,-0.86 -0.9,-0.86 -0.5,0 -0.9,0.38 -0.9,0.86 0,0.48 0.4,0.86 0.9,0.86 z"
       id="path140" />
    <path
       class="st0"
       d="m 614.81,301.45 c 0,0 -0.44,0.44 -0.75,1.25 -0.31,0.81 -0.31,1.94 -0.31,1.94 0,0 3.23,-0.5 3.37,0.25 0.14,0.75 -0.37,1.27 -0.37,1.27 l 1.93,0.66 c 0,0 -0.11,-1.31 0.32,-1.43 0.44,-0.12 2.68,1.87 2.68,1.87 0,0 0.56,-0.12 1.12,-1.31 0.49,-1.04 -0.12,-1.87 -0.12,-1.87 0,0 -3.18,0.62 -3.18,-0.25 0,-0.87 2.25,-3 2.25,-3 0,0 -0.63,-0.9 -1.72,-1.2 -1.37,-0.37 -1.65,-0.11 -1.65,-0.11 0,0 -0.12,3.68 -0.62,3.75 -0.5,0.07 -2.93,-1.81 -2.93,-1.81 z"
       id="path141" />
    <path
       class="st0"
       d="m 600,316.72 c 0,0 2.1,-1.9 6,-3.38 3.9,-1.49 6.15,-1.44 7.4,-1.79 1.26,-0.35 2.38,-0.58 2.38,-0.58 0,0 1.09,1.96 0.33,2.19 -0.75,0.24 -1.93,-0.22 -4.12,-0.08 -2.19,0.15 -4.14,1.1 -6.53,2.12 -2.39,1.02 -3.36,2.81 -3.36,2.81 z"
       id="path142" />
    <path
       class="st0"
       d="m 619.56,314.52 c -0.83,-0.49 -1.1,-1.58 -0.6,-2.42 0.5,-0.84 1.58,-1.13 2.42,-0.63 0.83,0.49 1.1,1.58 0.6,2.42 -0.5,0.84 -1.58,1.13 -2.42,0.63 z"
       id="path143" />
    <path
       class="st0"
       d="m 626.51,325.68 c 0,0 -0.91,-3.87 -3.38,-7.24 -2.47,-3.36 -4.38,-4.55 -5.25,-5.52 -0.86,-0.98 -1.69,-1.78 -1.69,-1.78 0,0 -1.97,1.05 -1.47,1.66 0.51,0.61 1.74,0.86 3.5,2.17 1.76,1.31 2.88,3.17 4.34,5.33 1.45,2.16 1.48,4.79 1.48,4.79 l 2.46,0.6 z"
       id="path144" />
    <path
       class="st0"
       d="m 625.74,323.1 c -1.27,-0.75 -1.7,-2.38 -0.96,-3.63 0.74,-1.25 2.38,-1.66 3.65,-0.9 1.27,0.75 1.7,2.38 0.96,3.63 -0.74,1.25 -2.38,1.66 -3.65,0.9 z m 1.31,-1.13 c 0.69,0 1.24,-0.51 1.24,-1.15 0,-0.64 -0.56,-1.15 -1.24,-1.15 -0.68,0 -1.24,0.51 -1.24,1.15 0,0.64 0.56,1.15 1.24,1.15 z"
       id="path145" />
    <path
       class="st0"
       d="m 613.83,309.06 c 0,-1.61 1.3,-2.91 2.91,-2.91 1.61,0 2.91,1.3 2.91,2.91 0,1.61 -1.3,2.91 -2.91,2.91 -1.61,0 -2.91,-1.3 -2.91,-2.91 z m 2.92,1.46 c 0.81,0 1.47,-0.65 1.47,-1.46 0,-0.81 -0.66,-1.46 -1.47,-1.46 -0.81,0 -1.47,0.65 -1.47,1.46 0,0.81 0.66,1.46 1.47,1.46 z"
       id="path146" />
    <path
       class="st0"
       d="m 622.82,318.04 c -1.05,-0.62 -1.41,-1.96 -0.8,-2.98 0.61,-1.02 1.95,-1.35 3,-0.73 1.05,0.62 1.41,1.96 0.8,2.98 -0.61,1.02 -1.95,1.35 -3,0.73 z m 1.1,-1.01 c 0.5,0 0.9,-0.38 0.9,-0.86 0,-0.48 -0.4,-0.86 -0.9,-0.86 -0.5,0 -0.9,0.38 -0.9,0.86 0,0.48 0.4,0.86 0.9,0.86 z"
       id="path147" />
    <path
       class="st0"
       d="m 609.79,330.93 c 0.61,0 0.96,-0.66 0.96,-1.19 0,-0.53 -0.49,-0.97 -1.1,-0.97 -0.61,0 -1.1,0.43 -1.1,0.97 0,0.54 0.64,1.19 1.25,1.19 z"
       id="path148" />
  </g>
  <rect
     class="st1"
     x="0"
     y="0"
     width="338"
     height="426"
     id="rect148" />
  <path
     class="st0"
     d="m 25.56,368.2 c 1.8,0 3.6,0.2 5.45,0.2 1.85,0 2.91,-0.2 4.71,-0.2 v 1.1 c -2.25,0.3 -2.8,1.8 -2.8,5 0,4.75 -0.05,9.5 -0.05,14.25 0,6.7 3.1,11.45 10.55,11.45 4.05,0 9.2,-2.35 9.2,-8 v -5.9 c 0,-5.9 -0.45,-11.8 -0.45,-14.3 0,-1.4 -1.35,-2.35 -2.55,-2.5 v -1.1 c 1.8,0 3.33,0.2 5.13,0.2 1.8,0 3.15,-0.2 4.95,-0.2 v 1.1 c -1.65,0.05 -2.35,2 -2.35,3.7 0,1.9 -0.15,7.1 -0.15,13.7 v 10.9 c 0,2.8 0.55,4.25 2.75,4.4 v 1.1 c -1.4,0 -2.85,-0.2 -4.25,-0.2 -1.4,0 -2.03,0.2 -3.43,0.2 0.1,-1.7 0.25,-3.25 0.35,-4.75 -3.65,3.4 -6.51,5.35 -11.61,5.35 -6.07,0 -12.75,-4.25 -12.75,-11.75 v -8.35 c 0,-3.9 -0.25,-7.35 -0.25,-10.45 0,-1.95 -0.35,-3.55 -2.45,-3.85 z"
     id="path149" />
</svg>
